<svg xmlns="http://www.w3.org/2000/svg" version="1.1" xmlns:xlink="http://www.w3.org/1999/xlink" xmlns:svgjs="http://svgjs.com/svgjs" width="161" height="170"><svg version="1.1" id="SvgjsSvg1007" xmlns="http://www.w3.org/2000/svg" xmlns:xlink="http://www.w3.org/1999/xlink" x="0px" y="0px" viewBox="0 0 161 170" style="enable-background:new 0 0 161 170;" xml:space="preserve">
<style type="text/css">
	.st0{fill:#422918;}
	.st1{fill:#FCEA0D;}
	.st2{fill:#D9D9D9;}
	.st3{fill:#B1B1B1;}
	.st4{fill:#F2A9A9;}
	.st5{fill:#E8401B;}
	.st6{fill:#1D1D1B;}
	.st7{fill:#FFFFFF;}
	.st8{fill:#E5332A;}
	.st9{display:none;}
	.st10{display:inline;}
	.st11{fill:none;stroke:#373835;stroke-miterlimit:10;}
	.st12{fill:#1D1E1B;}
	.st13{display:inline;fill:none;stroke:#1D1E1B;stroke-miterlimit:10;}
	.st14{display:inline;opacity:0.38;}
</style>
<g id="SvgjsG1006">
	<g>
		<path class="st0" d="M68.8,39.2C58.4,44.6,47.7,50,36.2,52.1c-6.1,1.1-13.7,0.6-16.6-4.9c-2.4-4.6-0.1-10.2,2.9-14.5
			c2.5-3.6,5.9-7.1,10.3-7.8c4.7-0.8,9.1,1.8,13.8,2.5c7.1,1,13.9-2.5,20.9-4.2c12-2.9,24.7-0.6,36.8,2.1c3.4,0.8,6.9,1.5,10,3.3
			c7.4,4.3,10.7,13.2,11.9,21.6s1.1,17.2,4.2,25.2c3.6,9.4,11.2,16.6,16.9,24.9c1,1.5,2,3.1,2.3,4.8c0.9,4.9-3.1,9.2-6,13.2
			c-4.8,6.9-6.8,15.6-5.4,23.9c0.7,3.9,1.8,8.5-1,11.3c-2.1,2.1-5.6,1.9-8.4,1.1c-2.9-0.8-5.7-2.2-8.6-1.9
			c-6.3,0.4-10.4,7.6-16.7,8.8c-4.4,0.8-8.8-1.5-12.2-4.3c-3.3-2.7-6.3-6.5-6-10.7c0.3-3.9,3.3-7,5.9-9.9
			c13.1-14.6,20.3-34.2,19.8-53.8c-0.2-6.4-1.5-13.4-6.5-17.4c-1.6-1.2-3.5-2.1-5.3-3c-6.4-3.4-12-8.4-16.1-14.4
			c-1.5-2.2-2.8-4.5-4.8-6.2S73.4,38.9,71,40"></path>
		<g>
			<path class="st0" d="M66.3,34.9c-4,2-8,4.1-12.2,6c-1,0.5-2,0.9-2.9,1.3c-0.1,0-1,0.4-0.5,0.2c0.5-0.2-0.2,0.1-0.2,0.1
				c-0.6,0.3-1.3,0.5-1.9,0.8c-2.1,0.8-4.1,1.5-6.2,2.2c-2.2,0.7-4.4,1.2-6.6,1.7c-0.5,0.1-0.9,0.2-1.4,0.3c-0.2,0-0.3,0-0.5,0.1
				c-0.9,0.2,0.2,0,0.3,0c-0.8,0-1.7,0.2-2.5,0.2c-0.8,0-1.6,0-2.4-0.1c-0.2,0-0.5,0-0.7-0.1c-0.6,0,0.5,0,0.5,0.1
				c0,0-1.4-0.3-1.5-0.3c-0.4-0.1-0.7-0.2-1.1-0.3c-0.1,0-0.3-0.1-0.5-0.2c-0.6-0.2,0.9,0.5,0.3,0.1c-0.3-0.2-0.6-0.3-1-0.5
				c-0.2-0.1-0.3-0.2-0.5-0.3c-0.6-0.4,0.3,0.1,0.3,0.2c0-0.1-0.6-0.6-0.8-0.7c-0.8-0.8,0.3,0.6-0.1-0.1c-0.1-0.2-0.7-1-0.7-1.2
				c0-0.1,0.3,0.9,0.1,0.3c-0.1-0.3-0.2-0.6-0.3-0.9c0-0.1-0.1-0.8,0-0.1c0.1,0.7,0-0.1,0-0.3c0-0.3-0.1-1.1,0-1.3c0,0-0.2,1,0,0.4
				c0-0.3,0.1-0.5,0.1-0.8c0.1-0.5,0.3-1,0.4-1.5c0.1-0.4,0.6-1.4,0.2-0.5c0.2-0.4,0.4-0.9,0.6-1.3c0.5-1,1.1-1.9,1.7-2.8
				c0.2-0.4,0.5-0.8,0.8-1.1c-0.7,0.7,0,0,0.3-0.3c0.6-0.7,1.3-1.4,2-2.1c0.2-0.2,0.4-0.3,0.6-0.5c0.1-0.1,0.6-0.5,0.1-0.1
				c-0.5,0.4,0.6-0.4,0.7-0.5c0.1,0,1.3-0.8,1.3-0.7c0,0-0.9,0.3-0.3,0.1c0.3-0.1,0.6-0.2,0.9-0.3c0.2,0,0.4-0.1,0.5-0.1
				c0.2,0,0.9-0.1,0.3-0.1c-0.6,0,0.1,0,0.2,0c0.3,0,0.6,0,0.9,0c0.3,0,0.6,0,0.9,0.1c-0.1,0-0.8-0.1-0.2,0c0.6,0.1,1.2,0.2,1.7,0.4
				c4.6,1.1,8.9,2.7,13.7,2.3c4.7-0.4,9.2-1.9,13.7-3.3c2.2-0.7,4.4-1.3,6.7-1.7c0.5-0.1,1.1-0.2,1.6-0.3c-0.9,0.1,0.5-0.1,0.8-0.1
				c1.2-0.1,2.3-0.2,3.5-0.2c2.4-0.1,4.7,0,7.1,0.1c1.1,0.1,2.2,0.2,3.3,0.3c0.6,0.1,1.1,0.1,1.7,0.2c0.6,0.1-0.1,0-0.1,0
				c0.4,0.1,0.8,0.1,1.2,0.2c4.6,0.7,9.2,1.7,13.8,2.7c1,0.2,2,0.5,3,0.7c0.6,0.2,1.1,0.3,1.7,0.5c0.2,0.1,0.4,0.1,0.6,0.2
				c0.2,0.1,1.1,0.4,0.2,0.1c0.9,0.4,1.8,0.8,2.6,1.4c0.4,0.2,0.7,0.5,1,0.7c0.5,0.3-0.3-0.2-0.3-0.2c0,0.1,0.6,0.5,0.7,0.6
				c0.6,0.5,1.2,1.2,1.8,1.8c0.2,0.2,0.3,0.4,0.5,0.5c0.4,0.4-0.2-0.3-0.2-0.3c0,0.2,0.8,1.1,0.9,1.3c0.5,0.7,0.9,1.4,1.3,2.2
				c0.2,0.4,0.4,0.8,0.6,1.2c0,0.1,0.3,0.7,0.3,0.7c-0.1,0-0.4-1-0.1-0.2c1.4,3.5,2.2,7,2.7,10.7c0.1,0.8-0.1-0.8,0,0
				c0,0.2,0.1,0.5,0.1,0.7c0.1,0.5,0.1,1.1,0.2,1.6c0.1,1.2,0.2,2.4,0.4,3.7c0.2,2.5,0.5,5,0.9,7.5c0.6,4.7,1.7,9.2,3.6,13.6
				c1.6,3.7,3.8,7.1,6.3,10.4c1.4,1.9,2.9,3.8,4.4,5.6c0.6,0.8,1.2,1.5,1.8,2.3c0.3,0.4,0.6,0.8,0.9,1.2c0.1,0.2,0.3,0.3,0.4,0.5
				c-0.6-0.8,0,0,0.1,0.1c1.2,1.7,2.5,3.3,3.6,5.1c0.2,0.4,0.5,0.8,0.7,1.3c-0.4-0.9,0,0.2,0.1,0.6c0.2,0.6-0.1-0.3,0-0.4
				c0,0,0,0.6,0,0.7c0,0.1-0.1,0.7,0,0.7c-0.1-0.2,0.2-1,0-0.2c-0.1,0.4-0.3,0.8-0.4,1.2c-0.2,0.7,0.4-0.8,0.1-0.2
				c-0.1,0.2-0.2,0.3-0.2,0.5c-0.5,0.9-1,1.8-1.6,2.7c-1.1,1.6-2.3,3.1-3.4,4.7c-2.4,3.6-4.2,7.7-5.3,11.8c-1,4.2-1.4,8.7-0.9,13
				c0.1,1.3,0.4,2.6,0.6,3.8c0.1,0.4,0.1,0.7,0.2,1.1c0,0.2,0.1,0.5,0.1,0.7c0.2,1-0.1-0.7,0,0c0.1,0.9,0.1,1.7,0.1,2.6
				c0,0.1-0.1,0.4,0,0.5c-0.2-0.7,0.2-0.8,0-0.3c0,0.1-0.2,0.6-0.2,0.6c-0.1-0.1,0.5-0.9,0.1-0.3c0,0-0.3,0.6-0.4,0.6
				c-0.1,0,0.7-0.7,0.2-0.4c-0.2,0.2-0.7,0.4-0.2,0.2c0.7-0.2,0,0-0.1,0c-0.9,0.2,0.2,0.1,0.2-0.1c0,0-0.7,0.2-0.7,0.2
				c-0.1,0-0.8,0.2,0,0c0.8-0.1-0.2,0-0.4,0c-0.4,0-0.9,0-1.3-0.1c-0.6,0,0.4,0,0.4,0.1c0-0.1-0.6-0.1-0.7-0.1c-1-0.2-2-0.6-3-0.9
				c-2.4-0.8-4.8-1.5-7.4-1.5c-2.3,0-4.5,0.6-6.6,1.6c-3,1.4-5.4,3.7-8.1,5.5c-0.7,0.5-1.4,0.9-2.1,1.3c-0.1,0.1-0.3,0.1-0.4,0.2
				c-0.5,0.3,0.4-0.2,0.4-0.2c0,0.1-1.3,0.4-1.4,0.4c-0.1,0-0.4,0.1-0.5,0.1c0.3,0.1,0.8,0,0.1,0c-0.5,0-1,0-1.4,0
				c-0.6,0,0.3,0.1,0.3,0.1c-0.1,0-0.6-0.1-0.8-0.2c-0.5-0.1-1.1-0.3-1.6-0.5c-0.9-0.3-0.1-0.1,0,0c-0.2-0.1-0.4-0.2-0.6-0.3
				c-0.4-0.2-0.9-0.5-1.3-0.7c-0.5-0.3-1-0.6-1.4-0.9c-0.2-0.1-0.3-0.2-0.5-0.4c-0.5-0.3,0.6,0.5-0.2-0.1c-0.7-0.6-1.4-1.2-2-1.9
				c-0.3-0.3-0.6-0.7-0.9-1c-0.1-0.1-0.2-0.3-0.4-0.5c0.7,0.9,0.1,0.1,0-0.1c-0.2-0.4-0.5-0.8-0.7-1.2c-0.1-0.2-0.3-0.5-0.3-0.7
				c0,0.1,0.3,1,0.1,0.1c0-0.1-0.3-1.1-0.3-1.1c0.2,0,0,1,0,0.2c0-0.3,0-0.6,0-0.9c-0.1-0.6,0,0.4-0.1,0.4c0,0,0.1-0.6,0.2-0.8
				c0.1-0.2,0.2-0.5,0.2-0.7c0-0.1,0.3-0.7,0-0.1c-0.3,0.6,0,0,0.1-0.1c0.1-0.2,0.2-0.5,0.4-0.7c0.3-0.4,0.6-0.9,0.9-1.3
				c0.5-0.8,0.1-0.1-0.1,0.1c0.1-0.2,0.2-0.3,0.4-0.5c0.3-0.4,0.6-0.7,0.9-1.1c0.7-0.8,1.4-1.6,2.1-2.4c1.5-1.7,2.9-3.5,4.3-5.3
				c2.4-3.2,4.6-6.7,6.5-10.3c3.9-7.4,6.8-15.5,8.4-23.7c1.6-8.3,2.3-17.1,0.6-25.4c-0.8-4.1-2.6-8.1-5.4-11.2
				c-3-3.3-7.2-4.8-10.8-7.1c-0.8-0.5-1.6-1-2.4-1.6c-0.2-0.2-0.4-0.3-0.7-0.5c0.2,0.1,0.8,0.6,0,0c-0.4-0.3-0.8-0.7-1.3-1
				c-1.5-1.3-2.9-2.7-4.3-4.2c-0.3-0.4-0.6-0.7-0.9-1.1c-0.1-0.2-1.2-1.5-0.5-0.6c-0.6-0.8-1.2-1.7-1.8-2.5c-1.3-1.9-2.5-3.8-4-5.6
				c-3.2-3.5-8.6-6-13.3-4.1c-2.4,1-4.4,3.4-3.5,6.2c0.8,2.3,3.6,4.5,6.2,3.5c0.2-0.1,0.5-0.2,0.7-0.2c0.7-0.3,0,0.3-0.2,0
				c0,0,0.5,0,0.6,0c0.7-0.1-0.9-0.2-0.2,0c0.2,0,1.2,0.2,1.3,0.4c0-0.1-0.8-0.5-0.2,0c0.2,0.2,0.5,0.3,0.8,0.5
				c0.6,0.4-0.6-0.6-0.1-0.1c0.1,0.2,0.3,0.3,0.4,0.4c0.4,0.4,0.7,0.8,1.1,1.2c-0.6-0.7,0.1,0.2,0.3,0.5c0.4,0.5,0.7,1,1,1.6
				c2.5,3.8,5.2,7.3,8.6,10.3c3.3,3,7,5.6,11,7.7c1,0.5,1.9,1,2.9,1.5c0.2,0.2,0.5,0.3,0.7,0.5c0.1,0.1,0.9,0.6,0.3,0.2
				c-0.5-0.4,0,0,0.1,0.1c0.2,0.2,0.4,0.4,0.7,0.6c0.1,0.1,1.2,1.2,0.7,0.7c-0.4-0.5,0.3,0.4,0.4,0.7c0.3,0.4,0.5,0.8,0.7,1.2
				c0.1,0.2,0.2,0.3,0.2,0.5c0.3,0.6,0.3,0.4,0,0c0.5,0.7,0.7,1.8,0.9,2.6c0.3,1,0.4,1.9,0.6,2.9c0.1,0.6-0.1-0.4,0-0.4
				c0,0.2,0.1,0.6,0.1,0.8c0.1,0.5,0.1,1,0.1,1.5c0.1,1,0.1,2,0.1,3.1c0,2.1,0,4.1-0.2,6.2c-0.1,1-0.2,2.1-0.3,3.1
				c-0.1,0.5-0.1,1-0.2,1.4c0.2-1.1,0.1-0.3,0-0.1c-0.1,0.3-0.1,0.7-0.2,1c-0.7,4.2-1.6,8.2-2.9,12.2c-0.3,1-0.7,2-1,2.9
				c-0.2,0.4-0.3,0.9-0.5,1.3c-0.1,0.3-0.2,0.5-0.3,0.8c-0.1,0.1-0.5,1.2-0.2,0.6c0.2-0.6-0.1,0.2-0.2,0.3c-0.1,0.2-0.2,0.4-0.2,0.6
				c-0.2,0.5-0.4,1-0.7,1.5c-0.5,1-1,2-1.5,3c-1.9,3.7-4.2,7.3-6.7,10.6c-0.1,0.1-0.6,0.8-0.2,0.3c0.4-0.5-0.1,0.1-0.1,0.1
				c-0.3,0.4-0.7,0.9-1,1.3c-0.7,0.8-1.4,1.7-2.2,2.5c-1.6,1.8-3.2,3.5-4.5,5.5c-3,4.5-3.4,9.8-1.1,14.6c2,4.2,5.8,7.6,9.7,10.1
				c4.2,2.6,9.5,4.1,14.4,2.6c3.7-1.1,6.4-3.5,9.5-5.7c0.7-0.5,1.3-1,2.1-1.4c0.3-0.2,0.7-0.4,1-0.6c0.2-0.1,0.4-0.2,0.6-0.3
				c0.9-0.5-0.7,0.2-0.2,0.1c0.4-0.1,0.7-0.2,1.1-0.3c0,0,0.6-0.1,0.6-0.1c-0.2,0.3-1.1,0-0.4,0.1c0.5,0,1,0,1.5,0
				c0.8,0-0.7-0.2,0,0c0.3,0.1,0.7,0.2,1.1,0.2c4.5,1.2,8.8,3.2,13.6,1.7c5.3-1.7,8-6.7,7.7-12c-0.1-2.2-0.6-4.5-0.9-6.7
				c0-0.2-0.1-0.4-0.1-0.6c-0.1-0.8,0.1,0.9,0,0.1c0-0.5-0.1-1-0.1-1.4c-0.1-1.1-0.1-2.2,0-3.3c0-0.6,0.1-1.1,0.1-1.6
				c0-0.2,0.1-0.4,0.1-0.6c0.1-0.8-0.1,0.9,0,0.1c0.2-1.1,0.4-2.2,0.6-3.2c0.2-1,0.6-2,0.9-3c0.2-0.4,0.3-0.9,0.5-1.3
				c0.3-0.7-0.4,0.7,0,0.1c0.1-0.3,0.3-0.6,0.4-0.9c1.8-3.7,4.6-6.7,6.7-10.2c1.3-2.2,2.2-4.6,2.5-7.2s-0.4-5.1-1.6-7.4
				c-0.9-1.9-2.3-3.6-3.6-5.3c-1.5-1.9-3-3.9-4.5-5.8c-0.6-0.8-1.3-1.6-1.9-2.4c-0.3-0.4-0.6-0.8-0.9-1.2c0.1,0.1,0.6,0.8,0,0
				c-0.2-0.3-0.4-0.6-0.6-0.8c-1.3-1.7-2.5-3.4-3.6-5.3c-0.5-0.8-1-1.7-1.4-2.5c-0.3-0.5-0.5-1-0.7-1.5c-0.1-0.3-0.7-1.7-0.3-0.7
				c-0.9-2.2-1.5-4.4-2-6.7c-0.2-1.1-0.4-2.2-0.6-3.3c0-0.2-0.1-0.4-0.1-0.7c0-0.1-0.1-1.1-0.1-0.5c0.1,0.6,0-0.3-0.1-0.5
				c-0.1-0.4-0.1-0.8-0.1-1.1c-0.3-2.3-0.5-4.6-0.7-6.8c-0.5-4.4-1-8.9-2.3-13.2c-1.2-3.8-2.8-7.6-5.2-10.9c-3-4-6.6-6.8-11.3-8.6
				c-4.3-1.7-9-2.5-13.5-3.4c-5.1-1-10.3-1.8-15.5-2.2c-5.1-0.3-10.2-0.1-15.2,0.8c-4.6,0.8-8.9,2.6-13.4,3.8
				c-1.1,0.3-2.2,0.5-3.3,0.7c-0.2,0-1.1,0.2-0.4,0.1c0.6-0.1-0.1,0-0.2,0c-0.7,0.1-1.3,0.1-2,0.1c-0.5,0-1,0-1.5,0
				c-0.3,0-0.6,0-0.9-0.1c1,0.1,0.2,0,0,0c-1.2-0.3-2.3-0.5-3.5-0.9c-4.7-1.4-9.7-2.7-14.5-0.8c-4.6,1.8-8,5.3-10.8,9.3
				c-2.6,3.8-4.7,8.4-4.6,13.1c0.1,4.9,2.6,9.4,6.9,11.9c3.4,2,7.6,2.7,11.6,2.5c9.4-0.3,18.6-4.1,27-8c4.2-1.9,8.3-4,12.4-6.1
				c2.3-1.2,3.2-4.7,1.8-6.8C71.6,34.3,68.8,33.7,66.3,34.9L66.3,34.9z"></path>
		</g>
	</g>
	<g>
		<path class="st0" d="M35,62.5c-5.2-0.2-10.3,3.6-11.5,8.7c-1.5,6.2,2.1,12.9,0,18.9c-1.9,5.4-8,8.4-10.2,13.7
			c-1.3,3.2-0.9,7.1,1.1,10c1.6,2.4,4.4,4.6,3.9,7.4c-0.3,1.9-1.9,3.2-3.1,4.7c-2,2.6-2.8,5.9-3.4,9.1c-0.6,3.1-1.1,6.5,0,9.5
			s4.2,5.5,7.3,4.8c2.7-0.6,4.5-3.4,7.3-3.9c2.6-0.5,5.1,1.3,7.3,2.9c2.2,1.6,4.8,3.2,7.4,2.4c1.3-0.4,2.3-1.4,3.3-2.2
			c2.7-2.2,5.8-3.7,9.2-4.5c0.3-0.1,0.7-0.2,1-0.4c0.9-0.7,0.1-2.1-0.7-3c-8.3-8.9-13.9-20-17.2-31.7c-3.3-11.7-4.4-23.9-4.4-36
			c0-3.3,0.1-6.7,1.3-9.8"></path>
		<g>
			<path class="st0" d="M35,57.5c-4.4-0.1-8.7,1.7-11.9,4.8c-3.3,3.1-4.9,7.4-5.1,11.9c-0.1,2.3,0.3,4.6,0.6,6.8
				c0.1,0.5,0.1,0.9,0.2,1.4c0.1,0.6,0-0.3,0-0.3c0,0.3,0.1,0.6,0.1,0.8c0.1,0.9,0.2,1.9,0.2,2.8c0,0.2,0.1,1.4-0.1,1.6
				c0,0,0.2-1,0-0.3c0,0.2-0.1,0.4-0.1,0.6c-0.1,0.4-0.3,0.9-0.4,1.3c-0.2,0.7,0.4-0.8,0.1-0.2c-0.1,0.2-0.2,0.4-0.3,0.6
				c-0.2,0.3-0.4,0.7-0.6,1c-0.1,0.1-0.4,0.4-0.4,0.6c0,0,0.6-0.7,0.2-0.3c-0.6,0.7-1.1,1.3-1.8,2c-2.8,2.9-5.6,5.8-7.2,9.6
				c-1.7,4.3-1.2,9.3,1,13.3c0.6,1,1.3,1.9,2.1,2.9c0.3,0.3,0.6,0.7,0.8,1c0.1,0.2,0.2,0.3,0.4,0.4c0.4,0.5-0.6-1,0,0
				c0.2,0.3,0.4,0.6,0.6,0.9c0.5,0.9-0.1-0.3-0.1-0.2c0,0,0.2,0.7,0.2,0.7c0,0-0.2-1.1-0.1-0.5c0.1,0.5,0.1-0.4,0.1-0.4
				c-0.1,1.1-0.1-0.2,0.1-0.2c0,0-0.3,0.7-0.4,0.6c0.1,0,0.6-0.7,0.1-0.1c-0.1,0.2-0.2,0.3-0.4,0.4c-0.3,0.3-0.6,0.7-0.9,1
				c-0.8,1-1.6,2-2.2,3.2c-1.1,2-1.8,4.2-2.3,6.4c-1,4.6-2,9.8-0.3,14.3c1.7,4.6,6.1,8.7,11.2,8.4c2.4-0.1,4.5-1,6.4-2.4
				c0.6-0.4,1.2-0.9,1.9-1.3c0.3-0.2,0.8-0.4,1-0.6c-0.2,0.3-1,0.1-0.2,0.2c0.6,0,0.1,0-0.2,0c0.9-0.1-0.3,0.1-0.2-0.1
				c0,0,0.5,0.1,0.6,0.1c0.2,0,0.9,0.3,0.3,0.1c-0.6-0.2,0,0,0.1,0.1c0.9,0.5,1.8,1.1,2.6,1.7c1.9,1.4,3.9,2.7,6.2,3.3
				c2.8,0.7,5.7,0.3,8.1-1.3c1-0.7,2-1.5,2.9-2.3c-0.7,0.6,0.3-0.2,0.5-0.4c0.5-0.3,1-0.6,1.5-0.9c0.4-0.2,0.9-0.5,1.3-0.7
				c0.3-0.1,0.5-0.2,0.8-0.4c-0.1,0-0.7,0.3-0.2,0.1c1-0.4,2-0.7,3.1-1c3.6-1,6-4.5,4.6-8.1c-0.8-2.4-2.7-4.1-4.3-5.9
				c-0.3-0.4-0.6-0.8-0.9-1.1c-0.2-0.2-0.3-0.4-0.5-0.7c0,0.1,0.5,0.6,0.1,0.2c-0.6-0.8-1.3-1.7-1.9-2.6c-2.3-3.4-4.3-6.9-6.1-10.6
				c-0.4-0.8-0.8-1.7-1.1-2.5c-0.3-0.7,0.3,0.7,0,0c-0.1-0.2-0.2-0.4-0.2-0.6c-0.2-0.5-0.4-1.1-0.6-1.6c-0.7-1.9-1.4-3.9-2-5.8
				c-1.3-4.3-2.3-8.6-3-13c-0.2-1.1-0.3-2.2-0.5-3.3c-0.1-1,0-0.3,0-0.1c0-0.2-0.1-0.5-0.1-0.7c-0.1-0.6-0.2-1.3-0.2-1.9
				c-0.2-2.3-0.4-4.6-0.6-6.9c-0.3-4.5-0.5-9-0.3-13.5c0-0.5,0.1-1.1,0.1-1.6c0.1-1,0-0.2,0,0c0-0.2,0.1-0.4,0.1-0.7
				c0.2-1.1,0.5-2.2,0.9-3.2c1-2.4-1-5.6-3.5-6.2c-2.9-0.7-5.1,0.9-6.1,3.5c-1.6,4.1-1.5,8.7-1.5,13.1c0.1,4.3,0.2,8.6,0.6,12.9
				c0.8,8.8,2.3,17.5,5,26c2.4,7.5,5.8,14.8,10.2,21.4c1.2,1.8,2.5,3.6,3.9,5.3c0.6,0.7,1.2,1.4,1.8,2.1c0.3,0.4,0.7,0.7,1,1.1
				c0.1,0.1,0.3,0.3,0.4,0.5c0.5,0.4-0.3-0.7-0.1-0.1s-0.1-0.4-0.1-0.4c0.4-0.7,0.9-1.5,1.3-2.2c1.8-1.8,2.1-2.5,1-2.1
				c-0.4,0.1-0.8,0.2-1.2,0.3c-1.2,0.4-2.4,0.9-3.6,1.4c-1.8,0.8-3.5,1.7-5,2.9c-0.6,0.5-1.2,0.9-1.8,1.4c-0.3,0.3-1,0.7-0.2,0.2
				c-0.2,0.1-0.5,0.3-0.7,0.4c-0.1,0.1-0.7,0.3-0.1,0.1c0.6-0.2-0.1,0-0.2,0c0.5-0.1,0.6,0,0.1-0.1c1,0.2-0.1-0.1-0.5-0.2
				c-0.5-0.1,0.1,0.1,0.2,0.1c-0.2-0.1-0.4-0.2-0.6-0.3c-0.9-0.5-1.7-1.1-2.5-1.7c-1.7-1.3-3.5-2.4-5.6-3.1
				c-2.7-0.8-5.4-0.5-7.9,0.7c-1.4,0.7-2.6,1.8-3.9,2.6c-0.2,0.1-1.1,0.7-0.5,0.3c0.6-0.4,0.1,0,0,0c-0.1,0-0.1,0-0.2,0.1
				c-0.4,0.1-0.2,0.1,0.5,0c-0.1,0-0.4,0-0.5,0c-0.5,0.1,0.4,0,0.5,0.1c-0.1-0.1-0.4-0.1-0.5-0.1c-1-0.3,0.1-0.1,0.1,0.1
				c0,0-0.9-0.6-0.9-0.6c0.1,0,0.6,0.6,0.3,0.2c-0.1-0.2-0.3-0.4-0.5-0.5c-0.4-0.4,0.3,0.2,0.2,0.3c0,0-0.3-0.4-0.3-0.4
				c-0.1-0.1-0.2-0.3-0.3-0.5c-0.5-0.9,0.1,0.7,0,0c-0.1-0.4-0.2-0.9-0.3-1.3c-0.2-0.6,0,0.1,0,0.2c0-0.3,0-0.6-0.1-0.9
				c0-0.5,0-0.9,0-1.4c0-0.3,0-0.6,0.1-0.9c0-0.4,0-0.6,0-0.1c0.2-1.9,0.6-3.8,1.1-5.7c0.2-0.9,0.5-1.7,0.8-2.5
				c-0.3,0.8,0,0.1,0.2-0.3c0.3-0.5,0.6-0.9,0.9-1.4c-0.5,0.7-0.1,0.1,0.2-0.2c0.3-0.3,0.6-0.7,0.9-1c0.9-1.1,1.6-2.1,2.2-3.3
				c1.1-2.7,0.9-5.3-0.3-7.9c-0.8-1.8-2.2-3.2-3.4-4.7c-0.1-0.1-0.3-0.3-0.4-0.4c0.1,0.5,0.4,0.6,0.1,0.1c-0.2-0.3-0.4-0.7-0.6-1
				c0-0.1-0.4-0.7-0.1-0.1c0.3,0.6,0-0.1-0.1-0.3c-0.1-0.4-0.2-0.9-0.4-1.3c-0.2-0.8,0,0.2,0,0.2c0,0,0-0.5,0-0.6c0-0.4,0-0.8,0-1.2
				c0-0.6,0,0.4-0.1,0.4c0,0,0.1-0.7,0.1-0.8c0.1-0.4,0.3-0.9,0.4-1.3c0.2-0.7-0.4,0.8-0.1,0.2c0.1-0.2,0.2-0.3,0.2-0.5
				c0.2-0.3,0.4-0.6,0.5-0.9c0.1-0.2,0.9-1.2,0.4-0.6c-0.4,0.5,0.4-0.4,0.5-0.6c2.3-2.7,5-5,7-8c2.2-3.5,2.8-7.7,2.4-11.8
				c-0.1-1.2-0.3-2.4-0.5-3.6c-0.1-0.4-0.1-0.8-0.2-1.2c0-0.2-0.2-1,0,0.1c0-0.3-0.1-0.6-0.1-0.8c-0.1-0.9-0.2-1.8-0.2-2.6
				c0-0.4,0-0.8,0-1.2c0-0.2,0-0.4,0-0.6c0.1-1.2-0.2,0.6,0-0.1c0.1-0.4,0.2-0.7,0.3-1.1c0.1-0.2,0.2-0.4,0.2-0.7
				c0.2-0.5-0.1,0.4-0.2,0.4c0.1,0,0.4-0.8,0.5-0.9c0.1-0.2,0.2-0.4,0.4-0.6c0.4-0.7,0,0.2-0.1,0.2c0.2,0,1.4-1.4,1.6-1.6
				c0.4-0.4-0.3,0.2-0.3,0.2c0,0,0.4-0.3,0.4-0.3c0.4-0.3,0.8-0.4,1.2-0.7c0.5-0.3-0.4,0.2-0.4,0.1c0.2-0.1,0.5-0.2,0.7-0.2
				c0.3-0.1,0.7-0.2,1-0.3c0.2,0,0.3-0.1,0.5-0.1c0.5-0.1-0.4,0.1-0.5,0.1c0.3,0.1,1.1-0.1,1.4-0.1c2.6,0.1,5.1-2.3,5-5
				C39.9,59.8,37.8,57.6,35,57.5L35,57.5z"></path>
		</g>
	</g>
	<g>
		<g>
			<path class="st1" d="M72.7,47.7c0.5-0.2,0.9-0.5,1.4-0.7c0.1-0.1,1-0.4,0.5-0.2c-0.5,0.2,0.2-0.1,0.3-0.1c0.5-0.2,1-0.3,1.5-0.4
				c0.7-0.2-0.7-0.1,0,0c0.3,0,1.1,0.2,0.2-0.1c0.2,0.1,0.4,0.1,0.6,0.2c0.6,0.1-0.7-0.5-0.2-0.1c0.1,0.1,0.3,0.2,0.5,0.3
				c0.7,0.4-0.2,0-0.2-0.1c0,0,0.9,0.9,0.9,0.9c0,0,0.4,0.4,0.4,0.4c-0.4-0.5-0.4-0.6-0.2-0.3c0.1,0.1,0.1,0.2,0.2,0.3
				c2.1,3.1,3.6,6.6,5.7,9.8c2.4,3.7,5.1,7,8.8,9.4c1.9,1.3,4.1,2.2,6.3,3c1,0.4,1.9,0.7,2.9,1.1c0.2,0.1,1.8,0.8,0.8,0.3
				c0.5,0.2,1.1,0.5,1.6,0.8c0.4,0.2,0.8,0.4,1.2,0.7c0.2,0.1,0.3,0.2,0.5,0.3c-0.8-0.6-0.3-0.2-0.1,0c0.1,0.1,0.3,0.3,0.4,0.4
				c0.5,0.4-0.3-0.7,0-0.1c0.1,0.2,0.2,0.4,0.3,0.5c0.7,1-0.1-0.5,0.1,0.2c0.2,0.5,0.3,0.9,0.4,1.4c0.1,0.3,0.1,0.6,0.2,0.8
				c0,0.1,0.2,0.8,0.1,0.2c-0.1-0.6,0,0.3,0,0.5c0,0.2,0,0.5,0.1,0.7c0,0.6,0,1.2,0,1.8c0,0.6-0.1,1.2-0.1,1.8c0,0.2,0,0.5-0.1,0.7
				c0,0.1-0.1,1.1-0.1,0.5c0.1-0.6,0,0.2,0,0.2c-0.1,0.3-0.1,0.6-0.2,0.9c-0.1,0.6-0.2,1.2-0.3,1.8c-0.4,2.2-0.9,4.4-1.2,6.7
				c-0.4,2.6-0.7,5.2-0.7,7.9c0,1.1-0.1,2.2-0.1,3.3c0,0.5-0.1,1.1-0.2,1.6c0.1-1.1-0.1,0.4-0.2,0.8c-0.2,1-0.4,1.9-0.8,2.9
				c-0.2,0.5-0.3,1.1-0.6,1.6c-0.1,0.2-0.2,0.4-0.2,0.6c-0.3,0.7,0.5-1.1-0.1,0.2c-0.9,1.9-1.8,3.7-2.9,5.4c-0.7,1-1.3,2-2,3
				c-0.3,0.5-0.7,0.9-1,1.4c0,0.1-0.5,0.6-0.1,0.2c0.4-0.5-0.3,0.4-0.4,0.5c-1.6,1.9-3.2,3.8-4.8,5.7c-3.5,4-6.9,8.1-9.9,12.5
				c-1.5,2.2-0.5,5.6,1.8,6.8c2.5,1.3,5.3,0.5,6.8-1.8c0.6-0.9,1.3-1.9,1.9-2.8c0.2-0.2,0.4-0.5,0.5-0.7c0.5-0.6-0.4,0.6,0.1-0.1
				c0.4-0.5,0.8-1.1,1.3-1.6c1.5-1.8,3-3.6,4.5-5.3c3.2-3.7,6.4-7.5,9.1-11.6c2.6-3.9,4.8-8.2,6-12.7c0.7-2.6,1-5.2,1.1-7.9
				c0.1-1.2,0.1-2.4,0.1-3.6c0-0.6,0.1-1.1,0.1-1.7c0-0.3,0.1-0.6,0.1-0.9c0,0,0.2-1.3,0.1-0.7c-0.1,0.6,0.1-0.3,0.1-0.5
				c0.1-0.3,0.1-0.6,0.2-0.9c0.1-0.5,0.2-1.1,0.3-1.6c0.2-1.3,0.5-2.6,0.8-3.9c0.5-2.6,0.9-5.3,1.1-8c0.3-5.2-0.8-11.3-5-14.9
				c-2.1-1.8-4.5-3-7.1-4c-1-0.4-2.1-0.8-3.1-1.1c-0.6-0.2-1.1-0.4-1.6-0.6c-0.5-0.2,0.1,0,0.2,0.1c-0.4-0.2-0.8-0.4-1.2-0.6
				c-0.4-0.2-0.8-0.5-1.3-0.7c-0.2-0.1-0.4-0.3-0.6-0.4c-0.1-0.1-0.8-0.5-0.2-0.2c0.5,0.4,0,0-0.1-0.1c-0.2-0.2-0.4-0.3-0.6-0.5
				c-0.4-0.4-0.8-0.8-1.2-1.2c-0.3-0.3-0.6-0.6-0.9-1c-0.2-0.2-0.3-0.4-0.5-0.6c-0.6-0.7,0,0,0.1,0.1c-0.7-0.8-1.2-1.7-1.8-2.5
				c-2.6-4-4.4-8.7-7.6-12.3c-2.1-2.4-5.1-3.8-8.2-4c-3.3-0.2-6.5,1.3-9.4,2.8c-2.3,1.2-3.2,4.7-1.8,6.8
				C67.4,48.3,70.2,49,72.7,47.7L72.7,47.7z"></path>
		</g>
	</g>
	<g>
		<g>
			<path class="st2" d="M115,98.4c0.3,0.1,0.5,0.2,0.8,0.4c0.1,0,0.4,0.3,0.2,0.1c0.1,0.1,0.2,0.2,0.3,0.3s0.2,0.2,0.3,0.3
				c-0.1-0.2,0,0,0.1,0.1c0,0,0.2,0.4,0.1,0.2c0.1,0.1,0.1,0.3,0.1,0.4c0,0.1,0,0.1,0,0.2c0-0.2,0-0.2,0,0c0,0.1,0,0.5,0,0.2
				c0,0.1-0.1,0.2-0.1,0.3c-0.1,0.1-0.1,0.2,0,0c0,0.1-0.1,0.1-0.1,0.2c-0.1,0.1-0.2,0.3-0.2,0.4c0,0.1-0.1,0.1-0.1,0.2
				c0.1-0.1,0.1-0.1,0,0c-0.2,0.2-0.4,0.4-0.6,0.6c0,0-0.3,0.3-0.1,0.1c-0.1,0.1-0.2,0.2-0.4,0.2c-0.1,0-0.1,0.1-0.2,0.1
				c0.1-0.1,0.1-0.1,0,0c-0.1,0-0.3,0.1-0.4,0.1c0.3-0.1-0.2,0-0.2,0s-0.4-0.1-0.1,0c-0.1,0-0.5-0.2-0.2-0.1
				c-0.1-0.1-0.2-0.1-0.3-0.2c0.2,0.2-0.1-0.1-0.1-0.1c-0.1-0.1-0.1-0.1-0.1-0.2c0.1,0.1,0.1,0.1,0,0c-0.1-0.1-0.1-0.2-0.2-0.3
				c0-0.1-0.1-0.1-0.1-0.2c0.1,0.2,0.1,0.2,0,0c-0.1-0.3-0.2-0.6-0.2-0.9c0,0.2,0-0.2,0-0.3c0-0.2,0-0.3,0-0.5
				c0-0.7-0.6-1.3-1.2-1.2c-0.7,0-1.3,0.6-1.2,1.2c0.1,1.4,0.3,2.7,1.2,3.8c0.9,1.1,2.3,1.5,3.7,1.2c1.3-0.3,2.4-1.2,3.2-2.3
				c0.8-1.1,1.2-2.5,0.7-3.9c-0.5-1.4-1.6-2.4-2.9-3c-0.6-0.3-1.4-0.2-1.7,0.4C114.2,97.3,114.3,98.2,115,98.4L115,98.4z"></path>
		</g>
	</g>
	<g>
		<g>
			<path class="st3" d="M114.9,105.5c-0.3,1.6-0.7,3.2-1.3,4.7c0.8,0.2,1.6,0.4,2.4,0.7c0.5-1.8,0.9-3.6,1.1-5.4
				c-0.8,0.2-1.6,0.4-2.3,0.6c0.4,0.7,0.8,1.3,1.2,2.1c0.4,0.8,0.6,1.2,0.9,2c0.8-0.3,1.5-0.6,2.3-1c-0.8-1.2-1.4-2.4-2.8-2.8
				c-1.3-0.4-2.7-0.5-4.1-0.5c0.1,0.8,0.2,1.6,0.3,2.5c2.5-0.4,4.9-1,7.2-1.9c0.6-0.2,1.1-0.8,0.9-1.5c-0.2-0.6-0.9-1.1-1.5-0.9
				c-2.3,0.9-4.8,1.5-7.2,1.9c-0.6,0.1-1,0.8-0.9,1.4c0.1,0.6,0.6,1.1,1.2,1.1c0.6,0,1.1,0,1.7,0.1c0.4,0,1,0.1,1.5,0.3
				c0.1,0,0.2,0.1,0.3,0.1c0.1,0,0.1,0,0,0c0.1,0.1,0.1,0.1,0.1,0c-0.1-0.1,0.1,0.1,0.2,0.2c0,0,0.1,0.1,0.1,0.1
				c-0.1-0.1-0.1-0.1,0,0c0.3,0.5,0.6,0.9,0.9,1.4c0.3,0.5,1,0.8,1.6,0.5c0.5-0.2,0.9-0.9,0.7-1.5c-0.6-1.6-1.4-3.2-2.3-4.7
				c-0.3-0.4-0.9-0.8-1.4-0.6c-0.6,0.2-0.9,0.6-0.9,1.2c0,0.2,0,0.4-0.1,0.6c0,0.1,0,0.3,0,0.1c0,0.1,0,0.2,0,0.3
				c-0.1,0.4-0.1,0.9-0.2,1.3c-0.2,0.8-0.4,1.7-0.6,2.5c-0.2,0.6,0.2,1.4,0.9,1.5c0.7,0.2,1.3-0.2,1.5-0.9c0.6-1.5,0.9-3.1,1.3-4.7
				c0.1-0.6-0.2-1.4-0.9-1.5C115.8,104.5,115.1,104.8,114.9,105.5L114.9,105.5z"></path>
		</g>
	</g>
</g>
<g id="SvgjsG1005">
	<g>
		<path class="st4" d="M37.1,59.9c-0.2,18.2,1.3,36.5,4.6,54.4c1,5.3,2.1,10.6,4.6,15.3c2.5,4.7,6.6,8.9,11.8,10.3
			c2.8,0.8,5.7,0.7,8.6,0.4c6.8-0.6,13.6-2.5,19-6.6c5.9-4.4,9.7-11.1,13.1-17.6c4.5-8.4,8.8-17,10.8-26.3c1-4.4,1.4-9.1,0.1-13.4
			c-0.2-0.8-0.5-1.5-1.1-2.1c-0.7-0.8-1.8-1.1-2.8-1.4C94.1,69.1,84,60.4,78.3,49.4c-1.2-2.4-2.8-5.3-5.5-5.3
			c-1.4,0-2.6,0.7-3.8,1.5C59,51.7,48.2,56.6,36.9,60"></path>
		<g>
			<path class="st4" d="M34.6,59.9c-0.1,10.3,0.3,20.5,1.3,30.7c1,10,2.2,20.2,4.5,30.1c2,8.2,6.1,17,14.3,20.7
				c4.4,2,9.2,1.9,13.9,1.3c4.6-0.6,9.1-1.7,13.3-3.7c8.2-3.9,13.5-11.2,17.7-19c4.6-8.4,9.1-17,11.7-26.3c1.3-4.7,2.2-9.6,1.6-14.5
				c-0.3-2.4-0.8-5.2-2.7-6.9c-1.6-1.5-4-1.9-6-2.6c-7.3-2.8-13.8-7.8-18.8-13.9c-1.2-1.5-2.3-3-3.3-4.7c-1-1.7-1.8-3.5-2.9-5.2
				c-1.1-1.8-2.5-3.4-4.6-4.1c-2.2-0.8-4.5,0-6.4,1.1c-8.1,4.9-16.4,9.2-25.4,12.3c-2.2,0.8-4.4,1.5-6.7,2.2
				c-3.1,0.9-1.8,5.8,1.3,4.8c8.6-2.6,17.1-6.1,25-10.3c1.9-1,3.8-2.1,5.7-3.2c0.9-0.5,1.8-1.1,2.7-1.6c0.7-0.4,1.4-0.8,2.1-0.6
				c1.2,0.3,2,2.1,2.6,3.1c0.9,1.6,1.7,3.2,2.7,4.7c4.2,6.5,9.9,12.1,16.6,16.1c3.3,2,6.8,3.6,10.5,4.8c0.7,0.2,1.3,0.4,1.7,1
				c0.5,0.8,0.6,2,0.8,3c0.3,2.2,0.2,4.4-0.1,6.6c-1.2,8.9-5.1,17.3-9.2,25.2c-3.7,7.2-7.5,14.9-13.9,20.1
				c-3.1,2.5-6.9,4.2-10.8,5.2c-4,1.1-8.4,1.8-12.6,1.4c-8-0.6-12.9-7.7-15.1-14.7c-1.4-4.3-2.1-8.8-2.8-13.2
				c-0.8-4.7-1.5-9.4-2-14.1c-1.1-9.6-1.7-19.2-1.8-28.8c0-2.4,0-4.9,0-7.3C39.6,56.6,34.6,56.6,34.6,59.9L34.6,59.9z"></path>
		</g>
	</g>
	<g>
		<path class="st5" d="M37.1,86.8c-0.2-1.2-0.4-2.4-0.5-3.7c0-0.8-0.1-1.6,0-2.5c0.2-2.5,1.5-4.9,3.7-6.2s5.2-0.9,6.7,1.1
			c0.5,0.7,0.8,1.5,1.1,2.3c0.6,1.7,1,3.4,1.4,5.1c0,0.2,0,0.3,0,0.4c-0.1,0.2-0.3,0.2-0.4,0.3c-4,1.7-8,3.1-12.2,4.4"></path>
		<g>
			<path class="st5" d="M38.3,86.5c-0.5-2.3-0.8-4.9-0.1-7.2c0.5-1.7,1.7-3.4,3.4-3.9c1.5-0.5,3.4-0.2,4.4,1.1c0.7,0.9,1,2,1.3,3
				c0.2,0.6,0.4,1.3,0.5,1.9c0.1,0.3,0.2,0.7,0.2,1c0,0.2,0.1,0.3,0.1,0.5c0,0.3,0,0.3,0.1,0.1c0.2-0.2,0.3-0.3,0.5-0.4
				c-0.8,0.6-2,0.9-2.9,1.2c-1,0.4-2,0.8-3,1.1c-2.1,0.8-4.2,1.4-6.3,2.1c-1.5,0.5-0.9,2.9,0.7,2.4c3.3-1,6.7-2.2,9.9-3.5
				c0.8-0.3,1.5-0.6,2.3-0.9c1-0.4,1.5-1.2,1.3-2.3c-0.3-1.6-0.7-3.3-1.3-4.8c-0.5-1.4-1.1-2.8-2.3-3.8c-1.1-0.9-2.3-1.3-3.7-1.4
				c-2.8-0.2-5.3,1.5-6.8,3.8c-1.9,3.2-1.5,7.2-0.8,10.7C36.2,88.7,38.6,88.1,38.3,86.5L38.3,86.5z"></path>
		</g>
	</g>
	<g>
		<path class="st5" d="M70.6,79.7c0.1-2.6-0.9-5.3-0.2-7.8c0.8-2.7,3.7-4.5,6.6-4.7c0.8-0.1,1.7,0,2.4,0.4c0.6,0.4,1.1,0.9,1.5,1.5
			c1.5,2.2,2.4,4.8,2.6,7.4c0,0.2,0,0.5-0.1,0.7c-0.2,0.6-0.8,0.8-1.4,0.9c-3.9,0.9-7.8,1.6-11.7,2.2"></path>
		<g>
			<path class="st5" d="M71.8,79.7c0-1.4-0.2-2.8-0.3-4.2c-0.1-1.2-0.2-2.5,0.3-3.7c0.8-1.9,2.8-3,4.7-3.3c1.2-0.2,2.2-0.1,3.1,0.8
				c0.8,0.9,1.4,2.1,1.8,3.1c0.5,1.2,0.8,2.4,1,3.7c0,0.1,0,0.3,0,0.4c0,0,0,0.1,0,0.1c0,0.2,0,0.2,0,0.1c-0.1-0.1,0.3-0.1,0-0.1
				c0,0-0.4,0.2-0.3,0.1c-0.7,0.2-1.4,0.3-2.1,0.5c-3.3,0.7-6.6,1.3-9.9,1.8c-0.7,0.1-1,0.9-0.9,1.5c0.2,0.7,0.9,1,1.5,0.9
				c3.6-0.5,7.1-1.1,10.6-1.9c1.5-0.3,3.3-0.7,3.5-2.5c0.1-1.5-0.3-3.2-0.8-4.6c-0.5-1.5-1.2-2.9-2.2-4.2c-1.1-1.4-2.4-2.3-4.2-2.3
				c-2.7-0.1-5.6,1.2-7.2,3.3c-1.1,1.4-1.6,3-1.6,4.7c0,1.9,0.5,3.8,0.4,5.7C69.3,81.3,71.8,81.3,71.8,79.7L71.8,79.7z"></path>
		</g>
	</g>
	<g>
		<g>
			<path class="st6" d="M30.4,88.8c1.3,0.7,2.2,1.9,3.6,2.4c1.7,0.7,3.3-0.1,4.9-0.9c3.5-1.7,7.4-2.6,11.1-3.7
				c1.5-0.4,0.9-2.8-0.7-2.4c-3.4,0.9-6.9,1.8-10.2,3.2c-0.8,0.3-1.6,0.8-2.4,1.1c-0.6,0.3-1.2,0.5-1.9,0.3
				c-1.2-0.4-2.1-1.7-3.3-2.2C30.2,85.9,28.9,88,30.4,88.8L30.4,88.8z"></path>
		</g>
	</g>
	<g>
		<g>
			<path class="st6" d="M30.1,89c0.9,1.2,2.1,2.2,3.5,2.5c1.7,0.4,3.3,0,4.9-0.6c3.6-1.2,7.2-2.5,10.8-3.7c1.5-0.5,0.9-2.9-0.7-2.4
				c-3,1.1-6.1,2.1-9.1,3.1c-2.3,0.8-5.5,2.4-7.3-0.2C31.4,86.5,29.2,87.7,30.1,89L30.1,89z"></path>
		</g>
	</g>
	<g>
		<g>
			<path class="st6" d="M71.7,83.2c3.8-0.3,7.8-0.8,11.5-1.7c3.4-0.8,5.9-3,8.3-5.4c-0.7-0.5-1.3-1-2-1.5c-0.9,1.2-1.8,2.5-3.1,3.4
				c-1.4,0.9-3.1,1.3-4.7,1.7c-3.5,0.9-7,1.7-10.5,2.3c0.2,0.8,0.4,1.6,0.7,2.4c3.8-0.8,7.5-1.6,11.3-2.4c1.6-0.3,3.2-0.6,4.4-1.6
				c1.2-0.9,1.9-2.2,3.1-3.1c1.3-0.9,0.1-3.1-1.3-2.2c-1.2,0.8-2,2-3.1,3c-1.2,1.1-2.8,1.2-4.3,1.5c-3.6,0.8-7.3,1.6-10.9,2.3
				c-1.6,0.3-0.9,2.7,0.7,2.4c3.9-0.7,7.8-1.6,11.6-2.7c1.7-0.5,3.4-1,4.9-2.1c1.4-1.1,2.4-2.4,3.4-3.8c0.8-1.2-1-2.5-2-1.5
				c-2.2,2.2-4.4,4.2-7.5,4.8c-3.5,0.8-7,1.2-10.5,1.5C70.2,80.8,70.1,83.3,71.7,83.2L71.7,83.2z"></path>
		</g>
	</g>
	<g>
		<g>
			<path class="st6" d="M71.4,80.9c-0.4,0-0.8-0.1-1.2-0.1c-0.4,0-0.7,0.1-1,0.2c-0.2,0.1-0.4,0.3-0.6,0.6c-0.2,0.3-0.2,0.5-0.2,0.8
				c0,0.1,0,0.2,0,0.2c0,0.2,0,0.4,0.1,0.6c0.1,0.2,0.2,0.5,0.3,0.7c0.1,0.2,0.3,0.4,0.5,0.6c0.3,0.2,0.5,0.4,0.9,0.5
				c0.2,0,0.4,0.1,0.5,0.1c0.1,0,0.3,0,0.4-0.1c0,0,0.1,0,0.1,0c0.2-0.1,0.3-0.1,0.5-0.2c0.2-0.2,0.4-0.3,0.6-0.6
				c0.1-0.1,0.1-0.3,0.2-0.5c0-0.2,0-0.3,0-0.5c-0.1-0.3-0.3-0.6-0.6-0.8c-0.3-0.2-0.6-0.2-1-0.1c-0.1,0-0.2,0.1-0.3,0.1
				c-0.2,0.1-0.3,0.3-0.4,0.4c0,0,0,0,0,0c0.1-0.1,0.1-0.2,0.2-0.2c0,0-0.1,0.1-0.1,0.1c0.1-0.1,0.2-0.1,0.2-0.2
				c0,0-0.1,0.1-0.1,0.1c0.1,0,0.2-0.1,0.3-0.1c-0.1,0-0.1,0-0.2,0c0.1,0,0.2,0,0.3,0c-0.1,0-0.1,0-0.2,0c0.1,0,0.2,0,0.3,0
				c-0.1,0-0.1,0-0.2-0.1c0.1,0,0.2,0.1,0.3,0.1c-0.1,0-0.1-0.1-0.2-0.1c0.1,0.1,0.2,0.1,0.2,0.2c-0.1-0.1-0.1-0.1-0.2-0.2
				c0.1,0.1,0.1,0.2,0.2,0.2c-0.1-0.1-0.1-0.2-0.2-0.3c0,0.1,0.1,0.2,0.1,0.3c-0.1-0.2-0.1-0.3-0.1-0.5c0,0.1,0,0.2,0,0.3
				c0-0.1,0-0.2,0-0.2c0,0.1,0,0.2,0,0.3c0,0,0-0.1,0-0.1c0,0.1-0.1,0.2-0.1,0.3c0,0,0-0.1,0.1-0.1c-0.1,0.1-0.1,0.2-0.2,0.2
				c0,0,0,0,0.1-0.1c-0.1,0.1-0.2,0.1-0.2,0.2c0,0,0,0,0.1,0c-0.1,0-0.2,0.1-0.3,0.1c0,0,0.1,0,0.1,0c-0.1,0-0.2,0-0.3,0
				c0.2,0,0.5,0,0.7,0c0.3,0,0.5,0,0.8,0.1c0.2,0,0.3,0,0.5-0.1c0.2-0.1,0.3-0.1,0.4-0.3c0.1-0.1,0.2-0.2,0.3-0.4
				c0.1-0.2,0.1-0.3,0.1-0.5c0-0.3-0.1-0.7-0.4-0.9c-0.1-0.1-0.2-0.1-0.2-0.2C71.8,81,71.6,80.9,71.4,80.9L71.4,80.9z"></path>
		</g>
	</g>
	<g>
		<path class="st0" d="M71.1,59.8c0.8,0.8,1.9,1.3,3,1.5s2.3,0,3.4-0.1c1.4-0.2,3-0.5,3.9-1.6c0.6-0.8,0.7-1.7,0.7-2.7
			c0-0.7-0.1-1.4-0.6-2c-0.5-0.6-1.3-0.9-2-1c-2.3-0.2-4.4,1.2-6.4,2.3c-2.9,1.4-6.1,2.1-9.3,1.9c1.3,1.2,2.8,2.3,4.4,3
			c1,0.5,2.2,0.9,3.2,0.5"></path>
		<g>
			<path class="st0" d="M70.2,60.7c2,2,4.8,2,7.4,1.7c2.4-0.3,4.8-1,5.6-3.6c0.7-2.4-0.1-5.3-2.8-6c-2.6-0.6-5,0.8-7.2,2
				c-2.9,1.5-6.1,2.2-9.4,2.1c-1.1,0-1.7,1.4-0.9,2.1c1.2,1.2,2.6,2.2,4.1,3c1.5,0.8,3.1,1.4,4.8,0.9c1.5-0.5,0.9-2.9-0.7-2.4
				c-1.2,0.4-2.4-0.4-3.4-1c-1.1-0.6-2.1-1.4-3-2.3c-0.3,0.7-0.6,1.4-0.9,2.1c2.8,0.1,5.7-0.3,8.3-1.3c1.2-0.5,2.4-1.1,3.6-1.7
				c1.1-0.6,2.3-1.2,3.6-1.1c1.3,0.1,1.7,0.9,1.6,2.2c-0.1,1.1-0.6,1.9-1.7,2.3C78,59.9,76.7,60,75.4,60c-1.3,0-2.6-0.2-3.5-1.2
				C70.8,57.7,69,59.5,70.2,60.7L70.2,60.7z"></path>
		</g>
	</g>
	<g>
		<path class="st0" d="M33.8,70.1c3.9-1.2,7.9-2.4,11.8-3.6c0.7-0.2,1.5-0.5,1.9-1.1c0.7-1,0.2-2.3-0.4-3.4
			c-0.2-0.3-0.4-0.6-0.7-0.8c-0.5-0.3-1-0.1-1.6,0.1c-2.8,1-5.6,1.9-8.4,2.9c-1.3,0.5-2.7,0.9-4,1.5c-0.4,0.2-0.9,0.4-1.1,0.8
			c-0.6,0.9,0,2,0.6,2.9c0.2,0.3,0.4,0.6,0.7,0.8c0.3,0.2,0.8,0.1,0.9-0.2"></path>
		<g>
			<path class="st0" d="M34.2,71.3c3.4-1,6.8-2.1,10.2-3.1c1.4-0.4,3.1-0.7,4.1-1.8c1-1.2,0.9-2.8,0.3-4.1c-0.7-1.5-1.7-2.7-3.5-2.3
				c-1.7,0.4-3.3,1.1-4.9,1.7c-1.6,0.6-3.3,1.1-4.9,1.7c-0.8,0.3-1.5,0.5-2.3,0.8c-0.8,0.3-1.6,0.6-2.2,1.1c-1.5,1.3-0.9,3.3,0,4.7
				c0.4,0.6,0.9,1.2,1.6,1.4c0.9,0.2,1.7-0.2,2.2-0.9c0.9-1.3-1.3-2.6-2.2-1.3c0.4-0.6,0.9,0,0.5-0.5c-0.2-0.3-0.4-0.6-0.5-0.9
				c-0.2-0.6-0.1-0.7,0.4-1c1.3-0.6,2.8-1.1,4.2-1.6c1.5-0.5,3-1,4.5-1.6c0.7-0.2,1.4-0.5,2.1-0.7c0.4-0.1,0.8-0.3,1.2-0.4
				c0.2-0.1,0.7-0.3,0.9-0.3c0.3,0.1,0.6,1,0.7,1.3c0.1,0.4,0.2,0.8-0.2,1.1c-0.4,0.4-1.2,0.5-1.7,0.6c-0.7,0.2-1.4,0.4-2.1,0.6
				c-3,0.9-6.1,1.8-9.1,2.8C32,69.4,32.6,71.8,34.2,71.3L34.2,71.3z"></path>
		</g>
	</g>
	<g>
		<path class="st7" d="M71.2,86.1c0.8,3.4,2,6.6,3.4,9.7c0.4,1,0.9,2,1.6,2.9c0.7,0.8,1.8,1.5,2.9,1.4c1.2-0.1,2.2-0.9,2.9-1.8
			c1.7-2.2,2.2-5.2,2.4-8.1c0.2-2.5,0.3-5.1-0.3-7.5c-4.2,1-8.4,1.9-12.7,2.9"></path>
		<g>
			<path class="st7" d="M70,86.4c0.6,2.7,1.6,5.4,2.6,7.9c0.9,2.3,1.8,5.2,4.2,6.4c2.4,1.3,4.8,0,6.3-2c1.5-2,2-4.6,2.3-7
				c0.4-3.1,0.6-6.3-0.2-9.4c-0.2-0.7-0.9-1-1.5-0.9c-4.2,1-8.4,1.9-12.7,2.9c-1.6,0.4-0.9,2.8,0.7,2.4c4.2-1,8.4-1.9,12.7-2.9
				c-0.5-0.3-1-0.6-1.5-0.9c0.7,2.8,0.5,5.7,0.2,8.6C82.7,94,82.1,97,80,98.5c-2.6,1.8-4.1-2.6-4.8-4.3c-1.1-2.7-2.1-5.5-2.8-8.4
				C72.1,84.2,69.7,84.8,70,86.4L70,86.4z"></path>
		</g>
	</g>
	<g>
		<g>
			<path class="st6" d="M53.3,130.9c0.4,2.4,2.4,4.3,4.8,4.5c2.4,0.2,4.7-1.4,5.2-3.8c0.3-1.3,0.2-2.7-0.3-3.9
				c-0.2-0.6-0.9-1.1-1.5-0.9c-0.6,0.2-1.1,0.9-0.9,1.5c0.1,0.3,0.2,0.6,0.2,0.9c0,0.1,0.1,0.3,0.1,0.4c0-0.3,0,0.1,0,0.1
				c0,0.3,0,0.6,0,0.9c0,0.1,0,0.1,0,0c0,0.1,0,0.1,0,0.2c0,0.1,0,0.2-0.1,0.3c0,0.1-0.1,0.3-0.1,0.4c0.1-0.3-0.1,0.1-0.1,0.2
				c-0.1,0.1-0.2,0.2-0.2,0.4c0.2-0.2,0,0-0.1,0.1c-0.1,0.1-0.2,0.2-0.3,0.3c0.2-0.2-0.1,0.1-0.2,0.1c-0.1,0.1-0.2,0.1-0.4,0.2
				c0.3-0.1-0.1,0-0.1,0c-0.1,0-0.2,0.1-0.3,0.1c-0.1,0-0.1,0-0.2,0c0.2,0,0.2,0,0,0c-0.1,0-0.3,0-0.4,0c0,0-0.4,0-0.2,0
				c0.2,0-0.2-0.1-0.2-0.1c-0.1,0-0.3-0.1-0.4-0.1c0.3,0.1-0.1-0.1-0.2-0.1c-0.1-0.1-0.2-0.1-0.3-0.2c0,0-0.1-0.1-0.1-0.1
				c0.1,0.1,0.1,0.1,0,0c-0.1-0.1-0.2-0.2-0.3-0.3c0,0-0.3-0.4-0.2-0.2c-0.1-0.1-0.1-0.2-0.2-0.3s-0.1-0.2-0.2-0.3
				c0-0.1-0.1-0.1-0.1-0.2c0.1,0.1,0.1,0.1,0,0c-0.1-0.3-0.2-0.5-0.2-0.8c-0.1-0.6-0.9-1.1-1.5-0.9
				C53.5,129.6,53.2,130.2,53.3,130.9L53.3,130.9z"></path>
		</g>
	</g>
	<g>
		<path class="st4" d="M109.4,98.6c5,0.3,10-3,11.8-7.7c1.9-4.7,0.7-10.3-2.7-14.1c-1.8-2-4.7-3.6-7.2-2.6c-0.3,0.1-0.5,0.2-0.7,0.5
			c-0.2,0.3-0.1,0.7-0.1,1c0.8,7.4-0.2,15-2.8,22"></path>
		<g>
			<path class="st4" d="M109.4,101.1c4.4,0.2,8.8-1.8,11.6-5.2c3.1-3.6,4.1-8.3,3.3-12.9c-0.8-4.4-3.6-9-7.8-10.8
				c-2.1-0.9-4.8-1.2-6.9,0.2c-2.4,1.6-1.3,5.2-1.3,7.6c0.1,5.8-1,11.6-3,17.1c-0.5,1.3,0.5,2.7,1.8,3.1c1.4,0.4,2.6-0.5,3.1-1.8
				c1.4-3.8,2.3-7.7,2.8-11.7c0.2-1.9,0.4-3.9,0.4-5.8c0-1,0-1.9-0.1-2.9c0-0.7-0.4-2-0.2-2.6c-0.2,0.4-0.4,0.7-0.6,1.1
				c-0.2,0.2,0.1-0.1,0.2-0.1c0.2,0,0.5,0,0.8,0c0.5,0.1,1.1,0.3,1.5,0.6c1.1,0.6,2,1.6,2.7,2.7c1.5,2.3,2.2,5,1.9,7.7
				c-0.5,5.1-5.1,9-10.2,8.8C106.1,95.9,106.2,100.9,109.4,101.1L109.4,101.1z"></path>
		</g>
	</g>
	<g>
		<path class="st7" d="M37.6,92.9c0.8,4.7,2.8,9.1,5.8,12.8c0.6,0.8,1.4,1.5,2.3,1.7c1,0.1,2-0.5,2.5-1.3s0.8-1.9,1-2.8
			c0.8-4.8,0.8-9.8-0.2-14.6c-3.7,2.1-7.7,3.5-11.9,4.1c3.9-2.4,8.9-2.6,12.8-5.1"></path>
		<g>
			<path class="st7" d="M36.4,93.2c0.6,3.4,1.8,6.6,3.5,9.6c0.8,1.4,1.8,2.8,2.8,4c1,1.2,2.5,2.1,4.1,1.7c3.6-0.9,3.8-5.7,4.1-8.7
				c0.3-3.9,0.1-7.8-0.6-11.6c-0.2-0.8-1.2-1.1-1.8-0.8c-3.6,2-7.5,3.3-11.6,4c0.3,0.8,0.6,1.5,1,2.3c4-2.4,8.8-2.6,12.8-5.1
				c1.4-0.8,0.1-3-1.3-2.2c-4,2.4-8.8,2.7-12.8,5.1c-1.3,0.8-0.4,2.5,1,2.3c4.3-0.7,8.4-2.1,12.2-4.2c-0.6-0.2-1.2-0.5-1.8-0.8
				c0.6,3.1,0.8,6.2,0.6,9.4c-0.1,1.5-0.2,3-0.5,4.5c-0.2,1.1-0.5,3.1-1.9,3.3c-1.1,0.2-2.2-1.6-2.7-2.3c-0.8-1.1-1.5-2.2-2.1-3.4
				c-1.3-2.5-2.1-5.1-2.6-7.8C38.5,91,36.1,91.7,36.4,93.2L36.4,93.2z"></path>
		</g>
	</g>
	<g>
		<path class="st8" d="M55.4,75.1c-1.6,3.2-2.2,6.7-3.4,10.1c-1.4,4.1-3.7,7.9-4.3,12.3c-0.2,1.2-0.2,2.4,0.3,3.5
			c0.4,0.9,1,1.6,1.7,2.2c2.4,2.3,5.3,4.2,8.1,6c0.2,0.1,0.3,0.2,0.5,0.2c0.2,0,0.3-0.1,0.4-0.3c2.6-2.5,5.1-4.9,7.7-7.4
			c0.2-0.2,0.4-0.4,0.5-0.7c0.2-0.5,0.1-1.1-0.2-1.6c-0.6-1.2-1.5-2.2-2.4-3.2c-2.5-3.1-4.2-6.8-5.4-10.6c-1.2-3.8-2-7.8-2.9-11.7"></path>
		<g>
			<path class="st8" d="M54.3,74.5c-1.3,2.6-2,5.4-2.9,8.2c-0.8,2.7-1.9,5.2-3,7.8c-1.1,2.6-2.2,5.4-2.2,8.3c0,3,1.9,4.8,4,6.6
				c1.1,0.9,2.2,1.7,3.4,2.6c1.2,0.8,2.4,1.8,3.7,2.4c1.2,0.5,1.9-0.1,2.7-0.9c1.2-1.1,2.3-2.2,3.5-3.3c1.1-1.1,2.2-2.1,3.3-3.2
				c1-1,1.6-2,1.2-3.4c-0.3-1.2-1.2-2.2-1.9-3.1c-1-1.2-1.9-2.3-2.7-3.6c-3.5-5.8-4.7-12.7-6.2-19.2c-0.3-1.6-2.8-0.9-2.4,0.7
				c1.2,5.2,2.2,10.4,4.2,15.3c0.9,2.2,2,4.2,3.3,6.1c0.7,0.9,1.4,1.8,2.1,2.7c0.3,0.4,0.7,0.9,0.9,1.4c0.5,0.9-0.3,1.4-0.9,1.9
				c-1.9,1.8-3.8,3.7-5.8,5.5c-0.2,0.2-0.8,0.6-0.9,0.8c-0.1,0.1-0.1,0.1-0.2,0.2c0.6,0,0.8-0.1,0.4-0.2c-0.2-0.3-1.2-0.8-1.5-1
				c-1.1-0.7-2.2-1.5-3.2-2.2c-2-1.5-4.6-3.2-4.6-5.9c0-2.4,1-5,1.9-7.2c1-2.5,2.2-4.9,3-7.5c0.9-2.8,1.5-5.7,2.8-8.3
				C57.2,74.3,55,73,54.3,74.5L54.3,74.5z"></path>
		</g>
	</g>
</g>
<ellipse transform="matrix(0.9987 -5.035485e-02 5.035485e-02 0.9987 -4.405 2.4026)" class="st6" cx="45.5" cy="88.6" rx="2.7" ry="3"></ellipse>
<ellipse transform="matrix(0.9987 -5.035485e-02 5.035485e-02 0.9987 -4.0619 4.1351)" class="st6" cx="80" cy="82.7" rx="2.7" ry="3"></ellipse>
<g id="SvgjsG1004" class="st9">
	<g class="st10">
		<g>
			<path class="st11" d="M-74.6-216.2"></path>
		</g>
	</g>
	<g class="st10">
		<g>
			<path class="st11" d="M-420.8-355.3"></path>
		</g>
	</g>
	<g class="st10">
		<g>
			<path class="st11" d="M-420.8-355.3"></path>
		</g>
	</g>
	<g class="st10">
		<g>
			<path class="st12" d="M36.6-232.9c-10.4,15.6-17.2,33.2-21.4,51.3c-2.1,9-3.6,18.2-4.6,27.5c-0.9,9-1.3,18.2-0.2,27.2
				c1.1,8.8,3.4,17.6,7.8,25.3c3.9,6.9,9.3,12.8,15.5,17.7c13,10,29.4,14.9,45.6,14.9c19.1,0,37.7-6.3,54.2-15.4
				c7.8-4.3,15.6-9.3,21.4-16.1c5.8-6.9,9.1-15.5,10.9-24.2c3.3-16,1.6-32.8-4-48c-5.7-15.5-15.3-29.4-27.8-40.1
				c-12.9-11-28.4-18.6-44.8-22.8c-8.2-2.1-16.7-3.3-25.2-3.7c-4.2-0.2-8.5-0.1-12.7,0.1c-3.9,0.3-7.9,0.8-11.5,2.2
				c-3.4,1.3-6.4,3.3-8.6,6.3c-0.9,1.2,1.1,2.3,1.9,1.1c4.7-6.3,13.5-7.2,20.8-7.5c8.2-0.4,16.5,0.1,24.6,1.5
				c16.2,2.6,31.8,8.5,45.4,17.8c13.4,9.1,24.4,21.4,31.7,36c7.1,14.1,10.7,30.1,9.6,46c-0.6,8.2-2.3,16.7-5.8,24.2
				c-3.7,8.2-9.9,14.4-17.2,19.4c-7.5,5.1-15.7,9.4-24,12.8c-8.5,3.5-17.4,6.1-26.4,7.4c-16.5,2.3-33.5,0-48.2-8
				c-6.7-3.7-12.8-8.5-17.7-14.3c-5.4-6.4-9.1-14-11.3-22.1c-4.5-17.1-2.6-35.5,0.4-52.7c3.1-17.7,8.4-35.2,16.8-51.2
				c2.1-3.9,4.3-7.6,6.7-11.3C39.4-233,37.4-234.1,36.6-232.9L36.6-232.9z"></path>
		</g>
	</g>
	<g class="st10">
		<g>
			<path class="st12" d="M19.7-194c-7.7,5.3-14.9,11.2-21.4,17.8c-3.3,3.3-6.4,6.7-9.4,10.3c-1.3,1.6-2.7,3.3-3,5.5
				c-0.2,1.7,0.4,3.3,1.6,4.5c2.6,2.8,7,3.3,10.6,3.9c4.9,0.9,9.9,1.4,14.8,1.7c1.9,0.1,3.8,0.1,5.5-0.8c1.8-0.9,2.8-2.5,3.2-4.4
				c0.6-2.4,0.8-4.9,1.1-7.4c0.4-2.6,0.7-5.1,1.1-7.6c0.8-5.8,1.6-11.7,2.4-17.5c0.3-2.1,0.5-4.7-1.2-6.3c-1.4-1.2-3.5-1.4-4.8-0.1
				c-1,1,0.6,2.6,1.6,1.6c0.5-0.5,1.3-0.3,1.8,0.2c0.8,0.7,0.7,1.9,0.7,2.9c-0.1,2.2-0.6,4.4-0.9,6.6c-0.6,4.4-1.2,8.7-1.8,13.1
				c-0.6,4.4-1.1,8.7-1.8,13.1c-0.3,1.8-0.9,3.5-2.8,4.1c-1.6,0.5-3.3,0.4-5,0.3c-4.4-0.2-8.7-0.7-13-1.5c-3.1-0.5-7.2-0.9-9.6-3.1
				c-3.1-2.9,0.9-6.6,2.8-8.9c2.6-3,5.3-5.9,8.1-8.8c6.3-6.3,13.3-12.1,20.7-17.1C22-192.9,20.9-194.8,19.7-194L19.7-194z"></path>
		</g>
	</g>
	<g class="st10">
		<g>
			<path class="st12" d="M19.2-109.3c11.3,4.3,24.1,4.6,35.6,0.6c10.2-3.6,19.1-10.4,25.2-19.2c1.8-2.5,3.6-5.3,4-8.5
				c0.3-2.7-0.7-5.6-3.2-7c-1.3-0.7-2.3,1.1-1.1,1.9c2.6,1.7,5.2,3.4,7.7,5.1c1.2,0.8,2.3-1.1,1.1-1.9c-2.6-1.7-5.2-3.4-7.7-5.1
				c-0.4,0.6-0.8,1.3-1.1,1.9c2.3,1.3,2.4,4.2,1.7,6.4c-0.8,2.4-2.4,4.7-3.9,6.7c-2.9,4-6.4,7.5-10.3,10.4
				c-8.4,6.2-18.6,9.7-29.1,9.8c-6.3,0-12.5-1.1-18.3-3.3C18.4-112,17.8-109.8,19.2-109.3L19.2-109.3z"></path>
		</g>
	</g>
	<g class="st10">
		<g>
			<path class="st12" d="M44.6-221.9c-6.6,9.8-9.9,21.8-9.1,33.6c0.4,5.7,1.5,11.8,5.5,16.2c3.5,3.9,8.9,5.8,13.9,3.8
				c4.9-1.9,8.5-6.3,11-10.8c3-5.4,5.1-11.3,6.2-17.4c1.1-6,1.4-12.2,0.6-18.2c-0.8-5.5-3-10.9-7.6-14.4c-5-3.7-11.3-3.5-16.3,0
				c-5.5,3.8-8.2,10.1-10.8,16.1c-0.6,1.3,1.6,1.9,2.2,0.6c2-4.9,4.2-10,8.3-13.6c3.8-3.3,9-4.9,13.7-2.4c4.6,2.4,7,7.2,8,12.1
				c1.1,5.4,1,11.1,0.3,16.5c-0.8,5.6-2.4,11-4.7,16.1c-2.1,4.5-4.8,9.1-9,11.9c-4.2,2.8-9.2,2.5-13-0.9c-4-3.6-5.2-9.1-5.8-14.2
				c-1.2-11.9,2-24,8.7-33.9C47.4-221.9,45.4-223.1,44.6-221.9L44.6-221.9z"></path>
		</g>
	</g>
	<g class="st10">
		<g>
			<path class="st12" d="M38.7-169.6c-2.1,1.2-4.2,2.4-6.2,3.6c-0.5,0.3-0.7,1-0.4,1.5c0.3,0.5,1,0.7,1.5,0.4
				c2.1-1.2,4.2-2.4,6.2-3.6c0.5-0.3,0.7-1,0.4-1.5C39.9-169.8,39.2-170,38.7-169.6L38.7-169.6z"></path>
		</g>
	</g>
	<g class="st10">
		<g>
			<path class="st12" d="M52.8-163.3c0.3,2.4,0.6,4.7,0.9,7.1c0.1,0.6,0.5,1.1,1.1,1.1c0.5,0,1.2-0.5,1.1-1.1
				c-0.3-2.4-0.6-4.7-0.9-7.1c-0.1-0.6-0.5-1.1-1.1-1.1C53.4-164.4,52.7-164,52.8-163.3L52.8-163.3z"></path>
		</g>
	</g>
	<g class="st10">
		<g>
			<path class="st12" d="M66.2-164.1c1.3,2.2,2.7,4.4,4,6.7c0.3,0.5,1,0.7,1.5,0.4c0.5-0.3,0.7-1,0.4-1.5c-1.3-2.2-2.7-4.4-4-6.7
				c-0.3-0.5-1-0.7-1.5-0.4C66.2-165.3,65.9-164.6,66.2-164.1L66.2-164.1z"></path>
		</g>
	</g>
	<g class="st10">
		<g>
			<path class="st12" d="M40.2-202.1c2.5,1.6,5.3,3.3,8.3,3.2c1.5,0,2.8-0.5,4-1.3c0.7-0.4,1.3-1,2.1-1.2c0.3-0.1,1.1-0.3,1.3,0.1
				c0.1,0.2,0.2,0.4,0,0.6c-1.2,0.6-0.3,2.3,0.9,2.1c1.1-0.2,2.5-0.5,3.5,0c1.3,0.6,1.1,2.5,1.5,3.7c0.8,2.5,2.8,4.4,5.2,5.4
				c1.3,0.6,1.9-1.6,0.6-2.2c-1.4-0.6-2.6-1.6-3.2-3c-0.7-1.4-0.5-3-1.3-4.4c-1.4-2.5-4.5-2.3-6.9-1.8c0.3,0.7,0.6,1.4,0.9,2.1
				c1.3-0.7,1.6-2.4,0.8-3.7c-1-1.6-3.2-1.5-4.7-0.8c-1,0.5-1.8,1.2-2.8,1.7c-1,0.4-2.1,0.5-3.2,0.3c-2.2-0.4-4.1-1.6-5.9-2.8
				C40.1-204.8,38.9-202.9,40.2-202.1L40.2-202.1z"></path>
		</g>
	</g>
	<g class="st10">
		<g>
			<path class="st12" d="M37.7-197.9c-0.7,2.5-1.4,5.1-2.1,7.6c-0.4,1.4,1.8,2,2.2,0.6c0.8-2.8,1.7-5.6,2.5-8.3
				c-0.7-0.2-1.5-0.4-2.2-0.6c-1,6.4-2,12.7-2.9,19.1c-0.2,1.4,1.7,2,2.2,0.6c1.9-5.8,2.7-11.8,2.5-17.9c0-1.2-2-1.6-2.2-0.3
				c-1,6.7-1.2,13.4-0.5,20.1c0.1,1,1.5,1.6,2.1,0.6c3-5.7,4.7-11.9,5-18.4c0.1-1.3-1.9-1.5-2.2-0.3c-1.5,5.7-2,11.6-1.5,17.4
				c0.1,1.2,1.8,1.6,2.2,0.3c2-6.6,3.6-13.3,4.8-20.1c-0.7-0.1-1.5-0.2-2.2-0.3c-0.7,5.1-1.3,10.1-2,15.2c-0.2,1.3,1.8,1.4,2.2,0.3
				c1.3-4,2.7-8.1,4-12.1c0.5-1.4-1.7-2-2.2-0.6c-2,5.9-3.3,12-3.8,18.3c-0.1,1.4,1.8,1.4,2.2,0.3c2.2-5.9,4.1-11.8,5.5-17.9
				c-0.7-0.2-1.5-0.4-2.2-0.6c-1.2,5.8-2.4,11.7-3.6,17.5c-0.3,1.4,1.7,1.9,2.2,0.6c1.9-5.2,3.8-10.5,5.8-15.7
				c0.5-1.4-1.6-1.9-2.2-0.6c-1.7,4.2-2.6,8.6-2.8,13.1c-0.1,1.2,1.5,1.5,2.1,0.6c2.9-4.6,5-9.7,6.5-14.9c-0.7-0.2-1.5-0.4-2.2-0.6
				c-1.9,7-3.7,14-5.6,21.1c-0.4,1.4,1.6,1.9,2.2,0.6c2-5.1,4.1-10.2,6.2-15.3c0.5-1.2-1.5-2-2.1-0.9c-2.2,4.4-3.2,9.1-3.1,14
				c0.3-0.4,0.5-0.7,0.8-1.1c-2.6,0.8-5.4,0.2-7.5-1.6c-0.7-0.6-2-0.2-1.9,0.8c0.2,2.4,1.4,4.5,3.4,5.8c1,0.6,2-0.6,1.5-1.5
				c-0.1-0.2-0.2-0.4-0.3-0.6c-0.2,0.6-0.5,1.1-0.7,1.6c7.9-1.2,14.9-6.2,18.7-13.1c0.5-0.9-0.6-2.2-1.5-1.5
				c-6.4,4.6-12.8,9.2-19.3,13.8c-1.2,0.9-0.2,2.5,1.1,1.9C53.1-174,58-179.5,60-186c0.4-1.2-1.4-2-2.1-0.9
				c-1.2,2.1-2.4,4.1-3.6,6.2c0.7,0.3,1.4,0.6,2.1,0.9c1-3.1,1.4-6.4,1.2-9.8c-0.1-1.1-1.5-1.6-2.1-0.6c-1,1.8-1.5,3.6-1.7,5.6
				c-0.1,1.3,1.8,1.5,2.2,0.3c0.8-2.6,1.6-5.3,2.4-7.9c-0.7,0.1-1.4,0.2-2.1,0.3c0.5,0.7,0.9,1.3,1.4,2c0.6,0.8,1.7,0.7,2.1-0.3
				c0.3-0.9,0.7-1.9,1-2.8c-0.6,0.2-1.2,0.3-1.9,0.5c1.1,1.1,2,2.4,2.5,3.9c0.4,1.1,2.4,1,2.2-0.3c-0.1-0.7-0.2-1.4-0.2-2.1
				c-0.7,0.1-1.5,0.2-2.2,0.3c0.4,1.6,0.8,3.2,1.2,4.8c0.4,1.4,2.4,0.8,2.2-0.6c-0.2-1.2-0.4-2.5-0.6-3.7c-0.2-1.3-2.2-0.9-2.2,0.3
				c-0.2,5.7-2.4,11.8-7.8,14.5c-4.6,2.3-11,0.5-12.1-5c-0.7,0.2-1.5,0.4-2.2,0.6c1.8,6.8,9.8,11.1,16.3,8.2
				c3.2-1.4,5.6-4.2,6.8-7.4c1.3-3.7,0.5-7.3-1.2-10.8c-0.5-1.1-1.1-2.1-1.6-3.2c-0.3-0.6-0.6-1.2-0.8-1.8c-0.1-0.3-0.2-1.2-0.4-1.5
				c-0.2-0.1-0.3-0.1-0.5-0.2c0-0.2-0.1-0.5-0.1-0.8c-0.1-0.1-0.8-0.1-1-0.1c-0.7-0.1-1.4-0.2-2.1-0.3c-1.4-0.2-2.8-0.4-4.3-0.5
				c0.3,0.6,0.7,1.1,1,1.7c0.7-1.1,1.3-2.1,2-3.2s-0.9-2.4-1.8-1.4c-2.6,3.1-7.7,3.1-10.3,0.1c-1-1.1-2.5,0.5-1.6,1.6
				c3.4,3.9,10.1,3.9,13.5-0.1c-0.6-0.4-1.2-0.9-1.8-1.4c-0.7,1.1-1.3,2.1-2,3.2c-0.5,0.8,0.2,1.6,1,1.7c1.3,0.1,2.5,0.3,3.8,0.5
				c1.2,0.1,2.8,0.6,3.9,0.4c1.7-0.3,2.6-2.1,1.2-3.3c-1.5-1.2-3.1,0.1-3.2,1.8c-0.1,2,1.3,4.2,2.2,5.9c1,2,2.2,4.1,2.5,6.4
				c0.2,1.9-0.1,3.8-1,5.5c-1.7,3.4-5.1,5.9-9,5.7c-4.3-0.2-8.2-3.3-9.3-7.5c-0.4-1.4-2.5-0.8-2.2,0.6c1.4,6.4,8.8,9.1,14.5,6.8
				c6.8-2.8,9.6-10,9.9-16.9c-0.7,0.1-1.5,0.2-2.2,0.3c0.2,1.2,0.4,2.5,0.6,3.7c0.7-0.2,1.5-0.4,2.2-0.6c-0.4-1.6-0.8-3.2-1.2-4.8
				c-0.3-1.2-2.4-1-2.2,0.3c0.1,0.7,0.2,1.4,0.2,2.1c0.7-0.1,1.5-0.2,2.2-0.3c-0.7-1.9-1.7-3.5-3.1-4.9c-0.6-0.6-1.6-0.3-1.9,0.5
				c-0.3,0.9-0.7,1.9-1,2.8c0.7-0.1,1.4-0.2,2.1-0.3c-0.5-0.7-0.9-1.3-1.4-2c-0.5-0.8-1.8-0.7-2.1,0.3c-0.8,2.6-1.6,5.3-2.4,7.9
				c0.7,0.1,1.5,0.2,2.2,0.3c0.1-1.6,0.6-3.1,1.3-4.4c-0.7-0.2-1.4-0.4-2.1-0.6c0.2,3.1-0.1,6.2-1.1,9.2c-0.4,1.2,1.4,2,2.1,0.9
				c1.2-2.1,2.4-4.1,3.6-6.2c-0.7-0.3-1.4-0.6-2.1-0.9c-1.9,6.1-6.4,11-12.2,13.6c0.4,0.6,0.8,1.3,1.1,1.9
				c6.4-4.6,12.8-9.2,19.3-13.8c-0.5-0.5-1-1-1.5-1.5c-3.6,6.5-10,11-17.4,12.1c-0.8,0.1-1,1.1-0.7,1.6c0.1,0.2,0.2,0.4,0.3,0.6
				c0.5-0.5,1-1,1.5-1.5c-1.3-0.9-2.2-2.3-2.3-3.9c-0.6,0.3-1.3,0.5-1.9,0.8c2.7,2.3,6.3,3.2,9.7,2.2c0.5-0.1,0.8-0.6,0.8-1.1
				c-0.1-4.4,0.8-8.8,2.8-12.8c-0.7-0.3-1.4-0.6-2.1-0.9c-2,5.1-4.1,10.2-6.2,15.3c0.7,0.2,1.5,0.4,2.2,0.6c1.9-7,3.7-14,5.6-21.1
				c0.4-1.4-1.8-2-2.2-0.6c-1.4,5.1-3.5,9.9-6.2,14.4c0.7,0.2,1.4,0.4,2.1,0.6c0.2-4.3,1.2-8.5,2.8-12.5c-0.7-0.2-1.5-0.4-2.2-0.6
				c-1.9,5.2-3.8,10.5-5.8,15.7c0.7,0.2,1.5,0.4,2.2,0.6c1.2-5.8,2.4-11.7,3.6-17.5c0.3-1.4-1.8-2-2.2-0.6
				c-1.5,6.1-3.3,12.1-5.5,17.9c0.7,0.1,1.5,0.2,2.2,0.3c0.5-6,1.8-11.9,3.7-17.7c-0.7-0.2-1.5-0.4-2.2-0.6c-1.3,4-2.7,8.1-4,12.1
				c0.7,0.1,1.5,0.2,2.2,0.3c0.7-5.1,1.3-10.1,2-15.2c0.2-1.2-2-1.6-2.2-0.3c-1.2,6.8-2.8,13.5-4.8,20.1c0.7,0.1,1.5,0.2,2.2,0.3
				c-0.5-5.7,0-11.3,1.5-16.9c-0.7-0.1-1.5-0.2-2.2-0.3c-0.3,6-1.9,11.9-4.7,17.2c0.7,0.2,1.4,0.4,2.1,0.6c-0.6-6.5-0.5-13,0.4-19.5
				c-0.7-0.1-1.5-0.2-2.2-0.3c0.2,5.9-0.5,11.7-2.4,17.3c0.7,0.2,1.5,0.4,2.2,0.6c1-6.4,2-12.7,2.9-19.1c0.2-1.4-1.7-2-2.2-0.6
				c-0.8,2.8-1.7,5.6-2.5,8.3c0.7,0.2,1.5,0.4,2.2,0.6c0.7-2.5,1.4-5.1,2.1-7.6C40.2-198.7,38.1-199.3,37.7-197.9L37.7-197.9z"></path>
		</g>
	</g>
	<g class="st10">
		<g>
			<path class="st12" d="M60.1-243.9c1.7-2.4,5.2-3.5,8-2.4c2.9,1.1,4.6,4.3,4.3,7.4c-0.1,0.6,0.6,1.1,1.1,1.1
				c0.7,0,1.1-0.5,1.1-1.1c0.5-4.1-2.1-8.1-5.9-9.5c-3.8-1.4-8.2,0.2-10.5,3.4C57.3-243.8,59.3-242.7,60.1-243.9L60.1-243.9z"></path>
		</g>
	</g>
	<g class="st10">
		<g>
			<path class="st12" d="M34.5-238.6c-4.3-6.9-12.4-10.9-20.5-10.7c-8.3,0.2-15.5,5.1-19.1,12.6c-1.7,3.6-2.6,7.6-2.4,11.6
				c0.2,3.5,1.1,8.8,4.5,10.6c1.6,0.8,3.6,0.3,4.7-1.1c1.2-1.5,1.4-3.4,1.7-5.2c0.7-4.4,3-8.3,6.4-11.2c7.9-6.8,20.4-5,26.4,3.4
				c0.8,1.2,2.8,0.1,1.9-1.1c-4.7-6.7-13.4-10.1-21.4-8.3c-7.8,1.8-14.1,8.6-15.4,16.4c-0.2,1.5-0.3,3.8-1.6,4.9
				c-1.7,1.4-3.3-1.5-3.8-2.8c-1.3-3.6-1.5-7.6-0.7-11.3c1.7-7.6,7.3-14.1,15-15.8c8.4-1.9,17.8,1.8,22.4,9.1
				C33.3-236.3,35.3-237.4,34.5-238.6L34.5-238.6z"></path>
		</g>
	</g>
	<g class="st10">
		<g>
			<path class="st12" d="M35.2-235.5c-1-6.1,1.5-12.4,5.4-17.1c4.1-4.9,9.8-8.2,15.8-10.5c6-2.3,12.5-3.8,18.8-5
				c5.9-1.1,12.1-1.7,18.1-0.9c6.1,0.8,11.5,3.2,15.9,7.5c2.4,2.3,4.8,4.6,7.8,6.1c2.8,1.3,5.8,1.9,8.9,2.2c3.2,0.3,6.5,0.3,9.7,0.4
				c3.6,0.1,7.3,0.4,10.9,1c7.2,1,14.3,2.8,21,5.4c5.9,2.2,12.3,5.8,13.7,12.4c1.6,7.3-3.3,14.7-7.3,20.4c-0.6,0.8,0.4,1.9,1.3,1.6
				c13.7-3.5,29.5-3.1,41.4,5.5c9.5,7,14.9,20.7,10.8,32c-2.1,6-7.1,9.9-11.3,14.3c-4.1,4.2-7.6,9.4-6,15.6c0.9,3.5,3.1,6.5,5,9.6
				c1.9,3.2,3.4,6.5,4.5,10.1c2.1,7,2.3,14.6,0.6,21.7c-3.1,13.4-13.2,24.7-26,29.6c-1.6,0.6-3.2,1.1-4.8,1.5
				c-0.4,0.1-0.9,0.6-0.8,1.1c0.2,1.4,0.3,2.8,0.5,4.3c0.2,1.4,2.4,1.4,2.2,0c-0.2-1.4-0.3-2.8-0.5-4.3c-0.3,0.4-0.6,0.7-0.8,1.1
				c13.4-3.4,24.9-13.2,30.2-26.1c2.9-7,3.9-14.9,2.9-22.4c-0.5-3.7-1.4-7.4-2.8-10.9c-1.4-3.6-3.4-6.7-5.4-9.9
				c-1.9-3.1-3.6-6.5-2.9-10.2c0.5-3,2.4-5.5,4.3-7.7c4.2-4.7,9.6-8.5,12.3-14.4c5.3-11.4,1.1-25.7-7.8-34.1
				c-10.6-10.2-26.8-12-40.8-9.6c-1.8,0.3-3.7,0.7-5.5,1.2c0.4,0.6,0.9,1.1,1.3,1.6c3.9-5.5,8-12,7.9-19c-0.1-6.3-4.2-11.1-9.4-14.1
				c-5.9-3.4-12.9-5.3-19.5-6.8c-7.5-1.7-15.1-2.4-22.8-2.6c-3.4-0.1-6.8-0.1-10.1-0.9c-3.6-0.8-6.5-2.5-9.2-5
				c-2.5-2.3-4.8-4.6-7.7-6.3c-2.6-1.5-5.4-2.5-8.3-3.2c-6.3-1.4-12.9-1.1-19.2-0.2c-6.6,1-13.2,2.5-19.5,4.7
				c-7,2.4-14,5.9-18.9,11.6c-4.6,5.4-7.4,12.4-6.2,19.5C33.3-233.5,35.5-234.1,35.2-235.5L35.2-235.5z"></path>
		</g>
	</g>
	<g class="st10">
		<g>
			<path class="st12" d="M126.8-66.2c1.4,0,1.4-2.2,0-2.2S125.3-66.2,126.8-66.2L126.8-66.2z"></path>
		</g>
	</g>
	<g class="st10">
		<g>
			<path class="st12" d="M112.4-73.8c3.8,11.4,16.1,19.1,28,17.5c3.6-0.5,6.9-1.9,10.3-3.1c3.7-1.2,7.5-1.9,11,0.2
				c3,1.8,5.3,4.7,8.4,6.4c3.1,1.7,6.6,2.6,10.2,2.6c7.7-0.1,14.8-4.7,18-11.7c0.6-1.3-1.3-2.4-1.9-1.1c-2.8,5.9-8.5,10.1-15.1,10.5
				c-3.4,0.2-6.9-0.5-9.9-2.2c-2.9-1.6-5.1-4.2-7.9-6.1c-6.4-4.4-13.2-0.7-19.8,1.3c-5.5,1.7-11.5,1.1-16.7-1.4
				c-5.8-2.8-10.5-7.6-12.6-13.8C114.1-75.8,111.9-75.2,112.4-73.8L112.4-73.8z"></path>
		</g>
	</g>
	<g class="st10">
		<g>
			<path class="st12" d="M39.8-229.6c10.5-1.8,21.4-3.7,32-1.4c7.8,1.7,15.5,6.1,19.7,13c2.2,3.6,2.8,7.4,3.6,11.4
				c0.7,3.7,2.2,7.6,5.9,9.2c3.9,1.8,8.4,0.5,12.1-1.4c4-2.1,7.5-4.8,12.1-5.6c8.3-1.4,17.2,2.8,21.2,10.3c0.7,1.3,2.6,0.1,1.9-1.1
				c-3.6-6.8-10.9-11-18.5-11.6c-3.9-0.3-7.7,0.6-11.2,2.3c-4.2,2.2-8.2,5.6-13.2,5.7c-2.2,0.1-4.3-0.6-5.7-2.3
				c-1.3-1.6-1.9-3.7-2.3-5.7c-0.8-4-1.4-7.9-3.4-11.6c-4-7.1-11.5-11.9-19.2-14.2c-11.5-3.3-23.9-1.2-35.5,0.8
				C37.8-231.6,38.4-229.4,39.8-229.6L39.8-229.6z"></path>
		</g>
	</g>
	<g class="st10">
		<g>
			<path class="st12" d="M164.6-181.9c2.3-2.2,5.2-3.6,8.4-4.2c2.9-0.5,6.8-0.4,8.8,2c1.9,2.3,1.1,5.8-0.6,8c-2,2.6-5.1,4.1-7.9,5.5
				c-0.8,0.4-0.7,1.6,0,1.9c5.6,3,8.4,10.1,6.2,16.1c-2.1,6-9.1,9.6-15.2,8.3c-1.4-0.3-2,1.9-0.6,2.2c5.6,1.2,11.7-1,15.4-5.4
				c3.8-4.6,4.2-10.8,1.8-16.1c-1.4-3-3.6-5.5-6.5-7c0,0.6,0,1.3,0,1.9c3.4-1.7,7.2-3.7,9.2-7.1c1.7-2.9,2.1-6.9-0.1-9.7
				c-2.4-2.9-6.6-3.4-10.1-3c-3.9,0.5-7.6,2.2-10.5,4.9C161.9-182.5,163.5-181,164.6-181.9L164.6-181.9z"></path>
		</g>
	</g>
	<g class="st10">
		<g>
			<path class="st12" d="M-228.4,17.6c0.2,9.2-2.6,18.3-8.1,25.7c-0.3,0.4-0.1,1,0.2,1.4c0.9,0.9,2,0.8,3.1,0.2
				c0.7-0.3,2.4-2,2.8-0.8c0.2,0.8-0.2,1.8-0.3,2.6c-0.1,0.8,0,1.6,0.4,2.3c0.7,1.2,2.3,1.7,3.5,0.9c-0.6-0.4-1.1-0.8-1.6-1.3
				c-0.9,3.3,3.2,5.9,5.8,6.8c3.4,1.1,7.1,0.6,10.2-0.9c3.6-1.7,6.6-4.6,9.2-7.5c3-3.4,5.8-6.9,8.4-10.7c0.3-0.4,0.2-1-0.2-1.4
				c-0.7-0.7-1.4-1.3-2-2c-0.2,0.6-0.3,1.2-0.5,1.9c2.5-0.5,2.3-4,0.6-5.3c-1.4-1-3.1-0.8-4.7-0.8c-1.8,0-3.4-0.7-4.8-1.7
				c-5.6-3.7-8.1-11.4-15.1-13.3c-3.1-0.8-6.6-0.3-8.8,2.2c-0.9,1.1,0.6,2.7,1.6,1.6c2.1-2.4,5.7-2.3,8.4-1c3.1,1.6,5.3,4.6,7.4,7.3
				c2.1,2.6,4.5,5.1,7.7,6.3c1.6,0.6,3.2,0.7,4.9,0.8c0.8,0,2,0,2.4,0.7c0.2,0.3,0.3,0.9-0.1,1c-0.8,0.2-1.1,1.3-0.5,1.9
				c0.7,0.7,1.4,1.3,2,2c-0.1-0.5-0.1-0.9-0.2-1.4c-2.1,3.1-4.5,6.1-7,9c-2.2,2.5-4.5,5.1-7.3,7c-2.6,1.7-5.4,2.8-8.5,2.6
				c-1.4-0.1-2.8-0.5-4.1-1.2c-1-0.5-3-2-2.6-3.3c0.3-0.9-0.8-1.8-1.6-1.3c-0.7,0.5-0.4-1.6-0.4-1.8c0.1-0.6,0.2-1.2,0.2-1.9
				c-0.1-1.1-0.6-2.2-1.6-2.7c-0.9-0.4-1.9-0.2-2.8,0.3c-0.4,0.2-2,1.4-2.1,1.2c0.1,0.5,0.1,0.9,0.2,1.4c5.7-7.7,8.6-17.3,8.4-26.9
				C-226.2,16.1-228.4,16.1-228.4,17.6L-228.4,17.6z"></path>
		</g>
	</g>
	<path class="st13" d="M-29.5,49.5"></path>
	<g class="st14">
		<g>
			<g>
				<path class="st6" d="M39.8,109.9C38.9,99,38,88.1,37,77.3c-0.4-5.2-1.2-10.5-1.1-15.7c0.1-4.6,1.7-8.8,4.9-12.1
					c5.9-6,14.8-8.4,23-8.5c8.5-0.1,17,2.1,24.2,6.5c7.6,4.5,13.5,11.4,16.9,19.6c3.6,8.9,4.2,18.7,2.6,28.1
					c-1.6,9.7-5.3,19.2-10.1,27.8c-4.4,7.9-10.5,15.1-18.9,18.8c-8.2,3.6-18,3.7-25.3-1.9c-7.6-5.7-10.8-15.1-12.3-24.1
					c-0.4-2.5-0.7-5.1-1-7.6c-0.1-0.9-1.6-1-1.5,0c1.2,9.9,2.6,20.2,9,28.2c2.7,3.4,6.1,6.1,10.1,7.8c4.2,1.7,8.8,2.1,13.3,1.4
					c9.3-1.4,17.2-7,22.9-14.4c6.1-7.9,10.3-17.7,13.1-27.2c2.8-9.7,3.8-20.1,1.6-30c-2-9.1-6.7-17.5-13.9-23.6
					c-13-11-33.8-14.8-49.1-6.3c-3.6,2-6.8,4.8-8.9,8.3c-2.5,4.4-2.6,9.4-2.2,14.3c0.9,11.6,2,23.1,2.9,34.7
					c0.2,2.9,0.5,5.8,0.7,8.6C38.4,110.8,39.9,110.8,39.8,109.9L39.8,109.9z"></path>
			</g>
		</g>
		<g>
			<path class="st6" d="M54.8,75.7c-2.1,6.8-4.3,13.7-6.4,20.5c-0.5,1.4-0.9,3-0.5,4.4c0.4,1.5,1.8,2.6,3,3.6c2,1.6,4,3.2,5.9,4.7
				c0.3,0.3,0.7,0.6,1.2,0.5c0.4,0,0.8-0.3,1.1-0.6c2.1-2,4.2-4,6.3-6.1c0.5-0.5,1.1-1.1,1.2-1.8c0.2-0.9-0.4-1.8-0.9-2.6
				c-4.9-7.6-8.3-16.2-10-25.1"></path>
			<g>
				<path class="st6" d="M54,75.5c-1.9,6.1-3.8,12.2-5.7,18.4c-0.8,2.4-2.1,5.3-0.8,7.8c1.1,2.2,3.6,3.7,5.5,5.2
					c1.1,0.9,2.2,1.8,3.3,2.7c0.7,0.6,1.5,1,2.4,0.6c1-0.4,1.9-1.6,2.7-2.4c1.2-1.1,2.3-2.2,3.5-3.4c0.8-0.8,1.9-1.6,2.3-2.7
					c0.4-1.1,0.1-2.2-0.5-3.1c-1.4-2.4-2.9-4.7-4.1-7.2c-2.9-5.8-4.9-11.9-6.1-18.3c-0.2-0.9-1.6-0.6-1.5,0.4
					c0.9,4.8,2.2,9.4,4.1,13.9c0.9,2.2,1.9,4.3,3,6.3c0.5,1,1.1,2.1,1.7,3.1c0.6,1.1,1.6,2.2,2,3.3c0.5,1.4-1.1,2.4-2,3.3
					c-1,0.9-2,1.9-3,2.9c-0.4,0.4-0.8,0.8-1.2,1.2c-0.3,0.3-1,1.2-1.4,1.3c-0.7,0.2-1.5-0.7-2-1.1c-0.6-0.5-1.2-1-1.9-1.5
					c-1.7-1.4-4-2.7-5.2-4.5c-1.6-2.3,0.1-5.6,0.8-8c1.8-5.9,3.7-11.8,5.5-17.7C55.8,75,54.3,74.6,54,75.5L54,75.5z"></path>
			</g>
		</g>
		<g>
			<g>
				<path class="st6" d="M54.1,130.8c0.6,2.2,2.7,3.7,4.9,3.7c2.3,0.1,4.1-1.6,4.7-3.8c0.3-1.2,0.2-2.5-0.4-3.6
					c-0.5-0.8-1.8-0.1-1.3,0.8c0.7,1.3,0.4,3.1-0.7,4.2c-1.1,1.2-2.9,1.2-4.2,0.4c-0.8-0.5-1.3-1.2-1.6-2.1
					C55.3,129.5,53.8,129.9,54.1,130.8L54.1,130.8z"></path>
			</g>
		</g>
		<g>
			<g>
				<path class="st6" d="M69.9,76.7c0,6.8,1.2,13.5,3.9,19.8c1,2.3,2.5,4.8,5.3,5.2c2.4,0.3,4.1-1.6,5-3.6c1.1-2.8,1.4-6.1,1.6-9
					c0.2-3.3,0-6.6-0.5-9.9c-0.5-3.1-1.2-6.3-2.4-9.1c-1-2.3-2.9-4.2-5.6-4c-2.5,0.1-4.9,1.8-6.1,4c-1.7,3-1.5,6.7-1.2,10
					c0.1,1,1.6,1,1.5,0c-0.3-4.4-0.5-11,4.9-12.3c2.5-0.6,4.2,1,5.2,3.2c1.1,2.4,1.6,5.1,2.1,7.6c1,5.5,1,11.3-0.2,16.8
					c-0.4,1.8-1.1,4.5-3.3,4.9c-3,0.6-4.5-3.1-5.3-5.3c-2.2-5.8-3.3-11.9-3.3-18.1C71.5,75.7,70,75.7,69.9,76.7L69.9,76.7z"></path>
			</g>
		</g>
		<g>
			<g>
				<path class="st6" d="M36,83.7c0,6.8,1.2,13.5,3.9,19.8c1,2.3,2.5,4.8,5.3,5.2c2.5,0.3,4.1-1.6,5-3.6c1.1-2.8,1.4-6.1,1.6-9
					c0.2-3.3,0-6.6-0.5-9.9c-0.5-3.1-1.2-6.3-2.4-9.1c-1-2.3-2.9-4.2-5.6-4c-2.5,0.1-4.9,1.8-6.1,4c-1.7,3-1.5,6.7-1.2,10
					c0.1,1,1.6,1,1.5,0c-0.3-4.4-0.5-11,4.9-12.3c2.5-0.6,4.2,1,5.2,3.2c1.1,2.4,1.6,5.1,2.1,7.6c1,5.5,1,11.3-0.2,16.8
					c-0.4,1.8-1.1,4.5-3.3,4.9c-3,0.6-4.5-3.1-5.3-5.3c-2.2-5.8-3.3-11.9-3.3-18.1C37.5,82.7,36,82.7,36,83.7L36,83.7z"></path>
			</g>
		</g>
		<g>
			<g>
				<path class="st6" d="M34.5,92.1c5-1.1,9.8-2.7,14.5-4.8c0.9-0.4,0.1-1.7-0.8-1.3c-4.5,2-9.3,3.6-14.1,4.7
					C33.2,90.8,33.6,92.3,34.5,92.1L34.5,92.1z"></path>
			</g>
		</g>
		<g>
			<g>
				<path class="st6" d="M75.6,83.8c4.8-1.1,9.7-2.2,14.5-3.3c0.9-0.2,0.5-1.7-0.4-1.4c-6.5,1.4-12.9,2.7-19.4,4.1
					c-0.8,0.2-0.7,1.5,0.2,1.5c7.9-0.6,17.8-1.9,21-10.4c-0.5-0.1-1-0.3-1.4-0.4c-0.5,1.9-1,3.9-1.5,5.8c0.5,0.1,1,0.3,1.4,0.4
					c0.2-1.5,0.8-2.9,1.6-4.3c-0.4-0.2-0.9-0.5-1.3-0.8c-0.4,0.8-0.7,1.7-1.1,2.5c0.5,0.1,0.9,0.2,1.4,0.4c0-0.6,0.1-1.2,0.1-1.8
					c-0.5,0-1,0-1.5,0c0,1.2,0,2.3,0,3.5c0,1,1.4,0.9,1.5,0c0.2-1.7,0.4-3.4,0.6-5.2c0.1-0.7-0.8-0.9-1.3-0.5
					c-5,4.8-11.8,7.3-18.8,7c-1,0-1,1.5,0,1.5c7.3,0.3,14.5-2.5,19.8-7.5c-0.4-0.2-0.8-0.3-1.3-0.5c-0.2,1.7-0.4,3.4-0.6,5.2
					c0.5,0,1,0,1.5,0c0-1.2,0-2.3,0-3.5c0-1-1.4-1-1.5,0c0,0.6-0.1,1.2-0.1,1.8c-0.1,0.7,1.1,1.1,1.4,0.4c0.4-0.8,0.7-1.7,1.1-2.5
					c0.4-0.9-0.8-1.6-1.3-0.8c-0.9,1.4-1.5,3-1.7,4.6c-0.1,0.9,1.2,1.4,1.4,0.4c0.5-1.9,1-3.9,1.5-5.8c0.2-0.9-1.1-1.3-1.4-0.4
					c-2.9,7.8-12.5,8.8-19.6,9.3c0.1,0.5,0.1,1,0.2,1.5c6.5-1.4,12.9-2.7,19.4-4.1c-0.1-0.5-0.3-1-0.4-1.4
					c-4.8,1.1-9.7,2.2-14.5,3.3C74.2,82.6,74.6,84.1,75.6,83.8L75.6,83.8z"></path>
			</g>
		</g>
		<g>
			<g>
				<path class="st6" d="M45.4,85.9c-3.2,1.2-6.3,2.3-9.5,3.4c-0.9,0.3-0.5,1.7,0.4,1.4c4.5-0.9,8.7-2.5,12.8-4.6
					c0.8-0.4,0.2-1.5-0.6-1.4c-3.1,0.4-5.9,2-8.8,3.1c-2.7,1-5.8,1.6-8.4,0c-0.2,0.5-0.4,0.9-0.6,1.4c2,0.3,4,0.7,5.9,1
					c0.8,0.2,1.3-0.9,0.6-1.4c-1.9-1.3-4-2.2-6.3-2.7c-0.8-0.2-1.4,1-0.6,1.4c1.3,0.6,2.5,1.2,3.8,1.8c0.2-0.5,0.4-0.9,0.6-1.4
					c-1.3-0.2-2.5-0.3-3.8-0.5c-0.9-0.1-1.3,0.8-0.6,1.4c0.9,0.7,1.9,1.4,2.8,2.1c0.2-0.5,0.4-0.9,0.6-1.4c-0.8-0.3-1.5-0.6-2.3-0.9
					c-0.1,0.5-0.3,1-0.4,1.4c1.1,0.4,2.2,0.8,3.4,1.3c0.9,0.3,1.3-1.1,0.4-1.4c-1.1-0.4-2.2-0.8-3.4-1.3c-0.9-0.3-1.3,1.1-0.4,1.4
					c0.8,0.3,1.5,0.6,2.3,0.9c0.8,0.3,1.2-0.9,0.6-1.4c-0.9-0.7-1.9-1.4-2.8-2.1c-0.2,0.5-0.4,0.9-0.6,1.4c1.3,0.2,2.5,0.3,3.8,0.5
					c0.8,0.1,1.4-1,0.6-1.4c-1.3-0.6-2.5-1.2-3.8-1.8c-0.2,0.5-0.4,0.9-0.6,1.4c2.2,0.5,4.1,1.3,5.9,2.6c0.2-0.5,0.4-0.9,0.6-1.4
					c-2-0.3-4-0.7-5.9-1c-0.8-0.1-1.3,0.9-0.6,1.4c6.1,3.8,12.4-2.1,18.4-2.9c-0.2-0.5-0.4-0.9-0.6-1.4c-3.9,2.1-8.1,3.5-12.4,4.4
					c0.1,0.5,0.3,1,0.4,1.4c3.2-1.2,6.3-2.3,9.5-3.4C46.7,87,46.3,85.5,45.4,85.9L45.4,85.9z"></path>
			</g>
		</g>
		<g>
			<g>
				<path class="st6" d="M109.9,73.9c3.3-2.3,7.5-1,10,1.8c2.4,2.8,3.3,6.8,3,10.4c-0.7,7.8-7.4,13.8-15.2,13.3c-1-0.1-1,1.4,0,1.5
					c6.8,0.4,13.2-3.8,15.6-10.1c2.4-6,1.2-14.1-4.3-18c-2.9-2.1-6.9-2.4-9.8-0.3C108.4,73.2,109.2,74.5,109.9,73.9L109.9,73.9z"></path>
			</g>
		</g>
		<g>
			<g>
				<path class="st6" d="M39.1,57.1c6.1-2.5,12.2-5.1,18.2-7.6c3-1.3,6.1-2.5,9.1-3.8c2.8-1.1,5.9-2.8,9-2.2c2.7,0.5,4.3,2.7,5.5,5
					c1.2,2.2,2.1,4.5,3.4,6.6c2.6,4.2,5.9,8,9.8,11.1c4.3,3.4,9.3,6.1,14.6,7.6c0.9,0.3,1.3-1.2,0.4-1.4c-10.1-3-18.9-9.9-24.1-19
					c-2.2-3.8-3.6-9.2-8.1-10.9c-2.8-1.1-5.8-0.2-8.4,0.8c-3,1.2-6,2.5-9,3.7c-7,2.9-14,5.8-21,8.7C37.8,56,38.2,57.5,39.1,57.1
					L39.1,57.1z"></path>
			</g>
		</g>
		<g>
			<g>
				<path class="st6" d="M37.3,54.8c-3.5,3.9-9.7,4.7-14.3,2.3c-5-2.6-7.8-8.4-7.7-14c0.2-12.2,12.9-22.9,24.9-21.6
					c3.4,0.4,6.7,1.5,10.1,1.8c3.4,0.3,6.8,0,10.1-0.5c7.1-1.1,14.2-2.5,21.4-3c12.5-0.7,25.8,1.5,35.5,9.9
					c17.2,15,11,41.5,24.7,58.6c3.4,4.2,8.1,7.9,9.9,13.2c1.7,5.1-0.5,10.1-3.1,14.5c-2.5,4.3-5.6,8.5-6.7,13.4
					c-1.5,6.3,1.4,12.6,0.1,18.8c-0.5,2.4-1.7,5-3.8,6.5c-2.4,1.8-5.1,1.2-7.7,0.2c-2.5-1-4.9-2-7.6-1.5c-2.3,0.4-4.4,1.7-6.3,3.1
					c-2.1,1.4-4.1,3.1-6.5,4c-3.3,1.3-6.7,0.6-9.9-0.4c-4.8-1.4-11.8-3.5-12.7-9.4c-0.3-2.3,0.3-4.7,2.4-5.8
					c0.8-0.5,0.1-1.8-0.8-1.3c-4.4,2.4-3.9,8.6-1,12c1.9,2.2,4.6,3.5,7.3,4.5c3,1.1,6.2,2.2,9.5,2.5c3.1,0.3,5.8-0.6,8.4-2.2
					c2.3-1.4,4.4-3.2,6.8-4.5c2.7-1.4,5.2-1.4,8.1-0.4c2.7,1,5.4,2.4,8.3,1.5c5-1.4,7.2-7.4,7.2-12.1c0-3.7-0.8-7.3-0.9-11
					c0-3.2,0.8-6.2,2.2-9.1c2.4-4.8,5.9-9.1,7.7-14.2c1.9-5.4,0.7-10.6-2.7-15.2c-1.7-2.2-3.7-4.3-5.5-6.4c-2-2.2-3.7-4.7-5.1-7.3
					c-2.8-5.2-4.3-11-5.6-16.8c-2.5-11-4.1-22.8-11.3-32c-8-10.2-21.1-14.5-33.7-14.9c-7.6-0.3-15.2,0.7-22.7,2
					c-3.8,0.7-7.6,1.4-11.4,1.6c-4,0.2-7.7-0.6-11.7-1.4c-6.5-1.3-12.9,0-18.4,3.8c-4.9,3.4-8.9,8.6-10.4,14.4
					c-1.4,5.5-0.3,11.4,3.3,15.9c3.4,4.3,9,6.2,14.4,4.9c2.4-0.6,4.6-1.8,6.3-3.7C39,55.1,38,54,37.3,54.8L37.3,54.8z"></path>
			</g>
		</g>
		<g>
			<g>
				<path class="st6" d="M27.2,60.2c-4.6,1.1-8.5,4.5-9.9,9.1c-0.8,2.4-0.8,5-0.3,7.4c0.3,1.2,0.8,2.4,1.4,3.5
					c0.8,1.4,1.7,2.8,1.9,4.5c0.2,3-1.8,5.7-3.5,7.9c-1.7,2.1-3.5,4.1-5.1,6.4c-2.9,4.1-4.8,9.6-2.6,14.4c1.2,2.6,3.4,4.5,3.6,7.5
					c0.2,2.9-1.2,5.7-2.6,8.2c-2.5,4.4-4.9,8.7-3.6,13.9c1.1,4.5,4.6,8.1,9.1,9.2c2.3,0.6,4.7,0.6,7-0.1c2.5-0.7,4.4-2.8,6.9-3.4
					c2.9-0.7,4.8,2.4,6.8,3.9c1.7,1.2,3.8,1.7,5.8,1.6c4.2-0.2,8.2-2.7,9.7-6.7c0.3-0.9-1.1-1.3-1.5-0.4c-1.3,3.6-5.1,5.7-8.8,5.6
					c-1.9,0-3.7-0.7-5.1-1.9c-1.5-1.3-2.9-3-4.9-3.5c-2.1-0.5-4.1,0.6-5.8,1.7c-2.1,1.3-4.3,2.2-6.8,2.2c-4.9,0-9.2-3.2-10.7-7.9
					c-1.7-5.2,1.1-9.5,3.5-13.9c2.4-4.3,3.7-9,0.9-13.4c-1.4-2.2-2.8-4.1-2.9-6.8c-0.1-2.6,0.7-5.1,1.9-7.3c2.6-4.6,7-8,9.2-12.8
					c1.1-2.3,1.4-4.8,0.3-7.2c-0.6-1.4-1.5-2.6-2-4c-0.5-1.4-0.8-2.8-0.8-4.3c0-5.7,4-10.6,9.5-11.9C28.5,61.4,28.1,60,27.2,60.2
					L27.2,60.2z"></path>
			</g>
		</g>
		<g>
			<g>
				<path class="st6" d="M115.4,98.2c1.8,0.5,2.8,2.9,1.7,4.5c-0.5,0.7-1.4,1.2-2.3,1.3c-0.9,0.1-1.8-0.3-2.4-1
					c-0.7-0.9-0.9-2-0.5-3c0.1-0.4-0.2-0.8-0.5-0.9c-0.4-0.1-0.8,0.1-0.9,0.5c-1,2.7,1.1,5.8,3.9,5.9c1.4,0.1,2.8-0.6,3.7-1.6
					c0.9-1.1,1.2-2.5,0.9-3.9c-0.4-1.5-1.6-2.8-3.1-3.2C114.9,96.5,114.5,97.9,115.4,98.2L115.4,98.2z"></path>
			</g>
		</g>
		<g>
			<g>
				<path class="st6" d="M115.9,106.1c-0.2,1.2-0.5,2.3-0.7,3.5c-0.1,0.4,0.1,0.8,0.5,0.9c0.4,0.1,0.8-0.1,0.9-0.5
					c0.5-1.7,1-3.4,1.5-5.1c-0.5-0.1-1-0.1-1.5-0.2c0.1,1.8,0.5,3.6,1.4,5.2c0.4-0.3,0.8-0.6,1.2-0.9c-1.3-1.2-2.6-2.4-3.9-3.6
					c-0.1,0.4-0.2,0.8-0.3,1.2c1.6-0.4,3.2-0.7,4.8-1.1c-0.2-0.4-0.5-0.8-0.7-1.2c-1.7,2-3.3,4.1-4.9,6.1c-0.2,0.3-0.3,0.8,0,1.1
					c0.3,0.3,0.8,0.3,1.1,0c1.7-2,3.3-4.1,4.9-6.1c0.2-0.3,0.3-0.6,0.1-0.9c-0.2-0.3-0.5-0.4-0.8-0.3c-1.6,0.4-3.2,0.7-4.8,1.1
					c-0.5,0.1-0.7,0.9-0.3,1.2c1.3,1.2,2.6,2.4,3.9,3.6c0.6,0.6,1.6-0.2,1.2-0.9c-0.7-1.4-1.1-2.9-1.2-4.4c0-0.8-1.2-1-1.5-0.2
					c-0.5,1.7-1,3.4-1.5,5.1c0.5,0.1,1,0.3,1.4,0.4c0.2-1.2,0.5-2.3,0.7-3.5c0.1-0.4-0.1-0.8-0.5-0.9
					C116.5,105.5,116,105.7,115.9,106.1L115.9,106.1z"></path>
			</g>
		</g>
		<g>
			<g>
				<path class="st6" d="M33.5,70.9c3.6-1.1,7.2-2.2,10.8-3.2c1.3-0.4,3-0.6,3.9-1.8c0.7-0.9,0.6-2.2,0-3.2c-1.7-2.9-5.5-1.7-8-1
					c-1.8,0.5-3.6,1-5.3,1.5c-1.3,0.4-2.7,0.8-3.8,1.7c-1.9,1.5-2.6,5.2,0.1,6.4c0.9,0.4,1.6-0.9,0.8-1.3c-0.8-0.3-1.1-1.1-1-2
					c0.1-1,0.8-1.8,1.6-2.3c1-0.6,2-0.9,3.1-1.2c1.3-0.4,2.7-0.7,4-1.1c1.2-0.3,2.5-0.8,3.7-1c1.2-0.2,2.5-0.2,3.4,0.7
					c0.7,0.9,0.6,1.9-0.4,2.3c-1.2,0.5-2.6,0.8-3.8,1.2c-3.1,0.9-6.2,1.9-9.4,2.8C32.2,69.8,32.6,71.2,33.5,70.9L33.5,70.9z"></path>
			</g>
		</g>
		<g>
			<g>
				<path class="st6" d="M70,60.9c2.4,1.6,5.4,2.1,8.2,1.8c2.2-0.2,4.8-1.1,5.9-3.2c1.2-2.2,0-4.7-1.9-6c-2.4-1.7-5.4-1.3-8-0.2
					c-3.3,1.4-6.3,4-10,4.1c-0.5,0-0.9,0.5-0.7,1c1.3,3.5,5.2,5.5,8.8,4.5c0.9-0.3,0.5-1.7-0.4-1.5c-2.8,0.8-5.9-0.7-6.9-3.4
					c-0.2,0.3-0.5,0.6-0.7,1c3.3,0,6-1.8,8.8-3.3c2.7-1.5,6.4-2.9,9-0.3c1,1,1.5,2.4,0.8,3.7c-0.6,1.1-1.9,1.7-3,2
					c-2.9,0.8-6.4,0.5-8.9-1.2C69.9,59.1,69.2,60.4,70,60.9L70,60.9z"></path>
			</g>
		</g>
	</g>
</g>
<g id="SvgjsG1003">
</g>
<g id="SvgjsG1002">
</g>
<g id="SvgjsG1001">
</g>
<g id="SvgjsG1000">
</g>
</svg><style>@media (prefers-color-scheme: light) { :root { filter: none; } }
</style></svg>