<?xml version="1.0" encoding="utf-8"?>
<!-- Generator: Adobe Illustrator 25.4.1, SVG Export Plug-In . SVG Version: 6.00 Build 0)  -->
<svg version="1.1" id="Capa_1" xmlns="http://www.w3.org/2000/svg" xmlns:xlink="http://www.w3.org/1999/xlink" x="0px" y="0px"
	 viewBox="0 0 148 142" style="enable-background:new 0 0 148 142;" xml:space="preserve">
<style type="text/css">
	.st0{fill:#A1AED9;}
	.st1{fill:#21AB6C;}
	.st2{fill:#F18C6C;}
	.st3{fill:#E6371C;}
	.st4{fill:#A1AED9;stroke:#A1AED9;stroke-miterlimit:10;}
</style>
<g>
	<g>
		<path class="st3" d="M79.7,76c-17-0.6-33.8-3.8-49.9-9.2c-3.4-1.1-6.7-2.4-9.6-4.5s-5.1-5.3-5.3-8.9c-0.2-4.1,2.3-8,5.8-10.2
			s7.8-2.7,11.9-2.5C42.2,41.3,51,46,58.2,52.2S71,66.1,76.7,73.7"/>
		<g>
			<path class="st3" d="M79.7,73.5c-10.4-0.4-20.7-1.7-30.9-4c-5.1-1.1-10.2-2.5-15.2-4.1c-4.3-1.3-9.1-2.6-12.5-5.6
				c-2.8-2.5-4.6-6.1-3.1-9.8c1.6-4,5.7-6,9.8-6.6c8.9-1.3,18.1,2.8,25.1,7.9c8.7,6.3,15.2,15.2,21.5,23.8c0.8,1.1,2.2,1.6,3.4,0.9
				c1.1-0.6,1.7-2.3,0.9-3.4c-6.3-8.5-12.7-17.3-21.2-23.9c-8-6.3-18.2-11.1-28.6-10.3c-5.1,0.4-10.2,2.2-13.5,6.3
				c-3.2,4.1-4,9.2-1.7,13.9c2.3,4.8,7,7.6,11.7,9.4c5.1,2.1,10.6,3.6,15.9,5C54,76.1,66.8,78,79.7,78.5
				C82.9,78.6,82.9,73.6,79.7,73.5L79.7,73.5z"/>
		</g>
	</g>
	<g>
		<path class="st3" d="M68.4,81.3c10.3-13.5,22.6-25.5,36.2-35.5c2.9-2.1,5.8-4.2,9.2-5.2s7.3-1.1,10.3,0.8c3.5,2.2,5.2,6.5,5,10.6
			c-0.3,4.1-2.2,7.9-4.8,11.1c-5.9,7.4-14.8,11.9-24,14.2C91,79.6,81.5,79.8,72,80"/>
		<g>
			<path class="st3" d="M70.5,82.5c5.9-7.8,12.6-15.1,19.8-21.7c3.6-3.3,7.3-6.5,11.2-9.6c3.7-2.9,7.7-6.3,12.2-8
				c3.7-1.4,8.5-1.5,11.1,2c2.4,3.2,2.2,7.6,0.7,11.2c-3.4,8-11.6,13.5-19.4,16.4C95.2,77,83.5,77.3,72,77.5c-3.2,0.1-3.2,5.1,0,5
				c11.4-0.3,23.1-0.6,33.9-4.3c9.3-3.2,18.6-9.1,23.2-18c2.3-4.5,3.3-9.8,1.4-14.6c-2-5-6.4-8.1-11.9-8.3
				c-5.5-0.1-10.5,2.7-14.8,5.9c-4.4,3.2-8.6,6.6-12.7,10.1c-9.2,8-17.6,17-25,26.7c-0.8,1.1-0.2,2.8,0.9,3.4
				C68.4,84.2,69.7,83.6,70.5,82.5L70.5,82.5z"/>
		</g>
	</g>
	<g>
		<path class="st3" d="M80.4,68.8c0.9,16.9-0.7,34-4.6,50.5c-0.8,3.5-1.8,6.9-3.6,9.9c-1.9,3-4.8,5.5-8.3,6
			c-4.1,0.6-8.2-1.6-10.7-4.9c-2.5-3.3-3.4-7.5-3.6-11.6c-0.3-9.5,3.6-18.7,9.1-26.4S71.4,78.3,78.5,72"/>
		<g>
			<path class="st3" d="M77.9,68.8c0.6,10.4,0.2,20.8-1.1,31.2c-0.6,5.2-1.6,10.3-2.7,15.4c-1,4.6-1.9,9.6-4.6,13.4
				c-2.2,3.1-5.8,4.9-9.5,3.7c-3.9-1.3-6.3-5-7.2-8.8c-2.2-8.8,0.9-18.3,5.4-25.8c5.6-9.4,14-16.8,22.1-24.1
				c2.4-2.1-1.1-5.7-3.5-3.5c-8,7.1-16,14.4-21.8,23.4c-5.6,8.6-9.1,19.2-7.3,29.5c0.8,5,3.3,9.6,7.6,12.4c4.2,2.8,9.5,3,13.8,0.4
				c4.4-2.8,6.9-7.5,8.3-12.4c1.6-5.3,2.6-10.9,3.5-16.4c2.1-12.7,2.8-25.6,2.2-38.5C82.8,65.6,77.8,65.5,77.9,68.8L77.9,68.8z"/>
		</g>
	</g>
	<g>
		<path class="st3" d="M77.6,79.9C68.9,65.3,62.3,49.5,58,33.1c-0.9-3.4-1.7-7-1.5-10.5s1.7-7.1,4.5-9.3c3.3-2.4,8-2.4,11.7-0.7
			s6.5,5,8.6,8.6c4.7,8.2,5.6,18.2,4.3,27.6s-4.6,18.4-7.9,27.3"/>
		<g>
			<path class="st3" d="M79.8,78.6c-5.1-8.5-9.5-17.5-13.1-26.7c-1.8-4.7-3.4-9.4-4.8-14.2c-1.4-4.8-3.1-9.8-2.8-14.8
				c0.2-3.7,2.1-7.6,6-8.6c3.9-1,7.8,0.7,10.5,3.4c6.4,6.3,8.4,16.2,8.2,24.8c-0.3,11.4-4.4,22.4-8.3,33c-0.5,1.3,0.5,2.7,1.7,3.1
				c1.4,0.4,2.6-0.5,3.1-1.7c3.9-10.5,7.8-21.3,8.4-32.6c0.5-10-1.6-20.8-8.2-28.6c-3.2-3.8-7.8-6.5-12.9-6.6
				c-5.1-0.1-9.7,2.7-11.9,7.3c-2.4,5.1-1.8,10.6-0.5,15.9c1.3,5.3,2.9,10.6,4.7,15.8c4.1,11.6,9.2,22.8,15.6,33.3
				C77.1,83.9,81.5,81.4,79.8,78.6L79.8,78.6z"/>
		</g>
	</g>
	<g>
		<path class="st3" d="M71.3,78.1c16.9,1.2,33.7,4.9,49.6,10.8c3.3,1.2,6.7,2.6,9.4,4.8c2.8,2.2,4.9,5.5,5,9c0.1,4.1-2.6,7.9-6.2,10
			c-3.6,2-7.9,2.5-11.9,2.1c-9.4-0.9-18.1-5.9-25.1-12.3c-7-6.4-12.4-14.3-17.8-22.1"/>
		<g>
			<path class="st3" d="M71.3,80.6c10.3,0.7,20.5,2.4,30.5,5c5,1.3,10,2.8,14.9,4.5c4.3,1.5,9,2.9,12.5,6c2.9,2.6,4.7,6.4,2.9,10.1
				c-1.8,3.8-5.8,5.7-9.8,6.2c-8.8,1-17.8-3.1-24.6-8.4c-8.7-6.7-15-15.9-21.2-24.8c-0.8-1.1-2.2-1.6-3.4-0.9
				c-1.1,0.6-1.7,2.3-0.9,3.4c6.1,8.8,12.3,17.9,20.7,24.8c7.8,6.4,17.6,11.4,28,11c5.1-0.2,10.3-1.9,13.7-5.9c3.3-4,4.2-9.2,2-14
				c-2.2-4.9-7-7.8-11.8-9.8c-5.1-2.1-10.4-3.9-15.7-5.4c-12.3-3.6-24.9-5.9-37.7-6.8c-1.3-0.1-2.5,1.2-2.5,2.5
				C68.8,79.5,70,80.5,71.3,80.6L71.3,80.6z"/>
		</g>
	</g>
	<g>
		<path class="st3" d="M82,77.1c-13.7,10.1-28.8,18.1-44.8,23.8c-3.3,1.2-6.8,2.3-10.3,2.4c-3.5,0.1-7.3-1-9.6-3.7
			c-2.7-3.1-3.2-7.7-1.8-11.6c1.4-3.9,4.4-7,7.7-9.3c7.8-5.4,17.6-7.2,27.1-6.8s18.7,2.9,27.9,5.3"/>
		<g>
			<path class="st3" d="M80.7,74.9c-8,5.9-16.5,11-25.3,15.5c-4.4,2.2-8.9,4.2-13.5,6.1c-4.5,1.8-9.3,4-14.2,4.3
				c-3.8,0.3-8.2-0.9-9.9-4.7c-1.6-3.6-0.4-7.7,1.9-10.8c5.2-7,15-10.1,23.4-10.8c11.7-1,23.2,2.1,34.3,5.1c3.1,0.8,4.4-4,1.3-4.8
				c-11-2.9-22.3-6-33.8-5.4c-10,0.5-20.9,3.6-27.8,11.2c-3.3,3.6-5.5,8.4-5,13.4c0.6,5.2,3.8,9.2,8.7,11c5.1,1.8,10.6,0.6,15.6-1.1
				c5.2-1.8,10.3-3.9,15.3-6.2c11-5,21.6-11.2,31.4-18.4c1.1-0.8,1.6-2.2,0.9-3.4C83.5,74.8,81.8,74.1,80.7,74.9L80.7,74.9z"/>
		</g>
	</g>
</g>
</svg>
