<svg xmlns="http://www.w3.org/2000/svg" xmlns:xlink="http://www.w3.org/1999/xlink" viewBox="0 0 168 192.11"><defs><style>.cls-1{isolation:isolate;}.cls-2{fill:#422918;}.cls-3{fill:#fcea0d;}.cls-4{fill:#d9d9d9;}.cls-5{fill:#b1b1b1;}.cls-6{fill:#f2a9a9;}.cls-7{fill:#e8401b;}.cls-8{fill:#1d1d1b;}.cls-9{fill:#fff;}.cls-10{fill:#e5332a;}.cls-11{mix-blend-mode:hard-light;opacity:0.45;}.cls-12{fill:none;stroke:#1d1d1b;stroke-miterlimit:10;stroke-width:2px;}</style><image id="image" width="263" height="265" xlink:href="../codeCircle.png"/></defs><g class="cls-1"><g id="Capa_1" data-name="Capa 1"><g id="Capa_13" data-name="Capa 13"><path class="cls-2" d="M78.4,40.44c-10.4,5.4-21.1,10.8-32.6,12.9-6.1,1.1-13.7.6-16.6-4.9-2.4-4.6-.1-10.2,2.9-14.5,2.5-3.6,5.9-7.1,10.3-7.8,4.7-.8,9.1,1.8,13.8,2.5,7.1,1,13.9-2.5,20.9-4.2,12-2.9,24.7-.6,36.8,2.1,3.4.8,6.9,1.5,10,3.3,7.4,4.3,10.7,13.2,11.9,21.6s1.1,17.2,4.2,25.2c3.6,9.4,11.2,16.6,16.9,24.9a13.29,13.29,0,0,1,2.3,4.8c.9,4.9-3.1,9.2-6,13.2a32.68,32.68,0,0,0-5.4,23.9c.7,3.9,1.8,8.5-1,11.3-2.1,2.1-5.6,1.9-8.4,1.1s-5.7-2.2-8.6-1.9c-6.3.4-10.4,7.6-16.7,8.8-4.4.8-8.8-1.5-12.2-4.3s-6.3-6.5-6-10.7c.3-3.9,3.3-7,5.9-9.9A78.32,78.32,0,0,0,120.6,84c-.2-6.4-1.5-13.4-6.5-17.4a34.45,34.45,0,0,0-5.3-3,45.45,45.45,0,0,1-16.1-14.4c-1.5-2.2-2.8-4.5-4.8-6.2s-4.9-2.9-7.3-1.8"/><path class="cls-2" d="M75.9,36.14c-4,2-8,4.1-12.2,6-1,.5-2,.9-2.9,1.3-.1,0-1,.4-.5.2s-.2.1-.2.1c-.6.3-1.3.5-1.9.8-2.1.8-4.1,1.5-6.2,2.2s-4.4,1.2-6.6,1.7l-1.4.3a.9.9,0,0,0-.5.1c-.9.2.2,0,.3,0-.8,0-1.7.2-2.5.2a19.27,19.27,0,0,1-2.4-.1,1.7,1.7,0,0,1-.7-.1c-.6,0,.5,0,.5.1s-1.4-.3-1.5-.3l-1.1-.3a1.69,1.69,0,0,1-.5-.2c-.6-.2.9.5.3.1a9.29,9.29,0,0,0-1-.5c-.2-.1-.3-.2-.5-.3-.6-.4.3.1.3.2a2.85,2.85,0,0,0-.8-.7c-.8-.8.3.6-.1-.1a7.46,7.46,0,0,1-.7-1.2c0-.1.3.9.1.3l-.3-.9c0-.1-.1-.8,0-.1s0-.1,0-.3a5.63,5.63,0,0,1,0-1.3s-.2,1,0,.4c0-.3.1-.5.1-.8.1-.5.3-1,.4-1.5s.6-1.4.2-.5c.2-.4.4-.9.6-1.3a26.06,26.06,0,0,1,1.7-2.8,4.44,4.44,0,0,1,.8-1.1l.3-.3c.6-.7,1.3-1.4,2-2.1.2-.2.4-.3.6-.5s.6-.5.1-.1.6-.4.7-.5,1.3-.8,1.3-.7l-.3.1.9-.3a4.33,4.33,0,0,0,.5-.1c.2,0,.9-.1.3-.1h1.1a2.77,2.77,0,0,1,.9.1c-.1,0-.8-.1-.2,0a8.47,8.47,0,0,1,1.7.4c4.6,1.1,8.9,2.7,13.7,2.3S69.5,32,74,30.64a50.56,50.56,0,0,1,6.7-1.7l1.6-.3c-.9.1.5-.1.8-.1,1.2-.1,2.3-.2,3.5-.2,2.4-.1,4.7,0,7.1.1l3.3.3c.6.1,1.1.1,1.7.2s-.1,0-.1,0c.4.1.8.1,1.2.2,4.6.7,9.2,1.7,13.8,2.7,1,.2,2,.5,3,.7.6.2,1.1.3,1.7.5.2.1.4.1.6.2s1.1.4.2.1a13,13,0,0,1,2.6,1.4,8.65,8.65,0,0,1,1,.7c.5.3-.3-.2-.3-.2s.6.5.7.6c.6.5,1.2,1.2,1.8,1.8.2.2.3.4.5.5.4.4-.2-.3-.2-.3,0,.2.8,1.1.9,1.3a15.92,15.92,0,0,1,1.3,2.2l.6,1.2a4.88,4.88,0,0,0,.3.7c-.1,0-.4-1-.1-.2a44.22,44.22,0,0,1,2.7,10.7h0c0,.2.1.5.1.7.1.5.1,1.1.2,1.6.1,1.2.2,2.4.4,3.7q.3,3.75.9,7.5a49.72,49.72,0,0,0,3.6,13.6,50.62,50.62,0,0,0,6.3,10.4c1.4,1.9,2.9,3.8,4.4,5.6.6.8,1.2,1.5,1.8,2.3l.9,1.2c.1.2.3.3.4.5-.6-.8,0,0,.1.1,1.2,1.7,2.5,3.3,3.6,5.1.2.4.5.8.7,1.3-.4-.9,0,.2.1.6.2.6-.1-.3,0-.4v.7c0,.1-.1.7,0,.7-.1-.2.2-1,0-.2-.1.4-.3.8-.4,1.2-.2.7.4-.8.1-.2-.1.2-.2.3-.2.5-.5.9-1,1.8-1.6,2.7-1.1,1.6-2.3,3.1-3.4,4.7a40.37,40.37,0,0,0-5.3,11.8,37.93,37.93,0,0,0-.9,13c.1,1.3.4,2.6.6,3.8.1.4.1.7.2,1.1,0,.2.1.5.1.7.2,1-.1-.7,0,0a22.6,22.6,0,0,1,.1,2.6c0,.1-.1.4,0,.5-.2-.7.2-.8,0-.3a4.17,4.17,0,0,1-.2.6c-.1-.1.5-.9.1-.3,0,0-.3.6-.4.6s.7-.7.2-.4c-.2.2-.7.4-.2.2.7-.2,0,0-.1,0-.9.2.2.1.2-.1l-.7.2c-.1,0-.8.2,0,0s-.2,0-.4,0a5.7,5.7,0,0,1-1.3-.1c-.6,0,.4,0,.4.1,0-.1-.6-.1-.7-.1-1-.2-2-.6-3-.9a23.22,23.22,0,0,0-7.4-1.5,15.28,15.28,0,0,0-6.6,1.6c-3,1.4-5.4,3.7-8.1,5.5a23.92,23.92,0,0,1-2.1,1.3c-.1.1-.3.1-.4.2-.5.3.4-.2.4-.2a5.73,5.73,0,0,1-1.4.4c-.1,0-.4.1-.5.1.3.1.8,0,.1,0h-1.4c-.6,0,.3.1.3.1a3.09,3.09,0,0,1-.8-.2,9.83,9.83,0,0,1-1.6-.5c-.9-.3-.1-.1,0,0l-.6-.3c-.4-.2-.9-.5-1.3-.7s-1-.6-1.4-.9a1.76,1.76,0,0,1-.5-.4c-.5-.3.6.5-.2-.1a18,18,0,0,1-2-1.9c-.3-.3-.6-.7-.9-1-.1-.1-.2-.3-.4-.5.7.9.1.1,0-.1-.2-.4-.5-.8-.7-1.2a2.12,2.12,0,0,1-.3-.7c0,.1.3,1,.1.1,0-.1-.3-1.1-.3-1.1.2,0,0,1,0,.2v-.9c-.1-.6,0,.4-.1.4a4.5,4.5,0,0,1,.2-.8,1.85,1.85,0,0,0,.2-.7c0-.1.3-.7,0-.1s0,0,.1-.1a2.51,2.51,0,0,1,.4-.7c.3-.4.6-.9.9-1.3.5-.8.1-.1-.1.1a1.76,1.76,0,0,1,.4-.5c.3-.4.6-.7.9-1.1l2.1-2.4c1.5-1.7,2.9-3.5,4.3-5.3a77.83,77.83,0,0,0,6.5-10.3,87,87,0,0,0,8.4-23.7c1.6-8.3,2.3-17.1.6-25.4a23.47,23.47,0,0,0-5.4-11.2c-3-3.3-7.2-4.8-10.8-7.1-.8-.5-1.6-1-2.4-1.6a4.23,4.23,0,0,0-.7-.5c.2.1.8.6,0,0a14.7,14.7,0,0,0-1.3-1,56.59,56.59,0,0,1-4.3-4.2c-.3-.4-.6-.7-.9-1.1-.1-.2-1.2-1.5-.5-.6-.6-.8-1.2-1.7-1.8-2.5-1.3-1.9-2.5-3.8-4-5.6-3.2-3.5-8.6-6-13.3-4.1-2.4,1-4.4,3.4-3.5,6.2.8,2.3,3.6,4.5,6.2,3.5a1.85,1.85,0,0,1,.7-.2c.7-.3,0,.3-.2,0h.6c.7-.1-.9-.2-.2,0,.2,0,1.2.2,1.3.4,0-.1-.8-.5-.2,0a5.58,5.58,0,0,0,.8.5c.6.4-.6-.6-.1-.1.1.2.3.3.4.4.4.4.7.8,1.1,1.2-.6-.7.1.2.3.5a8.64,8.64,0,0,1,1,1.6,50.09,50.09,0,0,0,8.6,10.3,53,53,0,0,0,11,7.7c1,.5,1.9,1,2.9,1.5.2.2.5.3.7.5s.9.6.3.2,0,0,.1.1a4.35,4.35,0,0,0,.7.6l.7.7c-.4-.5.3.4.4.7a7.46,7.46,0,0,1,.7,1.2c.1.2.2.3.2.5.3.6.3.4,0,0a8,8,0,0,1,.9,2.6c.3,1,.4,1.9.6,2.9.1.6-.1-.4,0-.4,0,.2.1.6.1.8a7.57,7.57,0,0,1,.1,1.5c.1,1,.1,2,.1,3.1,0,2.1,0,4.1-.2,6.2-.1,1-.2,2.1-.3,3.1-.1.5-.1,1-.2,1.4.2-1.1.1-.3,0-.1s-.1.7-.2,1a83.32,83.32,0,0,1-2.9,12.2c-.3,1-.7,2-1,2.9-.2.4-.3.9-.5,1.3s-.2.5-.3.8c-.1.1-.5,1.2-.2.6s-.1.2-.2.3a1.42,1.42,0,0,0-.2.6,10.09,10.09,0,0,1-.7,1.5l-1.5,3a72.85,72.85,0,0,1-6.7,10.6c-.1.1-.6.8-.2.3s-.1.1-.1.1l-1,1.3c-.7.8-1.4,1.7-2.2,2.5a47,47,0,0,0-4.5,5.5,14.46,14.46,0,0,0-1.1,14.6c2,4.2,5.8,7.6,9.7,10.1,4.2,2.6,9.5,4.1,14.4,2.6,3.7-1.1,6.4-3.5,9.5-5.7a15.34,15.34,0,0,1,2.1-1.4c.3-.2.7-.4,1-.6l.6-.3c.9-.5-.7.2-.2.1l1.1-.3.6-.1c-.2.3-1.1,0-.4.1H131c.8,0-.7-.2,0,0a3.59,3.59,0,0,0,1.1.2c4.5,1.2,8.8,3.2,13.6,1.7,5.3-1.7,8-6.7,7.7-12-.1-2.2-.6-4.5-.9-6.7,0-.2-.1-.4-.1-.6-.1-.8.1.9,0,.1,0-.5-.1-1-.1-1.4a18.19,18.19,0,0,1,0-3.3c0-.6.1-1.1.1-1.6,0-.2.1-.4.1-.6.1-.8-.1.9,0,.1.2-1.1.4-2.2.6-3.2s.6-2,.9-3c.2-.4.3-.9.5-1.3.3-.7-.4.7,0,.1.1-.3.3-.6.4-.9,1.8-3.7,4.6-6.7,6.7-10.2a18.2,18.2,0,0,0,2.5-7.2,12.78,12.78,0,0,0-1.6-7.4,31,31,0,0,0-3.6-5.3c-1.5-1.9-3-3.9-4.5-5.8-.6-.8-1.3-1.6-1.9-2.4l-.9-1.2c.1.1.6.8,0,0a5.55,5.55,0,0,0-.6-.8,49.3,49.3,0,0,1-3.6-5.3c-.5-.8-1-1.7-1.4-2.5a10.09,10.09,0,0,1-.7-1.5c-.1-.3-.7-1.7-.3-.7a39.64,39.64,0,0,1-2-6.7l-.6-3.3c0-.2-.1-.4-.1-.7,0-.1-.1-1.1-.1-.5s0-.3-.1-.5a4.48,4.48,0,0,1-.1-1.1c-.3-2.3-.5-4.6-.7-6.8a74.46,74.46,0,0,0-2.3-13.2,37.69,37.69,0,0,0-5.2-10.9,24.7,24.7,0,0,0-11.3-8.6c-4.3-1.7-9-2.5-13.5-3.4a134.46,134.46,0,0,0-15.5-2.2,64.39,64.39,0,0,0-15.2.8c-4.6.8-8.9,2.6-13.4,3.8-1.1.3-2.2.5-3.3.7-.2,0-1.1.2-.4.1s-.1,0-.2,0a13.4,13.4,0,0,1-2,.1H57.5a2.77,2.77,0,0,1-.9-.1c1,.1.2,0,0,0-1.2-.3-2.3-.5-3.5-.9-4.7-1.4-9.7-2.7-14.5-.8-4.6,1.8-8,5.3-10.8,9.3-2.6,3.8-4.7,8.4-4.6,13.1a14,14,0,0,0,6.9,11.9,21,21,0,0,0,11.6,2.5c9.4-.3,18.6-4.1,27-8,4.2-1.9,8.3-4,12.4-6.1a5,5,0,0,0,1.8-6.8,5.23,5.23,0,0,0-7-2.1Z"/><path class="cls-2" d="M44.6,63.74a11.68,11.68,0,0,0-11.5,8.7c-1.5,6.2,2.1,12.9,0,18.9-1.9,5.4-8,8.4-10.2,13.7A10.8,10.8,0,0,0,24,115c1.6,2.4,4.4,4.6,3.9,7.4-.3,1.9-1.9,3.2-3.1,4.7-2,2.6-2.8,5.9-3.4,9.1s-1.1,6.5,0,9.5,4.2,5.5,7.3,4.8c2.7-.6,4.5-3.4,7.3-3.9,2.6-.5,5.1,1.3,7.3,2.9s4.8,3.2,7.4,2.4a10.6,10.6,0,0,0,3.3-2.2,22.63,22.63,0,0,1,9.2-4.5,4.18,4.18,0,0,0,1-.4c.9-.7.1-2.1-.7-3-8.3-8.9-13.9-20-17.2-31.7s-4.4-23.9-4.4-36c0-3.3.1-6.7,1.3-9.8"/><path class="cls-2" d="M44.6,58.74a16.7,16.7,0,0,0-11.9,4.8,17.07,17.07,0,0,0-5.1,11.9,38.22,38.22,0,0,0,.6,6.8c.1.5.1.9.2,1.4s0-.3,0-.3c0,.3.1.6.1.8a26.35,26.35,0,0,1,.2,2.8c0,.2.1,1.4-.1,1.6,0,0,.2-1,0-.3,0,.2-.1.4-.1.6-.1.4-.3.9-.4,1.3-.2.7.4-.8.1-.2l-.3.6c-.2.3-.4.7-.6,1-.1.1-.4.4-.4.6,0,0,.6-.7.2-.3-.6.7-1.1,1.3-1.8,2-2.8,2.9-5.6,5.8-7.2,9.6a15.89,15.89,0,0,0,1,13.3,26.39,26.39,0,0,0,2.1,2.9,7,7,0,0,1,.8,1,.78.78,0,0,0,.4.4c.4.5-.6-1,0,0l.6.9c.5.9-.1-.3-.1-.2l.2.7s-.2-1.1-.1-.5.1-.4.1-.4c-.1,1.1-.1-.2.1-.2,0,0-.3.7-.4.6.1,0,.6-.7.1-.1a.78.78,0,0,1-.4.4c-.3.3-.6.7-.9,1a18.12,18.12,0,0,0-2.2,3.2,24.5,24.5,0,0,0-2.3,6.4c-1,4.6-2,9.8-.3,14.3s6.1,8.7,11.2,8.4a11.44,11.44,0,0,0,6.4-2.4c.6-.4,1.2-.9,1.9-1.3a8.79,8.79,0,0,0,1-.6c-.2.3-1,.1-.2.2h-.2c.9-.1-.3.1-.2-.1,0,0,.5.1.6.1s.9.3.3.1,0,0,.1.1a23.26,23.26,0,0,1,2.6,1.7,18.56,18.56,0,0,0,6.2,3.3,10,10,0,0,0,8.1-1.3,32.53,32.53,0,0,0,2.9-2.3c-.7.6.3-.2.5-.4l1.5-.9c.4-.2.9-.5,1.3-.7a3,3,0,0,0,.8-.4c-.1,0-.7.3-.2.1a28.11,28.11,0,0,1,3.1-1c3.6-1,6-4.5,4.6-8.1-.8-2.4-2.7-4.1-4.3-5.9a10.63,10.63,0,0,0-.9-1.1,4.23,4.23,0,0,1-.5-.7c0,.1.5.6.1.2-.6-.8-1.3-1.7-1.9-2.6a85.63,85.63,0,0,1-6.1-10.6,27.18,27.18,0,0,1-1.1-2.5h0a1.42,1.42,0,0,1-.2-.6c-.2-.5-.4-1.1-.6-1.6-.7-1.9-1.4-3.9-2-5.8a97.84,97.84,0,0,1-3-13c-.2-1.1-.3-2.2-.5-3.3s0-.3,0-.1c0-.2-.1-.5-.1-.7a12.25,12.25,0,0,1-.2-1.9l-.6-6.9A121.68,121.68,0,0,1,46.9,71c0-.5.1-1.1.1-1.6.1-1,0-.2,0,0,0-.2.1-.4.1-.7a16.81,16.81,0,0,1,.9-3.2c1-2.4-1-5.6-3.5-6.2-2.9-.7-5.1.9-6.1,3.5-1.6,4.1-1.5,8.7-1.5,13.1s.2,8.6.6,12.9a121.91,121.91,0,0,0,5,26,85.85,85.85,0,0,0,10.2,21.4,65.54,65.54,0,0,0,3.9,5.3l1.8,2.1c.3.4.7.7,1,1.1a2.18,2.18,0,0,1,.4.5c.5.4-.3-.7-.1-.1s-.1-.4-.1-.4c.4-.7.9-1.5,1.3-2.2,1.8-1.8,2.1-2.5,1-2.1l-1.2.3c-1.2.4-2.4.9-3.6,1.4a22.52,22.52,0,0,0-5,2.9c-.6.5-1.2.9-1.8,1.4-.3.3-1,.7-.2.2-.2.1-.5.3-.7.4s-.7.3-.1.1-.1,0-.2,0c.5-.1.6,0,.1-.1,1,.2-.1-.1-.5-.2s.1.1.2.1l-.6-.3a22,22,0,0,1-2.5-1.7,19.14,19.14,0,0,0-5.6-3.1,10.81,10.81,0,0,0-7.9.7c-1.4.7-2.6,1.8-3.9,2.6-.2.1-1.1.7-.5.3s.1,0,0,0-.1,0-.2.1c-.4.1-.2.1.5,0h-.5c-.5.1.4,0,.5.1-.1-.1-.4-.1-.5-.1-1-.3.1-.1.1.1l-.9-.6c.1,0,.6.6.3.2a1.21,1.21,0,0,0-.5-.5c-.4-.4.3.2.2.3l-.3-.4a2.19,2.19,0,0,1-.3-.5c-.5-.9.1.7,0,0-.1-.4-.2-.9-.3-1.3-.2-.6,0,.1,0,.2a2.77,2.77,0,0,0-.1-.9v-1.4a2.77,2.77,0,0,1,.1-.9v-.1a38.19,38.19,0,0,1,1.1-5.7,18.29,18.29,0,0,1,.8-2.5c-.3.8,0,.1.2-.3s.6-.9.9-1.4c-.5.7-.1.1.2-.2s.6-.7.9-1a17.24,17.24,0,0,0,2.2-3.3,9.48,9.48,0,0,0-.3-7.9,22.53,22.53,0,0,0-3.4-4.7l-.4-.4c.1.5.4.6.1.1-.2-.3-.4-.7-.6-1,0-.1-.4-.7-.1-.1s0-.1-.1-.3a6.47,6.47,0,0,0-.4-1.3c-.2-.8,0,.2,0,.2v-1.8c0-.6,0,.4-.1.4s.1-.7.1-.8c.1-.4.3-.9.4-1.3.2-.7-.4.8-.1.2.1-.2.2-.3.2-.5a4.05,4.05,0,0,0,.5-.9c.1-.2.9-1.2.4-.6s.4-.4.5-.6c2.3-2.7,5-5,7-8a18.62,18.62,0,0,0,2.4-11.8c-.1-1.2-.3-2.4-.5-3.6-.1-.4-.1-.8-.2-1.2,0-.2-.2-1,0,.1,0-.3-.1-.6-.1-.8a24.62,24.62,0,0,1-.2-2.6v-1.8c.1-1.2-.2.6,0-.1.1-.4.2-.7.3-1.1a1.45,1.45,0,0,0,.2-.7c.2-.5-.1.4-.2.4.1,0,.4-.8.5-.9a2.09,2.09,0,0,1,.4-.6c.4-.7,0,.2-.1.2.2,0,1.4-1.4,1.6-1.6.4-.4-.3.2-.3.2l.4-.3c.4-.3.8-.4,1.2-.7s-.4.2-.4.1a1.85,1.85,0,0,1,.7-.2c.3-.1.7-.2,1-.3s.3-.1.5-.1c.5-.1-.4.1-.5.1a6.6,6.6,0,0,0,1.4-.1,5,5,0,0,0,5-5c.4-2.6-1.7-4.8-4.5-4.9Z"/><path class="cls-3" d="M82.3,48.94c.5-.2.9-.5,1.4-.7.1-.1,1-.4.5-.2s.2-.1.3-.1a8.33,8.33,0,0,1,1.5-.4c.7-.2-.7-.1,0,0,.3,0,1.1.2.2-.1.2.1.4.1.6.2.6.1-.7-.5-.2-.1a2.19,2.19,0,0,0,.5.3c.7.4-.2,0-.2-.1l.9.9.4.4c-.4-.5-.4-.6-.2-.3.1.1.1.2.2.3,2.1,3.1,3.6,6.6,5.7,9.8a30.42,30.42,0,0,0,8.8,9.4,28.07,28.07,0,0,0,6.3,3c1,.4,1.9.7,2.9,1.1.2.1,1.8.8.8.3a11.94,11.94,0,0,1,1.6.8,7.46,7.46,0,0,1,1.2.7c.2.1.3.2.5.3-.8-.6-.3-.2-.1,0l.4.4c.5.4-.3-.7,0-.1a2.19,2.19,0,0,0,.3.5c.7,1-.1-.5.1.2a7.37,7.37,0,0,1,.4,1.4c.1.3.1.6.2.8s.2.8.1.2,0,.3,0,.5a1.7,1.7,0,0,0,.1.7v1.8c0,.6-.1,1.2-.1,1.8a1.7,1.7,0,0,1-.1.7c0,.1-.1,1.1-.1.5s0,.2,0,.2c-.1.3-.1.6-.2.9l-.3,1.8c-.4,2.2-.9,4.4-1.2,6.7a51.56,51.56,0,0,0-.7,7.9c0,1.1-.1,2.2-.1,3.3a8.75,8.75,0,0,1-.2,1.6c.1-1.1-.1.4-.2.8a15.68,15.68,0,0,1-.8,2.9,10.41,10.41,0,0,1-.6,1.6,1.42,1.42,0,0,0-.2.6c-.3.7.5-1.1-.1.2a46.29,46.29,0,0,1-2.9,5.4c-.7,1-1.3,2-2,3-.3.5-.7.9-1,1.4,0,.1-.5.6-.1.2s-.3.4-.4.5l-4.8,5.7A132.48,132.48,0,0,0,91.5,141a4.93,4.93,0,0,0,1.8,6.8,5.12,5.12,0,0,0,6.8-1.8c.6-.9,1.3-1.9,1.9-2.8a3,3,0,0,0,.5-.7c.5-.6-.4.6.1-.1a18.26,18.26,0,0,1,1.3-1.6c1.5-1.8,3-3.6,4.5-5.3a113.28,113.28,0,0,0,9.1-11.6,43.49,43.49,0,0,0,6-12.7,35,35,0,0,0,1.1-7.9c.1-1.2.1-2.4.1-3.6,0-.6.1-1.1.1-1.7,0-.3.1-.6.1-.9,0,0,.2-1.3.1-.7s.1-.3.1-.5.1-.6.2-.9c.1-.5.2-1.1.3-1.6.2-1.3.5-2.6.8-3.9a70,70,0,0,0,1.1-8c.3-5.2-.8-11.3-5-14.9a23.67,23.67,0,0,0-7.1-4c-1-.4-2.1-.8-3.1-1.1-.6-.2-1.1-.4-1.6-.6s.1,0,.2.1l-1.2-.6c-.4-.2-.8-.5-1.3-.7-.2-.1-.4-.3-.6-.4s-.8-.5-.2-.2,0,0-.1-.1-.4-.3-.6-.5l-1.2-1.2a9,9,0,0,1-.9-1c-.2-.2-.3-.4-.5-.6-.6-.7,0,0,.1.1-.7-.8-1.2-1.7-1.8-2.5-2.6-4-4.4-8.7-7.6-12.3a11.94,11.94,0,0,0-8.2-4c-3.3-.2-6.5,1.3-9.4,2.8a5,5,0,0,0-1.8,6.8,4.67,4.67,0,0,0,6.7,2.3Z"/><path class="cls-4" d="M124.6,99.64a3,3,0,0,1,.8.4c.1,0,.4.3.2.1l.3.3.3.3c-.1-.2,0,0,.1.1l.1.2a.6.6,0,0,1,.1.4v.2h0v.2c0,.1-.1.2-.1.3s-.1.2,0,0c0,.1-.1.1-.1.2a.76.76,0,0,0-.2.4c0,.1-.1.1-.1.2h0l-.6.6-.1.1a.52.52,0,0,1-.4.2c-.1,0-.1.1-.2.1h0c-.1,0-.3.1-.4.1.3-.1-.2,0-.2,0s-.4-.1-.1,0c-.1,0-.5-.2-.2-.1-.1-.1-.2-.1-.3-.2l-.1-.1c-.1-.1-.1-.1-.1-.2h0c-.1-.1-.1-.2-.2-.3s-.1-.1-.1-.2h0a2.92,2.92,0,0,1-.2-.9v-.8a1.2,1.2,0,0,0-2.4,0,6.36,6.36,0,0,0,1.2,3.8,3.67,3.67,0,0,0,3.7,1.2,5.67,5.67,0,0,0,3.2-2.3,4.18,4.18,0,0,0,.7-3.9,5.34,5.34,0,0,0-2.9-3,1.25,1.25,0,0,0-1.7.4c-.8,1.1-.7,2,0,2.2Z"/><path class="cls-5" d="M124.5,106.74a25.16,25.16,0,0,1-1.3,4.7,21.72,21.72,0,0,1,2.4.7,34.49,34.49,0,0,0,1.1-5.4c-.8.2-1.6.4-2.3.6.4.7.8,1.3,1.2,2.1a17.6,17.6,0,0,1,.9,2,22.88,22.88,0,0,0,2.3-1c-.8-1.2-1.4-2.4-2.8-2.8a14,14,0,0,0-4.1-.5c.1.8.2,1.6.3,2.5a34.68,34.68,0,0,0,7.2-1.9,1.26,1.26,0,0,0,.9-1.5,1.31,1.31,0,0,0-1.5-.9,36.41,36.41,0,0,1-7.2,1.9,1.24,1.24,0,0,0-.9,1.4,1.28,1.28,0,0,0,1.2,1.1,9.7,9.7,0,0,1,1.7.1,4.43,4.43,0,0,1,1.5.3c.1,0,.2.1.3.1h0c.1.1.1.1.1,0l.2.2.1.1h0c.3.5.6.9.9,1.4a1.26,1.26,0,0,0,1.6.5,1.29,1.29,0,0,0,.7-1.5,29.18,29.18,0,0,0-2.3-4.7,1.34,1.34,0,0,0-1.4-.6,1.18,1.18,0,0,0-.9,1.2,1.27,1.27,0,0,1-.1.6v.4c-.1.4-.1.9-.2,1.3-.2.8-.4,1.7-.6,2.5a1.24,1.24,0,1,0,2.4.6,36.16,36.16,0,0,0,1.3-4.7,1.26,1.26,0,0,0-.9-1.5c-.9-.3-1.6,0-1.8.7Z"/></g><g id="colores"><path class="cls-6" d="M46.7,61.14a283.48,283.48,0,0,0,4.6,54.4c1,5.3,2.1,10.6,4.6,15.3s6.6,8.9,11.8,10.3a22.6,22.6,0,0,0,8.6.4c6.8-.6,13.6-2.5,19-6.6,5.9-4.4,9.7-11.1,13.1-17.6,4.5-8.4,8.8-17,10.8-26.3,1-4.4,1.4-9.1.1-13.4a4.27,4.27,0,0,0-1.1-2.1,5.73,5.73,0,0,0-2.8-1.4,48.3,48.3,0,0,1-27.5-23.5c-1.2-2.4-2.8-5.3-5.5-5.3a7,7,0,0,0-3.8,1.5,138.29,138.29,0,0,1-32.1,14.4"/><path class="cls-6" d="M44.2,61.14a285.48,285.48,0,0,0,1.3,30.7,237.65,237.65,0,0,0,4.5,30.1c2,8.2,6.1,17,14.3,20.7,4.4,2,9.2,1.9,13.9,1.3a43.9,43.9,0,0,0,13.3-3.7c8.2-3.9,13.5-11.2,17.7-19,4.6-8.4,9.1-17,11.7-26.3,1.3-4.7,2.2-9.6,1.6-14.5-.3-2.4-.8-5.2-2.7-6.9-1.6-1.5-4-1.9-6-2.6A46.07,46.07,0,0,1,95,57a39.51,39.51,0,0,1-3.3-4.7c-1-1.7-1.8-3.5-2.9-5.2A8.79,8.79,0,0,0,84.2,43c-2.2-.8-4.5,0-6.4,1.1a132.31,132.31,0,0,1-25.4,12.3c-2.2.8-4.4,1.5-6.7,2.2-3.1.9-1.8,5.8,1.3,4.8a139.9,139.9,0,0,0,25-10.3c1.9-1,3.8-2.1,5.7-3.2.9-.5,1.8-1.1,2.7-1.6a2.86,2.86,0,0,1,2.1-.6c1.2.3,2,2.1,2.6,3.1.9,1.6,1.7,3.2,2.7,4.7a51.09,51.09,0,0,0,16.6,16.1,49.87,49.87,0,0,0,10.5,4.8,2.7,2.7,0,0,1,1.7,1,9.47,9.47,0,0,1,.8,3,24.32,24.32,0,0,1-.1,6.6c-1.2,8.9-5.1,17.3-9.2,25.2-3.7,7.2-7.5,14.9-13.9,20.1a28.51,28.51,0,0,1-10.8,5.2,35.69,35.69,0,0,1-12.6,1.4c-8-.6-12.9-7.7-15.1-14.7A86.16,86.16,0,0,1,52.9,111c-.8-4.7-1.5-9.4-2-14.1a278.29,278.29,0,0,1-1.8-28.8v-7.3c.1-3-4.9-3-4.9.3Z"/><path class="cls-7" d="M46.7,88c-.2-1.2-.4-2.4-.5-3.7a20.83,20.83,0,0,1,0-2.5,7.89,7.89,0,0,1,3.7-6.2,5.19,5.19,0,0,1,6.7,1.1A9.73,9.73,0,0,1,57.7,79a48.37,48.37,0,0,1,1.4,5.1v.4c-.1.2-.3.2-.4.3a126.32,126.32,0,0,1-12.2,4.4"/><path class="cls-7" d="M47.9,87.74a14.63,14.63,0,0,1-.1-7.2,5.59,5.59,0,0,1,3.4-3.9,4,4,0,0,1,4.4,1.1,8.83,8.83,0,0,1,1.3,3,13.32,13.32,0,0,1,.5,1.9,3.55,3.55,0,0,1,.2,1c0,.2.1.3.1.5s0,.3.1.1a1.76,1.76,0,0,1,.5-.4A10.47,10.47,0,0,1,55.4,85c-1,.4-2,.8-3,1.1-2.1.8-4.2,1.4-6.3,2.1-1.5.5-.9,2.9.7,2.4,3.3-1,6.7-2.2,9.9-3.5.8-.3,1.5-.6,2.3-.9a1.94,1.94,0,0,0,1.3-2.3,26.17,26.17,0,0,0-1.3-4.8,8.31,8.31,0,0,0-2.3-3.8,6.27,6.27,0,0,0-3.7-1.4,7.71,7.71,0,0,0-6.8,3.8c-1.9,3.2-1.5,7.2-.8,10.7.4,1.5,2.8.9,2.5-.7Z"/><path class="cls-7" d="M80.2,80.94c.1-2.6-.9-5.3-.2-7.8.8-2.7,3.7-4.5,6.6-4.7a4,4,0,0,1,2.4.4,5.36,5.36,0,0,1,1.5,1.5,15.34,15.34,0,0,1,2.6,7.4,1.7,1.7,0,0,1-.1.7c-.2.6-.8.8-1.4.9-3.9.9-7.8,1.6-11.7,2.2"/><path class="cls-7" d="M81.4,80.94c0-1.4-.2-2.8-.3-4.2a7.79,7.79,0,0,1,.3-3.7,6,6,0,0,1,4.7-3.3,3.21,3.21,0,0,1,3.1.8,10.88,10.88,0,0,1,1.8,3.1,15.57,15.57,0,0,1,1,3.7v.6c-.1-.1.3-.1,0-.1,0,0-.4.2-.3.1-.7.2-1.4.3-2.1.5q-4.95,1.05-9.9,1.8a1.26,1.26,0,0,0-.9,1.5,1.31,1.31,0,0,0,1.5.9c3.6-.5,7.1-1.1,10.6-1.9,1.5-.3,3.3-.7,3.5-2.5a12.06,12.06,0,0,0-.8-4.6,14.09,14.09,0,0,0-2.2-4.2,5.18,5.18,0,0,0-4.2-2.3,9,9,0,0,0-7.2,3.3,7.43,7.43,0,0,0-1.6,4.7c0,1.9.5,3.8.4,5.7.1,1.7,2.6,1.7,2.6.1Z"/><path class="cls-8" d="M40,90c1.3.7,2.2,1.9,3.6,2.4,1.7.7,3.3-.1,4.9-.9,3.5-1.7,7.4-2.6,11.1-3.7a1.25,1.25,0,0,0-.7-2.4,75.23,75.23,0,0,0-10.2,3.2c-.8.3-1.6.8-2.4,1.1a2.52,2.52,0,0,1-1.9.3c-1.2-.4-2.1-1.7-3.3-2.2A1.23,1.23,0,0,0,40,90Z"/><path class="cls-8" d="M39.7,90.24a6.22,6.22,0,0,0,3.5,2.5,8.27,8.27,0,0,0,4.9-.6c3.6-1.2,7.2-2.5,10.8-3.7,1.5-.5.9-2.9-.7-2.4-3,1.1-6.1,2.1-9.1,3.1-2.3.8-5.5,2.4-7.3-.2-.8-1.2-3,0-2.1,1.3Z"/><path class="cls-8" d="M81.3,84.44a74.18,74.18,0,0,0,11.5-1.7c3.4-.8,5.9-3,8.3-5.4-.7-.5-1.3-1-2-1.5a14.27,14.27,0,0,1-3.1,3.4,15.57,15.57,0,0,1-4.7,1.7c-3.5.9-7,1.7-10.5,2.3a21.72,21.72,0,0,0,.7,2.4l11.3-2.4a9.34,9.34,0,0,0,4.4-1.6c1.2-.9,1.9-2.2,3.1-3.1s.1-3.1-1.3-2.2a29.12,29.12,0,0,0-3.1,3c-1.2,1.1-2.8,1.2-4.3,1.5-3.6.8-7.3,1.6-10.9,2.3-1.6.3-.9,2.7.7,2.4A114.77,114.77,0,0,0,93,82.84a15.15,15.15,0,0,0,4.9-2.1,17.49,17.49,0,0,0,3.4-3.8c.8-1.2-1-2.5-2-1.5-2.2,2.2-4.4,4.2-7.5,4.8a75.85,75.85,0,0,1-10.5,1.5c-1.5.3-1.6,2.8,0,2.7Z"/><path class="cls-8" d="M81,82.14c-.4,0-.8-.1-1.2-.1a3,3,0,0,0-1,.2,1.7,1.7,0,0,0-.6.6,1.2,1.2,0,0,0-.2.8v.2a1.27,1.27,0,0,0,.1.6c.1.2.2.5.3.7a2.65,2.65,0,0,0,.5.6,2.62,2.62,0,0,0,.9.5,4.33,4.33,0,0,1,.5.1.6.6,0,0,0,.4-.1h.1c.2-.1.3-.1.5-.2a3.39,3.39,0,0,0,.6-.6c.1-.1.1-.3.2-.5v-.5a1.56,1.56,0,0,0-.6-.8,1.15,1.15,0,0,0-1-.1c-.1,0-.2.1-.3.1s-.3.3-.4.4h0c.1-.1.1-.2.2-.2l-.1.1c.1-.1.2-.1.2-.2l-.1.1c.1,0,.2-.1.3-.1h.2c-.1,0-.1,0-.2-.1.1,0,.2.1.3.1-.1,0-.1-.1-.2-.1.1.1.2.1.2.2l-.2-.2c.1.1.1.2.2.2-.1-.1-.1-.2-.2-.3,0,.1.1.2.1.3a.9.9,0,0,1-.1-.5v.3c0,.1-.1.2-.1.3a.1.1,0,0,1,.1-.1c-.1.1-.1.2-.2.2l.1-.1c-.1.1-.2.1-.2.2h.1c-.1,0-.2.1-.3.1h.5a2.2,2.2,0,0,1,.8.1.9.9,0,0,0,.5-.1c.2-.1.3-.1.4-.3a1.38,1.38,0,0,0,.3-.4.9.9,0,0,0,.1-.5,1.09,1.09,0,0,0-.4-.9c-.1-.1-.2-.1-.2-.2a1.19,1.19,0,0,1-.9.2Z"/><path class="cls-2" d="M80.7,61a5.72,5.72,0,0,0,3,1.5,12.92,12.92,0,0,0,3.4-.1c1.4-.2,3-.5,3.9-1.6a4.23,4.23,0,0,0,.7-2.7,3,3,0,0,0-.6-2,3.21,3.21,0,0,0-2-1c-2.3-.2-4.4,1.2-6.4,2.3a18.76,18.76,0,0,1-9.3,1.9,16.35,16.35,0,0,0,4.4,3,4.1,4.1,0,0,0,3.2.5"/><path class="cls-2" d="M79.8,61.94c2,2,4.8,2,7.4,1.7,2.4-.3,4.8-1,5.6-3.6.7-2.4-.1-5.3-2.8-6s-5,.8-7.2,2a19.06,19.06,0,0,1-9.4,2.1,1.24,1.24,0,0,0-.9,2.1,17.3,17.3,0,0,0,4.1,3,6.29,6.29,0,0,0,4.8.9c1.5-.5.9-2.9-.7-2.4-1.2.4-2.4-.4-3.4-1a13.31,13.31,0,0,1-3-2.3l-.9,2.1a21.26,21.26,0,0,0,8.3-1.3c1.2-.5,2.4-1.1,3.6-1.7a6.63,6.63,0,0,1,3.6-1.1c1.3.1,1.7.9,1.6,2.2a2.46,2.46,0,0,1-1.7,2.3,23.4,23.4,0,0,1-3.8.3A4.44,4.44,0,0,1,81.5,60c-1.1-1.1-2.9.7-1.7,1.9Z"/><path class="cls-2" d="M43.4,71.34c3.9-1.2,7.9-2.4,11.8-3.6a3.33,3.33,0,0,0,1.9-1.1c.7-1,.2-2.3-.4-3.4a2.7,2.7,0,0,0-.7-.8c-.5-.3-1-.1-1.6.1-2.8,1-5.6,1.9-8.4,2.9-1.3.5-2.7.9-4,1.5a2.26,2.26,0,0,0-1.1.8c-.6.9,0,2,.6,2.9a2.7,2.7,0,0,0,.7.8.63.63,0,0,0,.9-.2"/><path class="cls-2" d="M43.8,72.54c3.4-1,6.8-2.1,10.2-3.1,1.4-.4,3.1-.7,4.1-1.8a3.81,3.81,0,0,0,.3-4.1c-.7-1.5-1.7-2.7-3.5-2.3a40.48,40.48,0,0,0-4.9,1.7c-1.6.6-3.3,1.1-4.9,1.7-.8.3-1.5.5-2.3.8a7.56,7.56,0,0,0-2.2,1.1c-1.5,1.3-.9,3.3,0,4.7a3.11,3.11,0,0,0,1.6,1.4,2.1,2.1,0,0,0,2.2-.9c.9-1.3-1.3-2.6-2.2-1.3.4-.6.9,0,.5-.5a4.05,4.05,0,0,1-.5-.9c-.2-.6-.1-.7.4-1,1.3-.6,2.8-1.1,4.2-1.6s3-1,4.5-1.6c.7-.2,1.4-.5,2.1-.7.4-.1.8-.3,1.2-.4a3.18,3.18,0,0,1,.9-.3c.3.1.6,1,.7,1.3s.2.8-.2,1.1a3.49,3.49,0,0,1-1.7.6l-2.1.6c-3,.9-6.1,1.8-9.1,2.8-1.5.8-.9,3.2.7,2.7Z"/><path class="cls-9" d="M80.8,87.34A53,53,0,0,0,84.2,97a11.81,11.81,0,0,0,1.6,2.9,3.7,3.7,0,0,0,2.9,1.4,4.29,4.29,0,0,0,2.9-1.8c1.7-2.2,2.2-5.2,2.4-8.1a23.53,23.53,0,0,0-.3-7.5c-4.2,1-8.4,1.9-12.7,2.9"/><path class="cls-9" d="M79.6,87.64a52.19,52.19,0,0,0,2.6,7.9c.9,2.3,1.8,5.2,4.2,6.4s4.8,0,6.3-2,2-4.6,2.3-7a24.79,24.79,0,0,0-.2-9.4,1.31,1.31,0,0,0-1.5-.9c-4.2,1-8.4,1.9-12.7,2.9-1.6.4-.9,2.8.7,2.4,4.2-1,8.4-1.9,12.7-2.9l-1.5-.9a24.8,24.8,0,0,1,.2,8.6c-.4,2.5-1,5.5-3.1,7-2.6,1.8-4.1-2.6-4.8-4.3A59.11,59.11,0,0,1,82,87c-.3-1.6-2.7-1-2.4.6Z"/><path class="cls-8" d="M62.9,132.14a5.41,5.41,0,0,0,4.8,4.5,4.9,4.9,0,0,0,5.2-3.8,6.48,6.48,0,0,0-.3-3.9,1.24,1.24,0,1,0-2.4.6,2.92,2.92,0,0,1,.2.9c0,.1.1.3.1.4v1h0v.2a.37.37,0,0,1-.1.3c0,.1-.1.3-.1.4.1-.3-.1.1-.1.2a.52.52,0,0,0-.2.4l-.1.1-.3.3c.2-.2-.1.1-.2.1s-.2.1-.4.2c.3-.1-.1,0-.1,0s-.2.1-.3.1h-.8c.2,0-.2-.1-.2-.1s-.3-.1-.4-.1c.3.1-.1-.1-.2-.1s-.2-.1-.3-.2l-.1-.1h0l-.3-.3s-.3-.4-.2-.2c-.1-.1-.1-.2-.2-.3s-.1-.2-.2-.3-.1-.1-.1-.2h0a2.35,2.35,0,0,1-.2-.8,1.26,1.26,0,0,0-1.5-.9,1.4,1.4,0,0,0-1,1.6Z"/><path class="cls-6" d="M119,99.84a12.26,12.26,0,0,0,11.8-7.7A13.79,13.79,0,0,0,128.1,78c-1.8-2-4.7-3.6-7.2-2.6a1.16,1.16,0,0,0-.7.5,1.73,1.73,0,0,0-.1,1,48.53,48.53,0,0,1-2.8,22"/><path class="cls-6" d="M119,102.34a14.41,14.41,0,0,0,11.6-5.2,15.43,15.43,0,0,0,3.3-12.9c-.8-4.4-3.6-9-7.8-10.8-2.1-.9-4.8-1.2-6.9.2-2.4,1.6-1.3,5.2-1.3,7.6a47.78,47.78,0,0,1-3,17.1,2.51,2.51,0,0,0,1.8,3.1,2.59,2.59,0,0,0,3.1-1.8,52.51,52.51,0,0,0,2.8-11.7,56.5,56.5,0,0,0,.4-5.8,28.1,28.1,0,0,0-.1-2.9,11.84,11.84,0,0,1-.2-2.6c-.2.4-.4.7-.6,1.1-.2.2.1-.1.2-.1h.8a4,4,0,0,1,1.5.6,7.75,7.75,0,0,1,2.7,2.7,11.72,11.72,0,0,1,1.9,7.7,9.94,9.94,0,0,1-10.2,8.8c-3.3-.3-3.2,4.7,0,4.9Z"/><path class="cls-9" d="M47.2,94.14a27.69,27.69,0,0,0,5.8,12.8,4.25,4.25,0,0,0,2.3,1.7,2.76,2.76,0,0,0,2.5-1.3,9.38,9.38,0,0,0,1-2.8,39.82,39.82,0,0,0-.2-14.6A33.7,33.7,0,0,1,46.7,94c3.9-2.4,8.9-2.6,12.8-5.1"/><path class="cls-9" d="M46,94.44a30,30,0,0,0,3.5,9.6,28.58,28.58,0,0,0,2.8,4,4.17,4.17,0,0,0,4.1,1.7c3.6-.9,3.8-5.7,4.1-8.7a45,45,0,0,0-.6-11.6,1.33,1.33,0,0,0-1.8-.8,36.31,36.31,0,0,1-11.6,4,22.88,22.88,0,0,0,1,2.3c4-2.4,8.8-2.6,12.8-5.1,1.4-.8.1-3-1.3-2.2-4,2.4-8.8,2.7-12.8,5.1-1.3.8-.4,2.5,1,2.3a37.61,37.61,0,0,0,12.2-4.2,14.17,14.17,0,0,1-1.8-.8,36.9,36.9,0,0,1,.6,9.4,34.41,34.41,0,0,1-.5,4.5c-.2,1.1-.5,3.1-1.9,3.3-1.1.2-2.2-1.6-2.7-2.3a23.94,23.94,0,0,1-2.1-3.4,27.56,27.56,0,0,1-2.6-7.8c-.3-1.5-2.7-.8-2.4.7Z"/><path class="cls-10" d="M65,76.34c-1.6,3.2-2.2,6.7-3.4,10.1-1.4,4.1-3.7,7.9-4.3,12.3a6,6,0,0,0,.3,3.5,6.2,6.2,0,0,0,1.7,2.2,53.05,53.05,0,0,0,8.1,6c.2.1.3.2.5.2s.3-.1.4-.3l7.7-7.4a1.79,1.79,0,0,0,.5-.7,1.84,1.84,0,0,0-.2-1.6,14.88,14.88,0,0,0-2.4-3.2,32.23,32.23,0,0,1-5.4-10.6c-1.2-3.8-2-7.8-2.9-11.7"/><path class="cls-10" d="M63.9,75.74a56.9,56.9,0,0,0-2.9,8.2,73.75,73.75,0,0,1-3,7.8c-1.1,2.6-2.2,5.4-2.2,8.3s1.9,4.8,4,6.6c1.1.9,2.2,1.7,3.4,2.6a29.22,29.22,0,0,0,3.7,2.4c1.2.5,1.9-.1,2.7-.9,1.2-1.1,2.3-2.2,3.5-3.3s2.2-2.1,3.3-3.2,1.6-2,1.2-3.4a8.94,8.94,0,0,0-1.9-3.1,30.72,30.72,0,0,1-2.7-3.6c-3.5-5.8-4.7-12.7-6.2-19.2-.3-1.6-2.8-.9-2.4.7,1.2,5.2,2.2,10.4,4.2,15.3A32.51,32.51,0,0,0,71.9,97l2.1,2.7a6.71,6.71,0,0,1,.9,1.4c.5.9-.3,1.4-.9,1.9-1.9,1.8-3.8,3.7-5.8,5.5a7.27,7.27,0,0,0-.9.8l-.2.2c.6,0,.8-.1.4-.2a7.84,7.84,0,0,0-1.5-1c-1.1-.7-2.2-1.5-3.2-2.2-2-1.5-4.6-3.2-4.6-5.9A20.24,20.24,0,0,1,60.1,93c1-2.5,2.2-4.9,3-7.5.9-2.8,1.5-5.7,2.8-8.3.9-1.7-1.3-3-2-1.5Z"/></g><ellipse class="cls-8" cx="55.1" cy="89.84" rx="2.7" ry="3" transform="translate(-4.45 2.89) rotate(-2.89)"/><ellipse class="cls-8" cx="89.6" cy="83.94" rx="2.7" ry="3" transform="translate(-4.11 4.62) rotate(-2.89)"/></g><g id="glases"><use class="cls-11" transform="translate(72.11 75.44) scale(0.09 0.1)" xlink:href="#image"/><use class="cls-11" transform="translate(37.23 78.57) scale(0.09 0.1)" xlink:href="#image"/><ellipse class="cls-12" cx="49.66" cy="92.24" rx="11.67" ry="11.82"/><ellipse class="cls-12" cx="84.16" cy="88.78" rx="11.67" ry="11.82"/><path class="cls-12" d="M61.33,92.24l.3-.27a8.5,8.5,0,0,1,11.23-.22h0"/><path class="cls-12" d="M95.82,86,116,73.11a4.59,4.59,0,0,1,3.77-.56h0"/></g></g></svg>