<?xml version="1.0" encoding="utf-8"?>
<!-- Generator: Adobe Illustrator 25.4.1, SVG Export Plug-In . SVG Version: 6.00 Build 0)  -->
<svg version="1.1" id="Capa_1" xmlns="http://www.w3.org/2000/svg" xmlns:xlink="http://www.w3.org/1999/xlink" x="0px" y="0px"
	 viewBox="0 0 168 192.1" style="enable-background:new 0 0 168 192.1;" xml:space="preserve">
<style type="text/css">
	.st0{fill:#422918;}
	.st1{fill:#FCEA0D;}
	.st2{fill:#D9D9D9;}
	.st3{fill:#B1B1B1;}
	.st4{fill:#F2A9A9;}
	.st5{fill:#E8401B;}
	.st6{fill:#1D1D1B;}
	.st7{fill:#FFFFFF;}
	.st8{fill:#E5332A;}
	.st9{opacity:0.36;}
	.st10{fill:none;}
	.st11{fill:#D274AC;}
	.st12{font-family:'MyriadPro-Regular';}
	.st13{font-size:1.7442px;}
	.st14{letter-spacing:3.7;}
	.st15{fill:#315DA9;}
	.st16{fill:#FDF28F;}
	.st17{fill:#FFCE3B;}
	.st18{fill:#BA6317;}
	.st19{fill:#55BCEC;}
	.st20{opacity:0.38;}
	.st21{fill:none;stroke:#1D1D1B;stroke-width:2;stroke-miterlimit:10;}
</style>
<g id="Capa_1_00000061462971477878255460000001757859541347993993_">
	<g id="Capa_13">
		<path class="st0" d="M78.4,40.4C68,45.8,57.3,51.2,45.8,53.3c-6.1,1.1-13.7,0.6-16.6-4.9c-2.4-4.6-0.1-10.2,2.9-14.5
			c2.5-3.6,5.9-7.1,10.3-7.8c4.7-0.8,9.1,1.8,13.8,2.5c7.1,1,13.9-2.5,20.9-4.2c12-2.9,24.7-0.6,36.8,2.1c3.4,0.8,6.9,1.5,10,3.3
			c7.4,4.3,10.7,13.2,11.9,21.6s1.1,17.2,4.2,25.2c3.6,9.4,11.2,16.6,16.9,24.9c1.1,1.4,1.9,3.1,2.3,4.8c0.9,4.9-3.1,9.2-6,13.2
			c-4.8,7-6.8,15.5-5.4,23.9c0.7,3.9,1.8,8.5-1,11.3c-2.1,2.1-5.6,1.9-8.4,1.1s-5.7-2.2-8.6-1.9c-6.3,0.4-10.4,7.6-16.7,8.8
			c-4.4,0.8-8.8-1.5-12.2-4.3s-6.3-6.5-6-10.7c0.3-3.9,3.3-7,5.9-9.9C114,123,121,103.8,120.6,84c-0.2-6.4-1.5-13.4-6.5-17.4
			c-1.7-1.2-3.4-2.2-5.3-3c-6.4-3.4-12-8.4-16.1-14.4c-1.5-2.2-2.8-4.5-4.8-6.2s-4.9-2.9-7.3-1.8"/>
		<path class="st0" d="M75.9,36.1c-4,2-8,4.1-12.2,6c-1,0.5-2,0.9-2.9,1.3c-0.1,0-1,0.4-0.5,0.2s-0.2,0.1-0.2,0.1
			c-0.6,0.3-1.3,0.5-1.9,0.8c-2.1,0.8-4.1,1.5-6.2,2.2s-4.4,1.2-6.6,1.7L44,48.7c-0.2,0-0.3,0-0.5,0.1c-0.9,0.2,0.2,0,0.3,0
			c-0.8,0-1.7,0.2-2.5,0.2c-0.8,0-1.6,0-2.4-0.1c-0.2,0-0.5,0-0.7-0.1c-0.6,0,0.5,0,0.5,0.1s-1.4-0.3-1.5-0.3l-1.1-0.3
			c-0.2,0-0.3-0.1-0.5-0.2c-0.6-0.2,0.9,0.5,0.3,0.1c-0.3-0.2-0.7-0.4-1-0.5c-0.2-0.1-0.3-0.2-0.5-0.3c-0.6-0.4,0.3,0.1,0.3,0.2
			c-0.2-0.3-0.5-0.5-0.8-0.7c-0.8-0.8,0.3,0.6-0.1-0.1c-0.3-0.4-0.5-0.8-0.7-1.2c0-0.1,0.3,0.9,0.1,0.3L32.9,45c0-0.1-0.1-0.8,0-0.1
			s0-0.1,0-0.3c-0.1-0.4-0.1-0.9,0-1.3c0,0-0.2,1,0,0.4c0-0.3,0.1-0.5,0.1-0.8c0.1-0.5,0.3-1,0.4-1.5s0.6-1.4,0.2-0.5
			c0.2-0.4,0.4-0.9,0.6-1.3c0.5-1,1.1-1.9,1.7-2.8c0.2-0.4,0.5-0.8,0.8-1.1l0.3-0.3c0.6-0.7,1.3-1.4,2-2.1c0.2-0.2,0.4-0.3,0.6-0.5
			s0.6-0.5,0.1-0.1s0.6-0.4,0.7-0.5s1.3-0.8,1.3-0.7l-0.3,0.1l0.9-0.3c0.2,0,0.3-0.1,0.5-0.1c0.2,0,0.9-0.1,0.3-0.1h1.1
			c0.3,0,0.6,0,0.9,0.1c-0.1,0-0.8-0.1-0.2,0c0.6,0.1,1.1,0.2,1.7,0.4c4.6,1.1,8.9,2.7,13.7,2.3S69.5,32,74,30.6
			c2.2-0.7,4.4-1.3,6.7-1.7l1.6-0.3c-0.9,0.1,0.5-0.1,0.8-0.1c1.2-0.1,2.3-0.2,3.5-0.2c2.4-0.1,4.7,0,7.1,0.1l3.3,0.3
			c0.6,0.1,1.1,0.1,1.7,0.2s-0.1,0-0.1,0c0.4,0.1,0.8,0.1,1.2,0.2c4.6,0.7,9.2,1.7,13.8,2.7c1,0.2,2,0.5,3,0.7
			c0.6,0.2,1.1,0.3,1.7,0.5c0.2,0.1,0.4,0.1,0.6,0.2s1.1,0.4,0.2,0.1c0.9,0.4,1.8,0.8,2.6,1.4c0.3,0.2,0.7,0.4,1,0.7
			c0.5,0.3-0.3-0.2-0.3-0.2s0.6,0.5,0.7,0.6c0.6,0.5,1.2,1.2,1.8,1.8c0.2,0.2,0.3,0.4,0.5,0.5c0.4,0.4-0.2-0.3-0.2-0.3
			c0,0.2,0.8,1.1,0.9,1.3c0.5,0.7,0.9,1.4,1.3,2.2l0.6,1.2c0.1,0.2,0.2,0.5,0.3,0.7c-0.1,0-0.4-1-0.1-0.2c1.3,3.4,2.3,7,2.7,10.7
			l0,0c0,0.2,0.1,0.5,0.1,0.7c0.1,0.5,0.1,1.1,0.2,1.6c0.1,1.2,0.2,2.4,0.4,3.7c0.2,2.5,0.5,5,0.9,7.5c0.5,4.7,1.8,9.3,3.6,13.6
			c1.7,3.7,3.8,7.2,6.3,10.4c1.4,1.9,2.9,3.8,4.4,5.6c0.6,0.8,1.2,1.5,1.8,2.3l0.9,1.2c0.1,0.2,0.3,0.3,0.4,0.5
			c-0.6-0.8,0,0,0.1,0.1c1.2,1.7,2.5,3.3,3.6,5.1c0.2,0.4,0.5,0.8,0.7,1.3c-0.4-0.9,0,0.2,0.1,0.6c0.2,0.6-0.1-0.3,0-0.4v0.7
			c0,0.1-0.1,0.7,0,0.7c-0.1-0.2,0.2-1,0-0.2c-0.1,0.4-0.3,0.8-0.4,1.2c-0.2,0.7,0.4-0.8,0.1-0.2c-0.1,0.2-0.2,0.3-0.2,0.5
			c-0.5,0.9-1,1.8-1.6,2.7c-1.1,1.6-2.3,3.1-3.4,4.7c-2.4,3.6-4.2,7.6-5.3,11.8c-1,4.2-1.4,8.6-0.9,13c0.1,1.3,0.4,2.6,0.6,3.8
			c0.1,0.4,0.1,0.7,0.2,1.1c0,0.2,0.1,0.5,0.1,0.7c0.2,1-0.1-0.7,0,0c0.1,0.9,0.1,1.7,0.1,2.6c0,0.1-0.1,0.4,0,0.5
			c-0.2-0.7,0.2-0.8,0-0.3c-0.1,0.2-0.1,0.4-0.2,0.6c-0.1-0.1,0.5-0.9,0.1-0.3c0,0-0.3,0.6-0.4,0.6s0.7-0.7,0.2-0.4
			c-0.2,0.2-0.7,0.4-0.2,0.2c0.7-0.2,0,0-0.1,0c-0.9,0.2,0.2,0.1,0.2-0.1l-0.7,0.2c-0.1,0-0.8,0.2,0,0s-0.2,0-0.4,0
			c-0.4,0-0.9,0-1.3-0.1c-0.6,0,0.4,0,0.4,0.1c0-0.1-0.6-0.1-0.7-0.1c-1-0.2-2-0.6-3-0.9c-2.4-0.9-4.9-1.4-7.4-1.5
			c-2.3,0-4.5,0.6-6.6,1.6c-3,1.4-5.4,3.7-8.1,5.5c-0.7,0.5-1.4,0.9-2.1,1.3c-0.1,0.1-0.3,0.1-0.4,0.2c-0.5,0.3,0.4-0.2,0.4-0.2
			c-0.4,0.2-0.9,0.3-1.4,0.4c-0.1,0-0.4,0.1-0.5,0.1c0.3,0.1,0.8,0,0.1,0h-1.4c-0.6,0,0.3,0.1,0.3,0.1c-0.3,0-0.5-0.1-0.8-0.2
			c-0.5-0.1-1.1-0.3-1.6-0.5c-0.9-0.3-0.1-0.1,0,0l-0.6-0.3c-0.4-0.2-0.9-0.5-1.3-0.7s-1-0.6-1.4-0.9c-0.2-0.1-0.4-0.2-0.5-0.4
			c-0.5-0.3,0.6,0.5-0.2-0.1c-0.7-0.6-1.4-1.2-2-1.9c-0.3-0.3-0.6-0.7-0.9-1c-0.1-0.1-0.2-0.3-0.4-0.5c0.7,0.9,0.1,0.1,0-0.1
			c-0.2-0.4-0.5-0.8-0.7-1.2c-0.1-0.2-0.2-0.5-0.3-0.7c0,0.1,0.3,1,0.1,0.1c0-0.1-0.3-1.1-0.3-1.1c0.2,0,0,1,0,0.2v-0.9
			c-0.1-0.6,0,0.4-0.1,0.4c0-0.3,0.1-0.5,0.2-0.8c0.1-0.2,0.2-0.5,0.2-0.7c0-0.1,0.3-0.7,0-0.1s0,0,0.1-0.1c0.1-0.3,0.2-0.5,0.4-0.7
			c0.3-0.4,0.6-0.9,0.9-1.3c0.5-0.8,0.1-0.1-0.1,0.1c0.1-0.2,0.2-0.4,0.4-0.5c0.3-0.4,0.6-0.7,0.9-1.1l2.1-2.4
			c1.5-1.7,2.9-3.5,4.3-5.3c2.4-3.3,4.6-6.7,6.5-10.3c3.9-7.5,6.8-15.4,8.4-23.7c1.6-8.3,2.3-17.1,0.6-25.4c-0.8-4.2-2.6-8-5.4-11.2
			c-3-3.3-7.2-4.8-10.8-7.1c-0.8-0.5-1.6-1-2.4-1.6c-0.2-0.2-0.5-0.4-0.7-0.5c0.2,0.1,0.8,0.6,0,0c-0.4-0.4-0.8-0.7-1.3-1
			c-1.5-1.3-2.9-2.7-4.3-4.2c-0.3-0.4-0.6-0.7-0.9-1.1c-0.1-0.2-1.2-1.5-0.5-0.6c-0.6-0.8-1.2-1.7-1.8-2.5c-1.3-1.9-2.5-3.8-4-5.6
			c-3.2-3.5-8.6-6-13.3-4.1c-2.4,1-4.4,3.4-3.5,6.2c0.8,2.3,3.6,4.5,6.2,3.5c0.2-0.1,0.5-0.2,0.7-0.2c0.7-0.3,0,0.3-0.2,0h0.6
			c0.7-0.1-0.9-0.2-0.2,0c0.2,0,1.2,0.2,1.3,0.4c0-0.1-0.8-0.5-0.2,0c0.3,0.2,0.5,0.4,0.8,0.5c0.6,0.4-0.6-0.6-0.1-0.1
			c0.1,0.2,0.3,0.3,0.4,0.4c0.4,0.4,0.7,0.8,1.1,1.2c-0.6-0.7,0.1,0.2,0.3,0.5c0.4,0.5,0.7,1,1,1.6c2.4,3.8,5.3,7.3,8.6,10.3
			c3.3,3,7,5.6,11,7.7c1,0.5,1.9,1,2.9,1.5c0.2,0.2,0.5,0.3,0.7,0.5s0.9,0.6,0.3,0.2s0,0,0.1,0.1c0.2,0.2,0.4,0.4,0.7,0.6l0.7,0.7
			c-0.4-0.5,0.3,0.4,0.4,0.7c0.3,0.4,0.5,0.8,0.7,1.2c0.1,0.2,0.2,0.3,0.2,0.5c0.3,0.6,0.3,0.4,0,0c0.4,0.8,0.8,1.7,0.9,2.6
			c0.3,1,0.4,1.9,0.6,2.9c0.1,0.6-0.1-0.4,0-0.4c0,0.2,0.1,0.6,0.1,0.8c0.1,0.5,0.1,1,0.1,1.5c0.1,1,0.1,2,0.1,3.1
			c0,2.1,0,4.1-0.2,6.2c-0.1,1-0.2,2.1-0.3,3.1c-0.1,0.5-0.1,1-0.2,1.4c0.2-1.1,0.1-0.3,0-0.1s-0.1,0.7-0.2,1
			c-0.7,4.1-1.6,8.2-2.9,12.2c-0.3,1-0.7,2-1,2.9c-0.2,0.4-0.3,0.9-0.5,1.3s-0.2,0.5-0.3,0.8c-0.1,0.1-0.5,1.2-0.2,0.6
			s-0.1,0.2-0.2,0.3c-0.1,0.2-0.2,0.4-0.2,0.6c-0.2,0.5-0.4,1-0.7,1.5l-1.5,3c-1.9,3.7-4.2,7.3-6.7,10.6c-0.1,0.1-0.6,0.8-0.2,0.3
			s-0.1,0.1-0.1,0.1l-1,1.3c-0.7,0.8-1.4,1.7-2.2,2.5c-1.6,1.7-3.1,3.6-4.5,5.5c-3,4.3-3.4,9.9-1.1,14.6c2,4.2,5.8,7.6,9.7,10.1
			c4.2,2.6,9.5,4.1,14.4,2.6c3.7-1.1,6.4-3.5,9.5-5.7c0.7-0.5,1.4-1,2.1-1.4c0.3-0.2,0.7-0.4,1-0.6l0.6-0.3c0.9-0.5-0.7,0.2-0.2,0.1
			l1.1-0.3l0.6-0.1c-0.2,0.3-1.1,0-0.4,0.1h1.5c0.8,0-0.7-0.2,0,0c0.4,0.1,0.7,0.2,1.1,0.2c4.5,1.2,8.8,3.2,13.6,1.7
			c5.3-1.7,8-6.7,7.7-12c-0.1-2.2-0.6-4.5-0.9-6.7c0-0.2-0.1-0.4-0.1-0.6c-0.1-0.8,0.1,0.9,0,0.1c0-0.5-0.1-1-0.1-1.4
			c-0.1-1.1-0.1-2.2,0-3.3c0-0.6,0.1-1.1,0.1-1.6c0-0.2,0.1-0.4,0.1-0.6c0.1-0.8-0.1,0.9,0,0.1c0.2-1.1,0.4-2.2,0.6-3.2s0.6-2,0.9-3
			c0.2-0.4,0.3-0.9,0.5-1.3c0.3-0.7-0.4,0.7,0,0.1c0.1-0.3,0.3-0.6,0.4-0.9c1.8-3.7,4.6-6.7,6.7-10.2c1.3-2.2,2.2-4.7,2.5-7.2
			c0.2-2.6-0.3-5.2-1.6-7.4c-1-1.9-2.2-3.7-3.6-5.3c-1.5-1.9-3-3.9-4.5-5.8c-0.6-0.8-1.3-1.6-1.9-2.4l-0.9-1.2c0.1,0.1,0.6,0.8,0,0
			c-0.2-0.3-0.4-0.6-0.6-0.8c-1.3-1.7-2.5-3.5-3.6-5.3c-0.5-0.8-1-1.7-1.4-2.5c-0.3-0.5-0.5-1-0.7-1.5c-0.1-0.3-0.7-1.7-0.3-0.7
			c-0.9-2.2-1.5-4.4-2-6.7l-0.6-3.3c0-0.2-0.1-0.4-0.1-0.7c0-0.1-0.1-1.1-0.1-0.5s0-0.3-0.1-0.5c-0.1-0.4-0.1-0.7-0.1-1.1
			c-0.3-2.3-0.5-4.6-0.7-6.8c-0.4-4.5-1.1-8.9-2.3-13.2c-1.1-3.9-2.9-7.6-5.2-10.9c-2.8-3.9-6.8-6.9-11.3-8.6
			c-4.3-1.7-9-2.5-13.5-3.4c-5.1-1-10.3-1.8-15.5-2.2c-5.1-0.3-10.2-0.1-15.2,0.8c-4.6,0.8-8.9,2.6-13.4,3.8
			c-1.1,0.3-2.2,0.5-3.3,0.7c-0.2,0-1.1,0.2-0.4,0.1s-0.1,0-0.2,0c-0.7,0.1-1.3,0.1-2,0.1h-1.5c-0.3,0-0.6,0-0.9-0.1
			c1,0.1,0.2,0,0,0c-1.2-0.3-2.3-0.5-3.5-0.9c-4.7-1.4-9.7-2.7-14.5-0.8c-4.6,1.8-8,5.3-10.8,9.3c-2.6,3.8-4.7,8.4-4.6,13.1
			c0.1,4.9,2.7,9.4,6.9,11.9c3.5,1.9,7.6,2.8,11.6,2.5c9.4-0.3,18.6-4.1,27-8c4.2-1.9,8.3-4,12.4-6.1c2.4-1.4,3.2-4.4,1.8-6.8
			C81.5,35.8,78.4,34.8,75.9,36.1L75.9,36.1z"/>
		<path class="st0" d="M44.6,63.7c-5.4-0.1-10.1,3.5-11.5,8.7c-1.5,6.2,2.1,12.9,0,18.9c-1.9,5.4-8,8.4-10.2,13.7
			c-1.3,3.3-0.9,7,1.1,10c1.6,2.4,4.4,4.6,3.9,7.4c-0.3,1.9-1.9,3.2-3.1,4.7c-2,2.6-2.8,5.9-3.4,9.1s-1.1,6.5,0,9.5s4.2,5.5,7.3,4.8
			c2.7-0.6,4.5-3.4,7.3-3.9c2.6-0.5,5.1,1.3,7.3,2.9s4.8,3.2,7.4,2.4c1.2-0.5,2.3-1.3,3.3-2.2c2.7-2.2,5.8-3.7,9.2-4.5
			c0.3-0.1,0.7-0.2,1-0.4c0.9-0.7,0.1-2.1-0.7-3c-8.3-8.9-13.9-20-17.2-31.7s-4.4-23.9-4.4-36c0-3.3,0.1-6.7,1.3-9.8"/>
		<path class="st0" d="M44.6,58.7c-4.4,0-8.7,1.7-11.9,4.8c-3.2,3.1-5,7.4-5.1,11.9c0,2.3,0.2,4.6,0.6,6.8c0.1,0.5,0.1,0.9,0.2,1.4
			s0-0.3,0-0.3c0,0.3,0.1,0.6,0.1,0.8c0.1,0.9,0.2,1.9,0.2,2.8c0,0.2,0.1,1.4-0.1,1.6c0,0,0.2-1,0-0.3c0,0.2-0.1,0.4-0.1,0.6
			c-0.1,0.4-0.3,0.9-0.4,1.3c-0.2,0.7,0.4-0.8,0.1-0.2l-0.3,0.6c-0.2,0.3-0.4,0.7-0.6,1c-0.1,0.1-0.4,0.4-0.4,0.6
			c0,0,0.6-0.7,0.2-0.3c-0.6,0.7-1.1,1.3-1.8,2c-2.8,2.9-5.6,5.8-7.2,9.6c-1.6,4.4-1.3,9.2,1,13.3c0.6,1,1.3,2,2.1,2.9
			c0.3,0.3,0.6,0.6,0.8,1c0.1,0.2,0.2,0.3,0.4,0.4c0.4,0.5-0.6-1,0,0l0.6,0.9c0.5,0.9-0.1-0.3-0.1-0.2l0.2,0.7c0,0-0.2-1.1-0.1-0.5
			s0.1-0.4,0.1-0.4c-0.1,1.1-0.1-0.2,0.1-0.2c0,0-0.3,0.7-0.4,0.6c0.1,0,0.6-0.7,0.1-0.1c-0.1,0.2-0.2,0.3-0.4,0.4
			c-0.3,0.3-0.6,0.7-0.9,1c-0.8,1-1.6,2.1-2.2,3.2c-1.1,2-1.8,4.2-2.3,6.4c-1,4.6-2,9.8-0.3,14.3s6.1,8.7,11.2,8.4
			c2.3-0.1,4.6-1,6.4-2.4c0.6-0.4,1.2-0.9,1.9-1.3c0.3-0.2,0.7-0.4,1-0.6c-0.2,0.3-1,0.1-0.2,0.2h-0.2c0.9-0.1-0.3,0.1-0.2-0.1
			c0,0,0.5,0.1,0.6,0.1s0.9,0.3,0.3,0.1s0,0,0.1,0.1c0.9,0.5,1.8,1.1,2.6,1.7c1.8,1.5,3.9,2.6,6.2,3.3c2.8,0.7,5.7,0.3,8.1-1.3
			c1-0.7,2-1.5,2.9-2.3c-0.7,0.6,0.3-0.2,0.5-0.4l1.5-0.9c0.4-0.2,0.9-0.5,1.3-0.7c0.3-0.1,0.6-0.2,0.8-0.4c-0.1,0-0.7,0.3-0.2,0.1
			c1-0.4,2-0.7,3.1-1c3.6-1,6-4.5,4.6-8.1c-0.8-2.4-2.7-4.1-4.3-5.9c-0.3-0.4-0.6-0.8-0.9-1.1c-0.2-0.2-0.4-0.5-0.5-0.7
			c0,0.1,0.5,0.6,0.1,0.2c-0.6-0.8-1.3-1.7-1.9-2.6c-2.3-3.4-4.3-6.9-6.1-10.6c-0.4-0.8-0.8-1.6-1.1-2.5l0,0
			c-0.1-0.2-0.2-0.4-0.2-0.6c-0.2-0.5-0.4-1.1-0.6-1.6c-0.7-1.9-1.4-3.9-2-5.8c-1.3-4.3-2.3-8.6-3-13c-0.2-1.1-0.3-2.2-0.5-3.3
			s0-0.3,0-0.1c0-0.2-0.1-0.5-0.1-0.7c-0.1-0.6-0.2-1.3-0.2-1.9l-0.6-6.9c-0.4-4.5-0.5-9-0.3-13.5c0-0.5,0.1-1.1,0.1-1.6
			c0.1-1,0-0.2,0,0c0-0.2,0.1-0.4,0.1-0.7c0.2-1.1,0.5-2.2,0.9-3.2c1-2.4-1-5.6-3.5-6.2c-2.9-0.7-5.1,0.9-6.1,3.5
			c-1.6,4.1-1.5,8.7-1.5,13.1s0.2,8.6,0.6,12.9c0.7,8.8,2.4,17.5,5,26c2.4,7.6,5.8,14.8,10.2,21.4c1.2,1.8,2.5,3.6,3.9,5.3l1.8,2.1
			c0.3,0.4,0.7,0.7,1,1.1c0.2,0.1,0.3,0.3,0.4,0.5c0.5,0.4-0.3-0.7-0.1-0.1s-0.1-0.4-0.1-0.4c0.4-0.7,0.9-1.5,1.3-2.2
			c1.8-1.8,2.1-2.5,1-2.1l-1.2,0.3c-1.2,0.4-2.4,0.9-3.6,1.4c-1.8,0.7-3.5,1.7-5,2.9c-0.6,0.5-1.2,0.9-1.8,1.4
			c-0.3,0.3-1,0.7-0.2,0.2c-0.2,0.1-0.5,0.3-0.7,0.4s-0.7,0.3-0.1,0.1s-0.1,0-0.2,0c0.5-0.1,0.6,0,0.1-0.1c1,0.2-0.1-0.1-0.5-0.2
			s0.1,0.1,0.2,0.1l-0.6-0.3c-0.9-0.5-1.7-1.1-2.5-1.7c-1.7-1.3-3.6-2.4-5.6-3.1c-2.6-0.8-5.5-0.5-7.9,0.7c-1.4,0.7-2.6,1.8-3.9,2.6
			c-0.2,0.1-1.1,0.7-0.5,0.3s0.1,0,0,0s-0.1,0-0.2,0.1c-0.4,0.1-0.2,0.1,0.5,0h-0.5c-0.5,0.1,0.4,0,0.5,0.1
			c-0.1-0.1-0.4-0.1-0.5-0.1c-1-0.3,0.1-0.1,0.1,0.1l-0.9-0.6c0.1,0,0.6,0.6,0.3,0.2c-0.1-0.2-0.3-0.4-0.5-0.5
			c-0.4-0.4,0.3,0.2,0.2,0.3l-0.3-0.4c-0.1-0.2-0.2-0.3-0.3-0.5c-0.5-0.9,0.1,0.7,0,0c-0.1-0.4-0.2-0.9-0.3-1.3
			c-0.2-0.6,0,0.1,0,0.2c0-0.3,0-0.6-0.1-0.9v-1.4c0-0.3,0-0.6,0.1-0.9v-0.1c0.2-1.9,0.6-3.8,1.1-5.7c0.2-0.9,0.5-1.7,0.8-2.5
			c-0.3,0.8,0,0.1,0.2-0.3s0.6-0.9,0.9-1.4c-0.5,0.7-0.1,0.1,0.2-0.2s0.6-0.7,0.9-1c0.9-1,1.6-2.1,2.2-3.3c1.1-2.6,0.9-5.4-0.3-7.9
			c-0.9-1.7-2.1-3.3-3.4-4.7l-0.4-0.4c0.1,0.5,0.4,0.6,0.1,0.1c-0.2-0.3-0.4-0.7-0.6-1c0-0.1-0.4-0.7-0.1-0.1s0-0.1-0.1-0.3
			c-0.1-0.4-0.2-0.9-0.4-1.3c-0.2-0.8,0,0.2,0,0.2v-1.8c0-0.6,0,0.4-0.1,0.4s0.1-0.7,0.1-0.8c0.1-0.4,0.3-0.9,0.4-1.3
			c0.2-0.7-0.4,0.8-0.1,0.2c0.1-0.2,0.2-0.3,0.2-0.5c0.2-0.3,0.4-0.6,0.5-0.9c0.1-0.2,0.9-1.2,0.4-0.6s0.4-0.4,0.5-0.6
			c2.3-2.7,5-5,7-8c2.1-3.6,2.9-7.7,2.4-11.8c-0.1-1.2-0.3-2.4-0.5-3.6c-0.1-0.4-0.1-0.8-0.2-1.2c0-0.2-0.2-1,0,0.1
			c0-0.3-0.1-0.6-0.1-0.8c-0.1-0.9-0.2-1.7-0.2-2.6v-1.8c0.1-1.2-0.2,0.6,0-0.1c0.1-0.4,0.2-0.7,0.3-1.1c0.1-0.2,0.2-0.5,0.2-0.7
			c0.2-0.5-0.1,0.4-0.2,0.4c0.1,0,0.4-0.8,0.5-0.9c0.1-0.2,0.2-0.4,0.4-0.6c0.4-0.7,0,0.2-0.1,0.2c0.2,0,1.4-1.4,1.6-1.6
			c0.4-0.4-0.3,0.2-0.3,0.2l0.4-0.3c0.4-0.3,0.8-0.4,1.2-0.7S41,69.3,41,69.2c0.2-0.1,0.5-0.2,0.7-0.2c0.3-0.1,0.7-0.2,1-0.3
			s0.3-0.1,0.5-0.1c0.5-0.1-0.4,0.1-0.5,0.1c0.5,0,0.9,0,1.4-0.1c2.8,0,5-2.2,5-5l0,0C49.5,61,47.4,58.8,44.6,58.7L44.6,58.7z"/>
		<path class="st1" d="M82.3,48.9c0.5-0.2,0.9-0.5,1.4-0.7c0.1-0.1,1-0.4,0.5-0.2s0.2-0.1,0.3-0.1c0.5-0.2,1-0.3,1.5-0.4
			c0.7-0.2-0.7-0.1,0,0c0.3,0,1.1,0.2,0.2-0.1c0.2,0.1,0.4,0.1,0.6,0.2c0.6,0.1-0.7-0.5-0.2-0.1c0.2,0.1,0.3,0.2,0.5,0.3
			c0.7,0.4-0.2,0-0.2-0.1l0.9,0.9l0.4,0.4c-0.4-0.5-0.4-0.6-0.2-0.3c0.1,0.1,0.1,0.2,0.2,0.3c2.1,3.1,3.6,6.6,5.7,9.8
			c2.2,3.7,5.2,6.9,8.8,9.4c2,1.3,4.1,2.3,6.3,3c1,0.4,1.9,0.7,2.9,1.1c0.2,0.1,1.8,0.8,0.8,0.3c0.6,0.2,1.1,0.5,1.6,0.8
			c0.4,0.2,0.8,0.4,1.2,0.7c0.2,0.1,0.3,0.2,0.5,0.3c-0.8-0.6-0.3-0.2-0.1,0l0.4,0.4c0.5,0.4-0.3-0.7,0-0.1c0.1,0.2,0.2,0.3,0.3,0.5
			c0.7,1-0.1-0.5,0.1,0.2c0.2,0.5,0.3,0.9,0.4,1.4c0.1,0.3,0.1,0.6,0.2,0.8s0.2,0.8,0.1,0.2s0,0.3,0,0.5c0,0.2,0,0.5,0.1,0.7v1.8
			c0,0.6-0.1,1.2-0.1,1.8c0,0.2,0,0.5-0.1,0.7c0,0.1-0.1,1.1-0.1,0.5s0,0.2,0,0.2c-0.1,0.3-0.1,0.6-0.2,0.9l-0.3,1.8
			c-0.4,2.2-0.9,4.4-1.2,6.7c-0.4,2.6-0.7,5.3-0.7,7.9c0,1.1-0.1,2.2-0.1,3.3c0,0.5-0.1,1.1-0.2,1.6c0.1-1.1-0.1,0.4-0.2,0.8
			c-0.2,1-0.4,2-0.8,2.9c-0.2,0.5-0.4,1.1-0.6,1.6c-0.1,0.2-0.2,0.4-0.2,0.6c-0.3,0.7,0.5-1.1-0.1,0.2c-0.8,1.9-1.8,3.7-2.9,5.4
			c-0.7,1-1.3,2-2,3c-0.3,0.5-0.7,0.9-1,1.4c0,0.1-0.5,0.6-0.1,0.2s-0.3,0.4-0.4,0.5l-4.8,5.7c-3.5,4-6.9,8.1-9.9,12.5
			c-1.4,2.3-0.6,5.4,1.7,6.8c0,0,0.1,0,0.1,0c2.4,1.3,5.4,0.5,6.8-1.8c0.6-0.9,1.3-1.9,1.9-2.8c0.2-0.2,0.4-0.4,0.5-0.7
			c0.5-0.6-0.4,0.6,0.1-0.1c0.4-0.6,0.8-1.1,1.3-1.6c1.5-1.8,3-3.6,4.5-5.3c3.3-3.7,6.3-7.5,9.1-11.6c2.7-3.9,4.7-8.2,6-12.7
			c0.7-2.6,1-5.2,1.1-7.9c0.1-1.2,0.1-2.4,0.1-3.6c0-0.6,0.1-1.1,0.1-1.7c0-0.3,0.1-0.6,0.1-0.9c0,0,0.2-1.3,0.1-0.7
			s0.1-0.3,0.1-0.5s0.1-0.6,0.2-0.9c0.1-0.5,0.2-1.1,0.3-1.6c0.2-1.3,0.5-2.6,0.8-3.9c0.5-2.6,0.9-5.3,1.1-8
			c0.3-5.2-0.8-11.3-5-14.9c-2.1-1.7-4.5-3.1-7.1-4c-1-0.4-2.1-0.8-3.1-1.1c-0.6-0.2-1.1-0.4-1.6-0.6s0.1,0,0.2,0.1l-1.2-0.6
			c-0.4-0.2-0.8-0.5-1.3-0.7c-0.2-0.1-0.4-0.3-0.6-0.4s-0.8-0.5-0.2-0.2s0,0-0.1-0.1s-0.4-0.3-0.6-0.5l-1.2-1.2
			c-0.3-0.3-0.6-0.6-0.9-1c-0.2-0.2-0.3-0.4-0.5-0.6c-0.6-0.7,0,0,0.1,0.1c-0.7-0.8-1.2-1.7-1.8-2.5c-2.6-4-4.4-8.7-7.6-12.3
			c-2.1-2.4-5-3.8-8.2-4c-3.3-0.2-6.5,1.3-9.4,2.8c-2.4,1.4-3.2,4.4-1.8,6.8c1,2.4,3.7,3.6,6.1,2.6C81.9,49.1,82.1,49,82.3,48.9
			L82.3,48.9z"/>
		<path class="st2" d="M124.6,99.6c0.3,0.1,0.6,0.2,0.8,0.4c0.1,0,0.4,0.3,0.2,0.1l0.3,0.3l0.3,0.3c-0.1-0.2,0,0,0.1,0.1l0.1,0.2
			c0.1,0.1,0.1,0.3,0.1,0.4v0.2l0,0v0.2c0,0.1-0.1,0.2-0.1,0.3s-0.1,0.2,0,0c0,0.1-0.1,0.1-0.1,0.2c-0.1,0.1-0.2,0.2-0.2,0.4
			c0,0.1-0.1,0.1-0.1,0.2l0,0l-0.6,0.6l-0.1,0.1c-0.1,0.1-0.2,0.2-0.4,0.2c-0.1,0-0.1,0.1-0.2,0.1l0,0c-0.1,0-0.3,0.1-0.4,0.1
			c0.3-0.1-0.2,0-0.2,0s-0.4-0.1-0.1,0c-0.1,0-0.5-0.2-0.2-0.1c-0.1-0.1-0.2-0.1-0.3-0.2l-0.1-0.1c-0.1-0.1-0.1-0.1-0.1-0.2l0,0
			c-0.1-0.1-0.1-0.2-0.2-0.3s-0.1-0.1-0.1-0.2l0,0c-0.1-0.3-0.2-0.6-0.2-0.9v-0.8c0-0.7-0.5-1.2-1.2-1.2c-0.7,0-1.2,0.5-1.2,1.2
			c0,1.4,0.4,2.7,1.2,3.8c0.9,1.1,2.3,1.5,3.7,1.2c1.3-0.4,2.4-1.2,3.2-2.3c0.9-1.1,1.1-2.6,0.7-3.9c-0.5-1.4-1.6-2.4-2.9-3
			c-0.6-0.4-1.3-0.2-1.7,0.4C123.8,98.5,123.9,99.4,124.6,99.6L124.6,99.6z"/>
		<path class="st3" d="M124.5,106.7c-0.3,1.6-0.7,3.2-1.3,4.7c0.8,0.2,1.6,0.4,2.4,0.7c0.5-1.8,0.9-3.6,1.1-5.4
			c-0.8,0.2-1.6,0.4-2.3,0.6c0.4,0.7,0.8,1.3,1.2,2.1c0.3,0.6,0.6,1.3,0.9,2c0.8-0.3,1.6-0.6,2.3-1c-0.8-1.2-1.4-2.4-2.8-2.8
			c-1.3-0.4-2.7-0.5-4.1-0.5c0.1,0.8,0.2,1.6,0.3,2.5c2.5-0.4,4.9-1,7.2-1.9c0.7-0.2,1.1-0.8,0.9-1.5c-0.2-0.6-0.8-1-1.5-0.9
			c-2.3,0.9-4.7,1.5-7.2,1.9c-0.6,0.2-1,0.8-0.9,1.4c0.1,0.6,0.6,1.1,1.2,1.1c0.6,0,1.1,0,1.7,0.1c0.5,0,1,0.1,1.5,0.3
			c0.1,0,0.2,0.1,0.3,0.1l0,0c0.1,0.1,0.1,0.1,0.1,0l0.2,0.2l0.1,0.1l0,0c0.3,0.5,0.6,0.9,0.9,1.4c0.3,0.5,1,0.8,1.6,0.5
			c0.6-0.3,0.9-0.9,0.7-1.5c-0.6-1.6-1.4-3.2-2.3-4.7c-0.3-0.5-0.9-0.7-1.4-0.6c-0.5,0.1-0.9,0.6-0.9,1.2c0,0.2,0,0.4-0.1,0.6v0.4
			c-0.1,0.4-0.1,0.9-0.2,1.3c-0.2,0.8-0.4,1.7-0.6,2.5c-0.2,0.7,0.1,1.4,0.8,1.6c0.7,0.2,1.4-0.1,1.6-0.8c0-0.1,0-0.1,0-0.2
			c0.5-1.5,1-3.1,1.3-4.7c0.2-0.7-0.2-1.3-0.9-1.5C125.4,105.7,124.7,106,124.5,106.7L124.5,106.7z"/>
	</g>
	<g id="colores">
		<path class="st4" d="M46.7,61.1c-0.2,18.2,1.3,36.5,4.6,54.4c1,5.3,2.1,10.6,4.6,15.3s6.6,8.9,11.8,10.3c2.8,0.7,5.7,0.8,8.6,0.4
			c6.8-0.6,13.6-2.5,19-6.6c5.9-4.4,9.7-11.1,13.1-17.6c4.5-8.4,8.8-17,10.8-26.3c1-4.4,1.4-9.1,0.1-13.4c-0.2-0.8-0.5-1.5-1.1-2.1
			c-0.8-0.7-1.8-1.2-2.8-1.4c-11.9-4-21.7-12.4-27.5-23.5c-1.2-2.4-2.8-5.3-5.5-5.3c-1.4,0.1-2.7,0.6-3.8,1.5
			c-10,6.1-20.8,11-32.1,14.4"/>
		<path class="st4" d="M44.2,61.1c-0.1,10.2,0.3,20.5,1.3,30.7c0.9,10.1,2.4,20.2,4.5,30.1c2,8.2,6.1,17,14.3,20.7
			c4.4,2,9.2,1.9,13.9,1.3c4.6-0.5,9.1-1.8,13.3-3.7c8.2-3.9,13.5-11.2,17.7-19c4.6-8.4,9.1-17,11.7-26.3c1.3-4.7,2.2-9.6,1.6-14.5
			c-0.3-2.4-0.8-5.2-2.7-6.9c-1.6-1.5-4-1.9-6-2.6C106.4,68,100,63.2,95,57c-1.2-1.5-2.3-3.1-3.3-4.7c-1-1.7-1.8-3.5-2.9-5.2
			c-1-1.9-2.6-3.3-4.6-4.1c-2.2-0.8-4.5,0-6.4,1.1c-8,5-16.5,9.1-25.4,12.3c-2.2,0.8-4.4,1.5-6.7,2.2c-3.1,0.9-1.8,5.8,1.3,4.8
			c8.6-2.6,17-6.1,25-10.3c1.9-1,3.8-2.1,5.7-3.2c0.9-0.5,1.8-1.1,2.7-1.6c0.6-0.5,1.3-0.7,2.1-0.6c1.2,0.3,2,2.1,2.6,3.1
			c0.9,1.6,1.7,3.2,2.7,4.7c4.2,6.6,9.9,12.1,16.6,16.1c3.3,2,6.8,3.6,10.5,4.8c0.7,0.1,1.3,0.5,1.7,1c0.4,0.9,0.7,2,0.8,3
			c0.3,2.2,0.2,4.4-0.1,6.6c-1.2,8.9-5.1,17.3-9.2,25.2c-3.7,7.2-7.5,14.9-13.9,20.1c-3.2,2.5-6.9,4.3-10.8,5.2
			c-4.1,1.2-8.4,1.7-12.6,1.4c-8-0.6-12.9-7.7-15.1-14.7c-1.3-4.3-2.2-8.7-2.8-13.2c-0.8-4.7-1.5-9.4-2-14.1
			c-1.1-9.6-1.7-19.2-1.8-28.8v-7.3C49.2,57.8,44.2,57.8,44.2,61.1L44.2,61.1z"/>
		<path class="st5" d="M46.7,88c-0.2-1.2-0.4-2.4-0.5-3.7c-0.1-0.8-0.1-1.7,0-2.5c0.2-2.5,1.5-4.9,3.7-6.2c2.2-1.3,5-0.9,6.7,1.1
			c0.5,0.7,0.8,1.5,1.1,2.3c0.6,1.7,1,3.4,1.4,5.1v0.4c-0.1,0.2-0.3,0.2-0.4,0.3c-4,1.7-8.1,3.1-12.2,4.4"/>
		<path class="st5" d="M47.9,87.7c-0.6-2.4-0.7-4.8-0.1-7.2c0.4-1.8,1.7-3.2,3.4-3.9c1.6-0.6,3.3-0.1,4.4,1.1c0.6,0.9,1.1,1.9,1.3,3
			c0.2,0.6,0.4,1.3,0.5,1.9c0.1,0.3,0.2,0.7,0.2,1c0,0.2,0.1,0.3,0.1,0.5s0,0.3,0.1,0.1c0.1-0.2,0.3-0.3,0.5-0.4
			c-0.9,0.5-1.9,0.9-2.9,1.2c-1,0.4-2,0.8-3,1.1c-2.1,0.8-4.2,1.4-6.3,2.1c-1.5,0.5-0.9,2.9,0.7,2.4c3.3-1,6.7-2.2,9.9-3.5
			c0.8-0.3,1.5-0.6,2.3-0.9c1-0.3,1.5-1.3,1.3-2.3c-0.3-1.6-0.7-3.2-1.3-4.8c-0.4-1.5-1.2-2.8-2.3-3.8c-1-0.9-2.3-1.3-3.7-1.4
			c-2.8-0.1-5.4,1.4-6.8,3.8c-1.9,3.2-1.5,7.2-0.8,10.7C45.8,89.9,48.2,89.3,47.9,87.7L47.9,87.7z"/>
		<path class="st5" d="M80.2,80.9c0.1-2.6-0.9-5.3-0.2-7.8c0.8-2.7,3.7-4.5,6.6-4.7c0.8-0.1,1.7,0,2.4,0.4c0.6,0.4,1.1,0.9,1.5,1.5
			c1.5,2.2,2.4,4.7,2.6,7.4c0,0.2,0,0.5-0.1,0.7c-0.2,0.6-0.8,0.8-1.4,0.9c-3.9,0.9-7.8,1.6-11.7,2.2"/>
		<path class="st5" d="M81.4,80.9c0-1.4-0.2-2.8-0.3-4.2c-0.2-1.2-0.1-2.5,0.3-3.7c0.9-1.8,2.7-3.1,4.7-3.3c1.1-0.3,2.3,0,3.1,0.8
			c0.8,0.9,1.4,2,1.8,3.1c0.5,1.2,0.8,2.4,1,3.7v0.6c-0.1-0.1,0.3-0.1,0-0.1c0,0-0.4,0.2-0.3,0.1c-0.7,0.2-1.4,0.3-2.1,0.5
			c-3.3,0.7-6.6,1.3-9.9,1.8c-0.7,0.2-1.1,0.8-0.9,1.5c0.2,0.6,0.8,1,1.5,0.9c3.6-0.5,7.1-1.1,10.6-1.9c1.5-0.3,3.3-0.7,3.5-2.5
			c0-1.6-0.2-3.1-0.8-4.6c-0.5-1.5-1.2-2.9-2.2-4.2c-0.9-1.4-2.5-2.3-4.2-2.3c-2.8-0.1-5.4,1.1-7.2,3.3c-1.1,1.3-1.6,3-1.6,4.7
			c0,1.9,0.5,3.8,0.4,5.7C78.9,82.5,81.4,82.5,81.4,80.9z"/>
		<path class="st6" d="M40,90c1.3,0.7,2.2,1.9,3.6,2.4c1.7,0.7,3.3-0.1,4.9-0.9c3.5-1.7,7.4-2.6,11.1-3.7c0.7-0.2,1-0.9,0.8-1.6
			c-0.2-0.7-0.9-1-1.5-0.8c-3.5,0.8-6.9,1.9-10.2,3.2c-0.8,0.3-1.6,0.8-2.4,1.1C45.7,90,45,90.2,44.4,90c-1.2-0.4-2.1-1.7-3.3-2.2
			c-0.6-0.3-1.3,0-1.6,0.6C39.2,89,39.4,89.7,40,90z"/>
		<path class="st6" d="M39.7,90.2c0.8,1.2,2.1,2.1,3.5,2.5c1.7,0.3,3.4,0.1,4.9-0.6c3.6-1.2,7.2-2.5,10.8-3.7
			c1.5-0.5,0.9-2.9-0.7-2.4c-3,1.1-6.1,2.1-9.1,3.1c-2.3,0.8-5.5,2.4-7.3-0.2C41,87.7,38.8,88.9,39.7,90.2z"/>
		<path class="st6" d="M81.3,84.4c3.9-0.3,7.7-0.8,11.5-1.7c3.4-0.8,5.9-3,8.3-5.4c-0.7-0.5-1.3-1-2-1.5c-0.8,1.3-1.9,2.4-3.1,3.4
			c-1.5,0.8-3.1,1.4-4.7,1.7c-3.5,0.9-7,1.7-10.5,2.3c0.2,0.8,0.4,1.6,0.7,2.4l11.3-2.4c1.6-0.2,3.1-0.7,4.4-1.6
			c1.2-0.9,1.9-2.2,3.1-3.1s0.1-3.1-1.3-2.2c-1.1,0.9-2.1,1.9-3.1,3c-1.2,1.1-2.8,1.2-4.3,1.5c-3.6,0.8-7.3,1.6-10.9,2.3
			c-1.6,0.3-0.9,2.7,0.7,2.4c3.9-0.7,7.8-1.6,11.6-2.7c1.7-0.4,3.4-1.1,4.9-2.1c1.3-1.1,2.5-2.4,3.4-3.8c0.8-1.2-1-2.5-2-1.5
			c-2.2,2.2-4.4,4.2-7.5,4.8c-3.5,0.7-7,1.2-10.5,1.5C79.8,82,79.7,84.5,81.3,84.4z"/>
		<path class="st6" d="M81,82.1c-0.4,0-0.8-0.1-1.2-0.1c-0.3,0-0.7,0.1-1,0.2c-0.2,0.1-0.5,0.4-0.6,0.6C78,83.1,78,83.4,78,83.6v0.2
			c0,0.2,0,0.4,0.1,0.6c0.1,0.2,0.2,0.5,0.3,0.7c0.1,0.2,0.3,0.4,0.5,0.6c0.3,0.2,0.6,0.4,0.9,0.5c0.2,0,0.3,0.1,0.5,0.1
			c0.1,0,0.3,0,0.4-0.1h0.1c0.2-0.1,0.3-0.1,0.5-0.2c0.2-0.2,0.4-0.4,0.6-0.6c0.1-0.1,0.1-0.3,0.2-0.5v-0.5
			c-0.1-0.3-0.3-0.6-0.6-0.8c-0.3-0.2-0.7-0.2-1-0.1c-0.1,0-0.2,0.1-0.3,0.1s-0.3,0.3-0.4,0.4l0,0c0.1-0.1,0.1-0.2,0.2-0.2l-0.1,0.1
			c0.1-0.1,0.2-0.1,0.2-0.2L80,83.8c0.1,0,0.2-0.1,0.3-0.1h0.2c-0.1,0-0.1,0-0.2-0.1c0.1,0,0.2,0.1,0.3,0.1c-0.1,0-0.1-0.1-0.2-0.1
			c0.1,0.1,0.2,0.1,0.2,0.2l-0.2-0.2c0.1,0.1,0.1,0.2,0.2,0.2c-0.1-0.1-0.1-0.2-0.2-0.3c0,0.1,0.1,0.2,0.1,0.3
			c-0.1-0.2-0.1-0.3-0.1-0.5v0.3c0,0.1-0.1,0.2-0.1,0.3c0-0.1,0-0.1,0.1-0.1c-0.1,0.1-0.1,0.2-0.2,0.2l0.1-0.1
			c-0.1,0.1-0.2,0.1-0.2,0.2h0.1c-0.1,0-0.2,0.1-0.3,0.1h0.5c0.3,0,0.5,0,0.8,0.1c0.2,0,0.3,0,0.5-0.1c0.2-0.1,0.3-0.1,0.4-0.3
			c0.1-0.1,0.2-0.2,0.3-0.4c0.1-0.2,0.1-0.3,0.1-0.5c0-0.3-0.1-0.7-0.4-0.9C82,82,81.9,82,81.9,81.9C81.6,82.1,81.3,82.2,81,82.1
			L81,82.1z"/>
		<path class="st0" d="M80.7,61c0.8,0.8,1.9,1.3,3,1.5c1.1,0.1,2.3,0.1,3.4-0.1c1.4-0.2,3-0.5,3.9-1.6c0.5-0.8,0.8-1.7,0.7-2.7
			c0-0.7-0.2-1.4-0.6-2c-0.5-0.6-1.2-0.9-2-1c-2.3-0.2-4.4,1.2-6.4,2.3c-2.9,1.4-6.1,2.1-9.3,1.9c1.3,1.2,2.8,2.2,4.4,3
			c1,0.6,2.1,0.8,3.2,0.5"/>
		<path class="st0" d="M79.8,61.9c2,2,4.8,2,7.4,1.7c2.4-0.3,4.8-1,5.6-3.6c0.7-2.4-0.1-5.3-2.8-6s-5,0.8-7.2,2
			c-2.9,1.5-6.1,2.2-9.4,2.1c-0.7,0-1.2,0.5-1.2,1.2c0,0.3,0.1,0.6,0.3,0.9c1.2,1.2,2.6,2.2,4.1,3c1.4,0.9,3.1,1.3,4.8,0.9
			c1.5-0.5,0.9-2.9-0.7-2.4c-1.2,0.4-2.4-0.4-3.4-1c-1.1-0.6-2.1-1.4-3-2.3l-0.9,2.1c2.8,0.1,5.6-0.3,8.3-1.3
			c1.2-0.5,2.4-1.1,3.6-1.7c1.1-0.7,2.3-1.1,3.6-1.1c1.3,0.1,1.7,0.9,1.6,2.2c0,1.1-0.7,2-1.7,2.3c-1.3,0.2-2.5,0.3-3.8,0.3
			c-1.3,0.1-2.6-0.3-3.5-1.2C80.4,58.9,78.6,60.7,79.8,61.9L79.8,61.9z"/>
		<path class="st0" d="M43.4,71.3c3.9-1.2,7.9-2.4,11.8-3.6c0.7-0.1,1.4-0.5,1.9-1.1c0.7-1,0.2-2.3-0.4-3.4
			c-0.2-0.3-0.4-0.6-0.7-0.8c-0.5-0.3-1-0.1-1.6,0.1c-2.8,1-5.6,1.9-8.4,2.9c-1.3,0.5-2.7,0.9-4,1.5c-0.4,0.1-0.8,0.4-1.1,0.8
			c-0.6,0.9,0,2,0.6,2.9c0.2,0.3,0.4,0.6,0.7,0.8c0.3,0.2,0.7,0.1,0.9-0.2c0,0,0,0,0,0"/>
		<path class="st0" d="M43.8,72.5c3.4-1,6.8-2.1,10.2-3.1c1.4-0.4,3.1-0.7,4.1-1.8c0.9-1.2,1-2.8,0.3-4.1c-0.7-1.5-1.7-2.7-3.5-2.3
			c-1.7,0.5-3.3,1-4.9,1.7c-1.6,0.6-3.3,1.1-4.9,1.7c-0.8,0.3-1.5,0.5-2.3,0.8c-0.8,0.2-1.5,0.6-2.2,1.1c-1.5,1.3-0.9,3.3,0,4.7
			c0.4,0.6,0.9,1.1,1.6,1.4c0.8,0.2,1.7-0.2,2.2-0.9c0.9-1.3-1.3-2.6-2.2-1.3c0.4-0.6,0.9,0,0.5-0.5c-0.2-0.3-0.4-0.6-0.5-0.9
			c-0.2-0.6-0.1-0.7,0.4-1c1.3-0.6,2.8-1.1,4.2-1.6s3-1,4.5-1.6c0.7-0.2,1.4-0.5,2.1-0.7c0.4-0.1,0.8-0.3,1.2-0.4
			c0.3-0.1,0.6-0.2,0.9-0.3c0.3,0.1,0.6,1,0.7,1.3s0.2,0.8-0.2,1.1c-0.5,0.3-1.1,0.6-1.7,0.6L52.2,67c-3,0.9-6.1,1.8-9.1,2.8
			C41.6,70.6,42.2,73,43.8,72.5z"/>
		<path class="st7" d="M80.8,87.3c0.8,3.3,2,6.6,3.4,9.7c0.4,1,0.9,2,1.6,2.9c0.7,0.9,1.8,1.4,2.9,1.4c1.2-0.2,2.2-0.8,2.9-1.8
			c1.7-2.2,2.2-5.2,2.4-8.1c0.3-2.5,0.2-5-0.3-7.5c-4.2,1-8.4,1.9-12.7,2.9"/>
		<path class="st7" d="M79.6,87.6c0.7,2.7,1.5,5.3,2.6,7.9c0.9,2.3,1.8,5.2,4.2,6.4s4.8,0,6.3-2s2-4.6,2.3-7
			c0.5-3.1,0.5-6.3-0.2-9.4c-0.2-0.6-0.8-1-1.5-0.9c-4.2,1-8.4,1.9-12.7,2.9c-1.6,0.4-0.9,2.8,0.7,2.4c4.2-1,8.4-1.9,12.7-2.9
			l-1.5-0.9c0.6,2.8,0.6,5.7,0.2,8.6c-0.4,2.5-1,5.5-3.1,7c-2.6,1.8-4.1-2.6-4.8-4.3c-1.1-2.7-2.1-5.6-2.8-8.4
			C81.7,85.4,79.3,86,79.6,87.6L79.6,87.6z"/>
		<path class="st6" d="M62.9,132.1c0.4,2.4,2.4,4.3,4.8,4.5c2.4,0.2,4.7-1.4,5.2-3.8c0.3-1.3,0.2-2.7-0.3-3.9
			c-0.1-0.7-0.8-1.1-1.4-1c-0.7,0.1-1.1,0.8-1,1.4c0,0.1,0,0.1,0,0.2c0.1,0.3,0.2,0.6,0.2,0.9c0,0.1,0.1,0.3,0.1,0.4v1l0,0v0.2
			c0,0.1,0,0.2-0.1,0.3c0,0.1-0.1,0.3-0.1,0.4c0.1-0.3-0.1,0.1-0.1,0.2c-0.1,0.1-0.2,0.2-0.2,0.4l-0.1,0.1l-0.3,0.3
			c0.2-0.2-0.1,0.1-0.2,0.1s-0.2,0.1-0.4,0.2c0.3-0.1-0.1,0-0.1,0s-0.2,0.1-0.3,0.1h-0.8c0.2,0-0.2-0.1-0.2-0.1s-0.3-0.1-0.4-0.1
			c0.3,0.1-0.1-0.1-0.2-0.1s-0.2-0.1-0.3-0.2l-0.1-0.1l0,0l-0.3-0.3c0,0-0.3-0.4-0.2-0.2c-0.1-0.1-0.1-0.2-0.2-0.3s-0.1-0.2-0.2-0.3
			s-0.1-0.1-0.1-0.2l0,0c-0.1-0.3-0.2-0.5-0.2-0.8c-0.2-0.7-0.8-1.1-1.5-0.9C63.2,130.7,62.8,131.4,62.9,132.1L62.9,132.1z"/>
		<path class="st4" d="M119,99.8c5.2,0.2,9.9-2.9,11.8-7.7c1.8-4.8,0.8-10.3-2.7-14.1c-1.8-2-4.7-3.6-7.2-2.6
			c-0.3,0.1-0.5,0.2-0.7,0.5c-0.1,0.3-0.2,0.7-0.1,1c0.8,7.5-0.2,15-2.8,22"/>
		<path class="st4" d="M119,102.3c4.5,0.2,8.7-1.8,11.6-5.2c3-3.6,4.2-8.3,3.3-12.9c-0.8-4.4-3.6-9-7.8-10.8
			c-2.1-0.9-4.8-1.2-6.9,0.2c-2.4,1.6-1.3,5.2-1.3,7.6c0.1,5.8-1,11.6-3,17.1c-0.4,1.3,0.4,2.7,1.8,3.1c0,0,0,0,0,0
			c1.3,0.3,2.7-0.5,3.1-1.8c1.4-3.8,2.3-7.7,2.8-11.7c0.2-1.9,0.4-3.9,0.4-5.8c0-1,0-1.9-0.1-2.9c-0.2-0.9-0.2-1.7-0.2-2.6
			c-0.2,0.4-0.4,0.7-0.6,1.1c-0.2,0.2,0.1-0.1,0.2-0.1h0.8c0.5,0.1,1,0.3,1.5,0.6c1.1,0.7,2,1.6,2.7,2.7c1.5,2.3,2.2,5,1.9,7.7
			c-0.6,5.1-5,9-10.2,8.8C115.7,97.1,115.8,102.1,119,102.3L119,102.3z"/>
		<path class="st7" d="M47.2,94.1c0.8,4.7,2.8,9.1,5.8,12.8c0.5,0.8,1.4,1.4,2.3,1.7c1,0.1,2-0.4,2.5-1.3c0.5-0.9,0.8-1.8,1-2.8
			c0.8-4.8,0.8-9.8-0.2-14.6c-3.7,2.1-7.7,3.5-11.9,4.1c3.9-2.4,8.9-2.6,12.8-5.1"/>
		<path class="st7" d="M46,94.4c0.6,3.4,1.8,6.6,3.5,9.6c0.8,1.4,1.8,2.7,2.8,4c0.9,1.3,2.5,2,4.1,1.7c3.6-0.9,3.8-5.7,4.1-8.7
			c0.3-3.9,0.1-7.8-0.6-11.6c-0.2-0.7-1-1.1-1.7-0.8c0,0-0.1,0-0.1,0c-3.6,2-7.5,3.3-11.6,4c0.3,0.8,0.6,1.6,1,2.3
			c4-2.4,8.8-2.6,12.8-5.1c1.4-0.8,0.1-3-1.3-2.2c-4,2.4-8.8,2.7-12.8,5.1c-1.3,0.8-0.4,2.5,1,2.3c4.3-0.7,8.4-2.1,12.2-4.2
			c-0.6-0.2-1.2-0.5-1.8-0.8c0.6,3.1,0.8,6.3,0.6,9.4c-0.1,1.5-0.2,3-0.5,4.5c-0.2,1.1-0.5,3.1-1.9,3.3c-1.1,0.2-2.2-1.6-2.7-2.3
			c-0.8-1.1-1.5-2.2-2.1-3.4c-1.3-2.5-2.1-5.1-2.6-7.8C48.1,92.2,45.7,92.9,46,94.4z"/>
		<path class="st8" d="M65,76.3c-1.6,3.2-2.2,6.7-3.4,10.1c-1.4,4.1-3.7,7.9-4.3,12.3c-0.3,1.2-0.1,2.4,0.3,3.5
			c0.4,0.9,1,1.6,1.7,2.2c2.5,2.3,5.2,4.3,8.1,6c0.2,0.1,0.3,0.2,0.5,0.2s0.3-0.1,0.4-0.3l7.7-7.4c0.2-0.2,0.4-0.4,0.5-0.7
			c0.2-0.5,0.1-1.1-0.2-1.6c-0.7-1.2-1.5-2.2-2.4-3.2c-2.4-3.2-4.3-6.8-5.4-10.6c-1.2-3.8-2-7.8-2.9-11.7"/>
		<path class="st8" d="M63.9,75.7c-1.2,2.7-2.1,5.4-2.9,8.2c-0.9,2.7-1.9,5.3-3,7.8c-1.1,2.6-2.2,5.4-2.2,8.3s1.9,4.8,4,6.6
			c1.1,0.9,2.2,1.7,3.4,2.6c1.2,0.9,2.4,1.7,3.7,2.4c1.2,0.5,1.9-0.1,2.7-0.9c1.2-1.1,2.3-2.2,3.5-3.3s2.2-2.1,3.3-3.2
			s1.6-2,1.2-3.4c-0.4-1.2-1.1-2.2-1.9-3.1c-1-1.1-1.9-2.3-2.7-3.6c-3.5-5.8-4.7-12.7-6.2-19.2c-0.3-1.6-2.8-0.9-2.4,0.7
			c1.2,5.2,2.2,10.4,4.2,15.3c0.9,2.1,2,4.2,3.3,6.1l2.1,2.7c0.4,0.4,0.7,0.9,0.9,1.4c0.5,0.9-0.3,1.4-0.9,1.9
			c-1.9,1.8-3.8,3.7-5.8,5.5c-0.3,0.2-0.6,0.5-0.9,0.8l-0.2,0.2c0.6,0,0.8-0.1,0.4-0.2c-0.5-0.4-1-0.7-1.5-1
			c-1.1-0.7-2.2-1.5-3.2-2.2c-2-1.5-4.6-3.2-4.6-5.9c0.2-2.5,0.8-4.9,1.9-7.2c1-2.5,2.2-4.9,3-7.5c0.9-2.8,1.5-5.7,2.8-8.3
			C66.8,75.5,64.6,74.2,63.9,75.7L63.9,75.7z"/>
	</g>
	
		<ellipse transform="matrix(0.9987 -5.041863e-02 5.041863e-02 0.9987 -4.4594 2.8928)" class="st6" cx="55.1" cy="89.8" rx="2.7" ry="3"/>
	
		<ellipse transform="matrix(0.9987 -5.041863e-02 5.041863e-02 0.9987 -4.118 4.6247)" class="st6" cx="89.6" cy="83.9" rx="2.7" ry="3"/>
</g>
<g class="st9">
	<ellipse cx="82.8" cy="90.3" rx="13.5" ry="12.5"/>
	<ellipse class="st10" cx="82.8" cy="90.3" rx="13.5" ry="12.5"/>
	<text transform="matrix(1.0793 0 0 1 75.123 81.1691)"><tspan x="0" y="0" class="st11 st12 st13">export</tspan><tspan x="4.8" y="0" class="st11 st12 st13 st14"> </tspan><tspan x="9" y="0" class="st11 st12 st13">default</tspan><tspan x="14.2" y="0" class="st12 st13">  </tspan><tspan x="-0.1" y="2.1" class="st15 st12 st13">function </tspan><tspan x="6.4" y="2.1" class="st12 st13"> </tspan><tspan x="6.8" y="2.1" class="st16 st12 st13">HireMe</tspan><tspan x="12.1" y="2.1" class="st17 st12 st13"> () {</tspan><tspan x="3" y="4.2" class="st16 st12 st13">Interview</tspan><tspan x="9.8" y="4.2" class="st15 st12 st13">()</tspan><tspan x="10.8" y="4.2" class="st11 st12 st13">{</tspan><tspan x="1.7" y="6.3" class="st15 st12 st13">let</tspan><tspan x="3.6" y="6.3" class="st16 st12 st13"> skills</tspan><tspan x="7.4" y="6.3" class="st12 st13"> </tspan><tspan x="7.7" y="6.3" class="st7 st12 st13">=</tspan><tspan x="8.8" y="6.3" class="st12 st13"> </tspan><tspan x="9.2" y="6.3" class="st18 st12 st13">true;</tspan><tspan x="-0.3" y="8.4" class="st15 st12 st13">let</tspan><tspan x="1.6" y="8.4" class="st12 st13"> </tspan><tspan x="2" y="8.4" class="st16 st12 st13">teamwork</tspan><tspan x="9.3" y="8.4" class="st12 st13"> </tspan><tspan x="9.7" y="8.4" class="st7 st12 st13">=</tspan><tspan x="10.8" y="8.4" class="st12 st13"> </tspan><tspan x="11.1" y="8.4" class="st18 st12 st13">true;</tspan><tspan x="-5.2" y="10.5" class="st15 st12 st13">let</tspan><tspan x="-3.4" y="10.5" class="st12 st13"> </tspan><tspan x="-3" y="10.5" class="st16 st12 st13">employed</tspan><tspan x="4.4" y="10.5" class="st12 st13"> </tspan><tspan x="4.7" y="10.5" class="st7 st12 st13">=</tspan><tspan x="5.8" y="10.5" class="st12 st13"> </tspan><tspan x="6.1" y="10.5" class="st19 st12 st13">skills</tspan><tspan x="9.6" y="10.5" class="st12 st13"> </tspan><tspan x="9.9" y="10.5" class="st7 st12 st13">+</tspan><tspan x="11" y="10.5" class="st12 st13">  </tspan><tspan x="11.7" y="10.5" class="st19 st12 st13">teamwork</tspan><tspan x="19.1" y="10.5" class="st12 st13">;</tspan><tspan x="1" y="12.6" class="st11 st12 st13">return</tspan><tspan x="5.5" y="12.6" class="st12 st13"> </tspan><tspan x="5.9" y="12.6" class="st19 st12 st13">employed</tspan><tspan x="6.9" y="14.7" class="st11 st12 st13">}</tspan><tspan x="4.6" y="16.7" class="st11 st12 st13">return(</tspan><tspan x="-0.4" y="18.8" class="st12 st13">&lt;</tspan><tspan x="0.7" y="18.8" class="st15 st12 st13">h1</tspan><tspan x="2.5" y="18.8" class="st12 st13">&gt; </tspan><tspan x="3.9" y="18.8" class="st7 st12 st13">Suecess</tspan><tspan x="9.7" y="18.8" class="st12 st13"> &lt;/</tspan><tspan x="11.7" y="18.8" class="st15 st12 st13">h1</tspan><tspan x="13.5" y="18.8" class="st12 st13">&gt;</tspan><tspan x="6.6" y="20.9" class="st11 st12 st13">)</tspan><tspan x="7.1" y="20.9" class="st17 st12 st13">}</tspan></text>
</g>
<g class="st20">
	<ellipse cx="46.1" cy="93.3" rx="13.5" ry="12.5"/>
	<ellipse class="st10" cx="46.1" cy="93.3" rx="13.5" ry="12.5"/>
	<text transform="matrix(1.0793 0 0 1 38.4272 84.1691)"><tspan x="0" y="0" class="st11 st12 st13">export</tspan><tspan x="4.8" y="0" class="st11 st12 st13 st14"> </tspan><tspan x="9" y="0" class="st11 st12 st13">default</tspan><tspan x="14.2" y="0" class="st12 st13">  </tspan><tspan x="-0.1" y="2.1" class="st15 st12 st13">function </tspan><tspan x="6.4" y="2.1" class="st12 st13"> </tspan><tspan x="6.8" y="2.1" class="st16 st12 st13">HireMe</tspan><tspan x="12.1" y="2.1" class="st17 st12 st13"> () {</tspan><tspan x="3" y="4.2" class="st16 st12 st13">Interview</tspan><tspan x="9.8" y="4.2" class="st15 st12 st13">()</tspan><tspan x="10.8" y="4.2" class="st11 st12 st13">{</tspan><tspan x="1.7" y="6.3" class="st15 st12 st13">let</tspan><tspan x="3.6" y="6.3" class="st16 st12 st13"> skills</tspan><tspan x="7.4" y="6.3" class="st12 st13"> </tspan><tspan x="7.7" y="6.3" class="st7 st12 st13">=</tspan><tspan x="8.8" y="6.3" class="st12 st13"> </tspan><tspan x="9.2" y="6.3" class="st18 st12 st13">true;</tspan><tspan x="-0.3" y="8.4" class="st15 st12 st13">let</tspan><tspan x="1.6" y="8.4" class="st12 st13"> </tspan><tspan x="2" y="8.4" class="st16 st12 st13">teamwork</tspan><tspan x="9.3" y="8.4" class="st12 st13"> </tspan><tspan x="9.7" y="8.4" class="st7 st12 st13">=</tspan><tspan x="10.8" y="8.4" class="st12 st13"> </tspan><tspan x="11.1" y="8.4" class="st18 st12 st13">true;</tspan><tspan x="-5.2" y="10.5" class="st15 st12 st13">let</tspan><tspan x="-3.4" y="10.5" class="st12 st13"> </tspan><tspan x="-3" y="10.5" class="st16 st12 st13">employed</tspan><tspan x="4.4" y="10.5" class="st12 st13"> </tspan><tspan x="4.7" y="10.5" class="st7 st12 st13">=</tspan><tspan x="5.8" y="10.5" class="st12 st13"> </tspan><tspan x="6.1" y="10.5" class="st19 st12 st13">skills</tspan><tspan x="9.6" y="10.5" class="st12 st13"> </tspan><tspan x="9.9" y="10.5" class="st7 st12 st13">+</tspan><tspan x="11" y="10.5" class="st12 st13">  </tspan><tspan x="11.7" y="10.5" class="st19 st12 st13">teamwork</tspan><tspan x="19.1" y="10.5" class="st12 st13">;</tspan><tspan x="1" y="12.6" class="st11 st12 st13">return</tspan><tspan x="5.5" y="12.6" class="st12 st13"> </tspan><tspan x="5.9" y="12.6" class="st19 st12 st13">employed</tspan><tspan x="6.9" y="14.7" class="st11 st12 st13">}</tspan><tspan x="4.6" y="16.7" class="st11 st12 st13">return(</tspan><tspan x="-0.4" y="18.8" class="st12 st13">&lt;</tspan><tspan x="0.7" y="18.8" class="st15 st12 st13">h1</tspan><tspan x="2.5" y="18.8" class="st12 st13">&gt; </tspan><tspan x="3.9" y="18.8" class="st7 st12 st13">Suecess</tspan><tspan x="9.7" y="18.8" class="st12 st13"> &lt;/</tspan><tspan x="11.7" y="18.8" class="st15 st12 st13">h1</tspan><tspan x="13.5" y="18.8" class="st12 st13">&gt;</tspan><tspan x="6.6" y="20.9" class="st11 st12 st13">)</tspan><tspan x="7.1" y="20.9" class="st17 st12 st13">}</tspan></text>
</g>
<ellipse class="st21" cx="45.7" cy="92.9" rx="12.6" ry="11.8"/>
<ellipse class="st21" cx="82.9" cy="89.4" rx="12.6" ry="11.8"/>
<path class="st21" d="M58.3,92.9l0.3-0.3c3.4-2.9,8.6-3,12.1-0.2l0,0"/>
<path class="st21" d="M95.5,86.6l21.8-12.9c1.2-0.7,2.7-0.9,4.1-0.6l0,0"/>
</svg>
