<?xml version="1.0" encoding="UTF-8"?>
<svg id="Capa_2" data-name="Capa 2" xmlns="http://www.w3.org/2000/svg" xmlns:xlink="http://www.w3.org/1999/xlink" viewBox="0 0 189.94 222.52">
  <defs>
    <style>
      .cls-1 {
        stroke-width: 2px;
      }

      .cls-1, .cls-2 {
        stroke: #220d0a;
      }

      .cls-1, .cls-2, .cls-3, .cls-4, .cls-5 {
        stroke-miterlimit: 10;
      }

      .cls-1, .cls-4, .cls-5 {
        fill: none;
      }

      .cls-6, .cls-2 {
        fill: #220d0a;
      }

      .cls-7, .cls-8 {
        fill: #fff;
      }

      .cls-9 {
        fill: #444441;
        font-family: Bauhaus93, 'Bauhaus 93';
        font-size: 11px;
      }

      .cls-3 {
        fill: url(#Degradado_sin_nombre_17);
        stroke: #683c11;
      }

      .cls-3, .cls-4 {
        stroke-width: .75px;
      }

      .cls-4 {
        stroke: #fff;
      }

      .cls-4, .cls-8 {
        opacity: .5;
      }

      .cls-10 {
        fill: #8f6940;
      }

      .cls-11 {
        fill: #ee7557;
      }

      .cls-12 {
        fill: #673b1e;
      }

      .cls-13 {
        fill: #f7baba;
      }

      .cls-14 {
        fill: #e6778a;
      }

      .cls-15 {
        clip-path: url(#clippath-1);
      }

      .cls-16 {
        fill: #dadada;
      }

      .cls-17 {
        fill: #eb586a;
      }

      .cls-18 {
        clip-path: url(#clippath);
      }

      .cls-19 {
        fill: #5858a3;
      }

      .cls-20 {
        fill: #432918;
      }

      .cls-21 {
        fill: #a297c9;
      }

      .cls-22 {
        fill: #ee7657;
      }

      .cls-23 {
        fill: #1d1d1b;
      }

      .cls-5 {
        stroke: #dadada;
      }
    </style>
    <linearGradient id="Degradado_sin_nombre_17" data-name="Degradado sin nombre 17" x1="121.1" y1="75.41" x2="187.5" y2="281.66" gradientUnits="userSpaceOnUse">
      <stop offset=".02" stop-color="#26120b"/>
      <stop offset=".87" stop-color="#845213"/>
    </linearGradient>
    <clipPath id="clippath">
      <path class="cls-7" d="m81.49,91.74c1.69,9.64-3.89,21.55-10.55,22.3-6.41.73-13.31-8.94-14.69-17.41-1.46-8.99,2.66-20.75,9.26-21.84,6.44-1.07,14.43,8.16,15.97,16.95Z"/>
    </clipPath>
    <clipPath id="clippath-1">
      <path class="cls-7" d="m126.53,83c1.59,8.87-3.65,19.83-9.89,20.52-6.01.67-12.49-8.22-13.78-16.02-1.37-8.28,2.5-19.1,8.69-20.1,6.04-.98,13.53,7.51,14.98,15.59Z"/>
    </clipPath>
  </defs>
  <g id="Cara">
    <g>
      <path class="cls-20" d="m68.88,42.67C69.49,42.01,43.27-.66,86.6,0c43.33.67,62.22,19.33,62.22,19.33,0,0,28.89,21.56,24.89,36.44s-7.11,27.33-7.11,27.33c0,0,28.89-15.78,20.22,20.45-8.67,36.22-30.22,29.58-26.44,38.34,3.78,8.77,36,2.99,22.67,29.21-13.33,26.22-38.75,34.89-38.75,34.89,0,0-40.68-6.22-32.85-32.67,7.82-26.44-42.56-130.67-42.56-130.67Z"/>
      <path class="cls-20" d="m81.62,40.88s6.69-22.7-11.31-30.22C61.33,6.91,23.82-13.6,3.68,21.4s49.94,70.78,27.79,111.39c-22.15,40.61-15.71,52.28-11.28,52.28s-18.52,23,28.19,18.33c46.71-4.67,44.93-51.74,44.93-51.74l-11.69-110.78Z"/>
      <path class="cls-3" d="m68.6,47.31c-.37-1.11-1.28-1.93-2.41-2.22-5.15-1.31-18.65-5.81-4.26-14.48,15.96-9.62,27.9-13.03,29.8-13.54.18-.05.35-.11.52-.19,2.03-.93,15.87-6.76,23.61,2.95,8.37,10.5-21.02,15.5,34.69,41.33,53.81,24.95,13.25,48.03,10.41,49.58-.1.05-.19.1-.29.14-1.66.72-18.25,8.28-16.87,20.94,1.45,13.33-12.39,19.76-12.39,19.76,0,0-13.66,5.74-3.41,15.57,7.42,7.11-6.82,6.7-13.63,10.72-4.81,2.84-4.34-1.97-3.68-4.3,1.69-6.02,1.65-13.83-1.32-19.92-3.69-7.57-36.14-92.62-40.75-106.36Z"/>
      <path class="cls-16" d="m164.88,92.56c3.22,0,3.22-5,0-5s-3.22,5,0,5h0Z"/>
      <path class="cls-13" d="m88.37,153.21l-1.28,18.73c-.05.75.21,1.49.71,2.04l18.3,19.95c.96,1.05,2.56,1.19,3.69.32l29-22.28c.99-.76,1.34-2.1.85-3.26l-12.02-27.94c-.56-1.31-2.04-1.97-3.4-1.51l-34,11.54c-1.05.36-1.78,1.31-1.85,2.41Z"/>
      <path class="cls-14" d="m88.5,151.39l-.39,5.7s15.01,7.36,25.64.47c10.63-6.89,14.76-14.72,14.76-14.72l-1.89-4.39-38.12,12.94Z"/>
      <path class="cls-21" d="m87.09,171.95l-22.07,2.94c-2.16.29-4.04,1.62-5.03,3.56l-18.72,36.68,148.67,1.56-20.95-41.77c-.93-1.85-2.72-3.1-4.77-3.34l-24.57-2.85-30.38,23.32-22.17-20.09Z"/>
      <path class="cls-19" d="m87.09,171.95l17.87,16.19c2.49,2.26,6.25,2.41,8.92.36l25.76-19.78,4.72.55-31.33,25.06c-1.5,1.2-3.67,1.05-4.99-.34l-21.88-23.09"/>
      <text class="cls-9" transform="translate(105.16 212.57)"><tspan x="0" y="0">&lt;/3</tspan></text>
      <path class="cls-19" d="m68.2,215.48l6.78-16.58c.17-.41.77-.27.75.17l-.85,16.41h-6.68Z"/>
      <path class="cls-13" d="m52.05,47.82c7.73-9.88,18.74-2.73,40.33-15.67,2.84-1.7,7.14-4.52,12.33-3.67,4.12.68,6.13,3.22,13.33,11.33,12.1,13.62,16.73,18.01,22.67,21.33,5.24,2.93,8.82,3.54,9.67,3.67,5.34.83,6.97-.79,10.67.33,6.17,1.88,9.08,8.63,9.67,10,.18.43,4.49,10.86-1,18-2.43,3.16-7.57,6.71-13,7-1.77.1-3.9-.14-5.67,1.33-1.6,1.33-1.89,3.23-2.33,5-.01.05-1.56,3.48-4.67,10.33-4.2,9.29-12.41,17.2-14.33,19-3.2,3-8.01,7.44-15.67,11-10.27,4.77-19.34,5.03-22.67,5-5.28-.04-10.74-.09-16.33-3-4.13-2.15-9.28-6.36-14.67-19-4.65-10.92-5.99-19.94-7.9-40.77-3.36-36.61-2.01-39.21-.43-41.23Z"/>
      <path class="cls-12" d="m93.33,59.41c-.3,1.5,4.4,3.98,8.64,5.1,2.33.62,10.89,2.88,16.05-2.06,1.89-1.81,4.42-5.64,2.93-8.62-1.32-2.64-5.21-3.43-7.94-2.82-2.74.61-3.22,2.38-5.98,4.37-6.28,4.52-13.34,2.23-13.7,4.03Z"/>
      <path class="cls-12" d="m56.57,76.49l17.44-5.51c1.85-.58,3.31-2.12,3.59-4.04s-.5-3.89-4.61-4.87c-7.83-1.88-17.01,7.2-17.81,8.02-.04.04-.07.08-.1.13l-1.26,1.87c-1.13,1.68-.17,3.97,1.83,4.34l.48.09c.15.03.31.02.45-.03Z"/>
      <g>
        <path class="cls-7" d="m81.49,91.74c1.69,9.64-3.89,21.55-10.55,22.3-6.41.73-13.31-8.94-14.69-17.41-1.46-8.99,2.66-20.75,9.26-21.84,6.44-1.07,14.43,8.16,15.97,16.95Z"/>
        <g class="cls-18">
          <path class="cls-11" d="m53.04,95.07l27.17-8.32-1.04-5.63s-.14-13.71-13.34-10.21c-13.2,3.5-12.9,13.07-12.9,13.07l.12,11.09"/>
        </g>
      </g>
      <line class="cls-1" x1="81.8" y1="85.75" x2="55.25" y2="94.4"/>
      <path class="cls-22" d="m86.6,72.34c.68-1.16,2.26-1.05,2.77.22.1.24.19.5.28.76,1.09,3.21,3.71,14.38,8.92,21.41,3.84,5.19,5.21,6.39,4.99,8.49-.25,2.38-2.19,2.58-5.55,6.72-4.11,5.08-3.53,7.66-5.83,8.49-2.38.86-5.19-1.67-10.82-6.72-2.93-2.64-4.4-3.95-4.99-4.95-4.65-7.85,6.24-27.63,10.22-34.42Z"/>
      <path class="cls-17" d="m99.72,139.21c.29,2.49-1.95,4.79-4.99,5.14s-5.74-1.39-6.02-3.88c-.29-2.49,2.88.78,5.92.43s4.8-4.19,5.09-1.7Z"/>
      <path class="cls-23" d="m86.61,134.26c.74,3.36,2.33,6.81,5.82,8,1.56.53,3.41.45,4.82-.45,1.32-.84,2.16-2.22,2.52-3.72.4-1.68.33-3.43.16-5.13-.07-.67-.52-1.25-1.25-1.25-.62,0-1.32.57-1.25,1.25.16,1.55.27,3.18-.1,4.61-.32,1.24-1.08,2.32-2.44,2.51s-2.9-.56-3.86-1.7c-1.13-1.34-1.64-3.1-2-4.78-.15-.66-.91-1.05-1.54-.87-.68.19-1.02.88-.87,1.54h0Z"/>
      <ellipse class="cls-2" cx="67.56" cy="94.4" rx="2.81" ry="3.67" transform="translate(-20.52 18.78) rotate(-13.76)"/>
      <g>
        <path class="cls-7" d="m126.53,83c1.59,8.87-3.65,19.83-9.89,20.52-6.01.67-12.49-8.22-13.78-16.02-1.37-8.28,2.5-19.1,8.69-20.1,6.04-.98,13.53,7.51,14.98,15.59Z"/>
        <g class="cls-15">
          <path class="cls-11" d="m99.85,86.06l25.49-7.65-.98-5.18s-.13-12.61-12.51-9.39c-12.38,3.22-12.1,12.02-12.1,12.02l.11,10.2"/>
          <line class="cls-1" x1="128.23" y1="76.51" x2="99.55" y2="85.45"/>
        </g>
      </g>
      <ellipse class="cls-2" cx="113.75" cy="84.48" rx="2.63" ry="3.38" transform="translate(-17.8 31.84) rotate(-14.79)"/>
      <polygon class="cls-6" points="123.06 78.27 126.08 72.42 127.78 73.47 123.9 78.79 123.06 78.27 123.06 78.27"/>
      <polygon class="cls-6" points="122.51 78.18 128.56 75.58 129.21 77.48 122.83 79.11 122.51 78.18 122.51 78.18"/>
      <polygon class="cls-6" points="56.06 95.2 50.83 91.2 52.17 89.71 56.72 94.47 56.06 95.2 56.06 95.2"/>
      <polygon class="cls-6" points="57.53 94.56 51.53 97.27 50.85 95.39 57.2 93.63 57.53 94.56 57.53 94.56"/>
      <path class="cls-14" d="m153.98,75.96c.39-.71,1.22-1.05,2.02-.92,2.17.34,6.78.12,7.16,5.31.44,6.22-5.33,10.89-5.33,10.89,0,0,0,0,0,0,0,0-3.11-7.44-2.78-7.44s2-2.22,2.33-2.22-3-4.62-3.44-5.03c-.13-.12-.09-.34.04-.57Z"/>
      <path class="cls-16" d="m166.88,91.95c3.22,0,3.22-5,0-5s-3.22,5,0,5h0Z"/>
      <line class="cls-5" x1="167.25" y1="90.45" x2="170.76" y2="106"/>
      <rect class="cls-16" x="169.09" y="102.67" width="3.25" height="7.83" rx="1.62" ry="1.62" transform="translate(-17.87 36.29) rotate(-11.54)"/>
      <path class="cls-16" d="m161.67,96.08c.59-.2,1.24.77,1.56,1.16.48.57.92,1.2,1.22,1.88.58,1.32.58,2.89-.47,3.97-.9.93-2.24,1.21-3.44.74-1.43-.56-1.99-1.99-2.47-3.33-.27-.75-1.48-.43-1.21.33.51,1.42,1.09,2.86,2.4,3.73,1.13.75,2.67.98,3.94.49s2.26-1.49,2.69-2.77c.5-1.51.06-3.18-.74-4.5-.46-.77-1.04-1.49-1.67-2.13-.56-.57-1.33-1.05-2.15-.77-.76.25-.43,1.46.33,1.21h0Z"/>
      <path class="cls-10" d="m135.41,95.36v-.06c.02-.15,0-.3-.09-.42-.05-.14-.14-.26-.28-.34-.14-.1-.29-.17-.45-.19-.18-.06-.36-.08-.54-.05l-.4.07c-.25.07-.48.18-.69.34l-.25.24c-.14.16-.22.35-.25.56v.06c-.02.15,0,.3.09.42.05.14.14.26.28.34.14.1.29.17.45.19.18.06.36.08.54.05l.4-.07c.25-.07.48-.18.69-.34l.25-.24c.14-.16.22-.35.25-.56h0Z"/>
      <path class="cls-10" d="m109.27,112.41c.8,0,.81-1.25,0-1.25s-.81,1.25,0,1.25h0Z"/>
      <path class="cls-10" d="m114.6,114.85c.8,0,.81-1.25,0-1.25s-.81,1.25,0,1.25h0Z"/>
      <path class="cls-10" d="m129.27,103.97c.8,0,.81-1.25,0-1.25s-.81,1.25,0,1.25h0Z"/>
      <path class="cls-10" d="m65.2,118.6c.49,0,1.56-.74.59-.74-.49,0-1.56.74-.59.74h0Z"/>
      <path class="cls-10" d="m78.82,139.08c.8,0,.81-1.25,0-1.25s-.81,1.25,0,1.25h0Z"/>
      <rect class="cls-8" x="170.6" y="105.78" width="1.5" height="3.7" rx=".75" ry=".75" transform="translate(-18.06 36.44) rotate(-11.54)"/>
      <path class="cls-8" d="m166.27,87.51s.96-.74,2.07.65c1.11,1.39-.51,3.07-.51,3.07l-1.56-3.72Z"/>
      <path class="cls-4" d="m161.5,95.48s7.7,5.33,1.68,9.21"/>
    </g>
  </g>
</svg>